<svg id="Layer_1" data-name="Layer 1" xmlns="http://www.w3.org/2000/svg" xmlns:xlink="http://www.w3.org/1999/xlink" viewBox="0 0 600 600"><defs><style>.cls-1{fill:#2a232b;}.cls-15,.cls-2{fill:#f0c7b1;}.cls-3{fill:#ffe4d6;}.cls-4{fill:#e1ac8f;}.cls-19,.cls-5{fill:none;}.cls-15,.cls-19,.cls-5{stroke:#c27b55;}.cls-15,.cls-5{stroke-width:1.5px;}.cls-6{fill:url(#linear-gradient);}.cls-7{fill:#f5f4f5;}.cls-26,.cls-27,.cls-8{fill:#fff;}.cls-9{fill:#dfdde2;}.cls-10{fill:#b8b6c9;}.cls-11{fill:#1d282e;}.cls-12{fill:#101a1f;}.cls-13{fill:#070c0f;}.cls-14{fill:#2d373d;}.cls-16{fill:#c27b55;}.cls-17{fill:#e8b9a0;}.cls-18{fill:url(#linear-gradient-2);}.cls-19{stroke-width:0.75px;}.cls-20{fill:url(#radial-gradient);}.cls-21{fill:#3e4442;}.cls-22{fill:#535353;}.cls-23{fill:#1b2522;}.cls-24{fill:#0e1613;}.cls-25,.cls-27{opacity:0.9;}.cls-25,.cls-26,.cls-27,.cls-35{isolation:isolate;}.cls-26{opacity:0.7;}.cls-28{fill:url(#radial-gradient-2);}.cls-29{fill:url(#radial-gradient-3);}.cls-30{fill:url(#radial-gradient-4);}.cls-31{fill:url(#radial-gradient-5);}.cls-32{fill:url(#radial-gradient-6);}.cls-33{fill:url(#radial-gradient-7);}.cls-34{fill:url(#radial-gradient-8);}.cls-35{fill:#fff5ef;opacity:0.2;}.cls-36{fill:#1b141c;}.cls-37{fill:#3a353a;}</style><linearGradient id="linear-gradient" x1="-106.07" y1="559.255" x2="-106.07" y2="599.255" gradientTransform="matrix(2.55, 0, 0, -2.55, 570.387, 1929.17)" gradientUnits="userSpaceOnUse"><stop offset="0" stop-color="#e1ac8f" stop-opacity="0.8"/><stop offset="0.7" stop-color="#c27b55"/></linearGradient><linearGradient id="linear-gradient-2" x1="-112.338" y1="592.195" x2="-112.338" y2="595.195" gradientTransform="matrix(2.677, 0, 0, -2.677, 600.796, 2015.408)" gradientUnits="userSpaceOnUse"><stop offset="0.1" stop-color="#e8b9a0"/><stop offset="1" stop-color="#e1ac8f"/></linearGradient><radialGradient id="radial-gradient" cx="-360.128" cy="634.136" r="15.179" gradientTransform="matrix(-2.216, 0.116, -0.127, -2.419, -483.441, 1856.683)" gradientUnits="userSpaceOnUse"><stop offset="0" stop-color="#fff"/><stop offset="0.544" stop-color="#fdfefe"/><stop offset="0.74" stop-color="#f6f8f9"/><stop offset="0.879" stop-color="#eaeff2"/><stop offset="0.992" stop-color="#d9e3e8"/><stop offset="1" stop-color="#d8e2e7"/></radialGradient><radialGradient id="radial-gradient-2" cx="-65.403" cy="819.031" fx="-51.74820391652672" r="16.922" gradientTransform="matrix(2.398, 0.342, -0.263, 1.843, 616.186, -1214.603)" gradientUnits="userSpaceOnUse"><stop offset="0" stop-color="#e1ac8f"/><stop offset="0.7" stop-color="#e1ac8f" stop-opacity="0.3"/><stop offset="1" stop-color="#f0c7b1" stop-opacity="0"/></radialGradient><radialGradient id="radial-gradient-3" cx="-133.562" cy="622.949" r="29.51" gradientTransform="matrix(2.504, 0, 0, -2.504, 562.142, 1905.31)" gradientUnits="userSpaceOnUse"><stop offset="0.95" stop-opacity="0"/><stop offset="1" stop-opacity="0.2"/></radialGradient><radialGradient id="radial-gradient-4" cx="-55.457" cy="648.749" r="15.179" gradientTransform="matrix(2.216, 0.116, 0.127, -2.419, 405.266, 1856.683)" xlink:href="#radial-gradient"/><radialGradient id="radial-gradient-5" cx="-342.873" cy="870.418" fx="-329.2186855893657" r="16.922" gradientTransform="matrix(-2.398, 0.342, 0.263, 1.843, -696.287, -1214.466)" xlink:href="#radial-gradient-2"/><radialGradient id="radial-gradient-6" cx="-403.953" cy="622.949" r="29.51" gradientTransform="translate(-640.318 1905.31) rotate(180) scale(2.504)" xlink:href="#radial-gradient-3"/><radialGradient id="radial-gradient-7" cx="-106.059" cy="616.256" r="41" gradientTransform="matrix(2.55, 0, 0, -2.55, 570.387, 1929.17)" gradientUnits="userSpaceOnUse"><stop offset="0" stop-color="#ffe4d6" stop-opacity="0.5"/><stop offset="0.9" stop-color="#f0c7b1" stop-opacity="0"/></radialGradient><radialGradient id="radial-gradient-8" cx="-106.059" cy="676.256" r="37" xlink:href="#radial-gradient-7"/></defs><title>myAvatar</title><g id="svga-group-wrapper"><g id="svga-group-subwrapper"><g id="svga-group-hair-back"><path id="SvgjsPath5624" class="cls-1" d="M301.213,323.3h-2.55v-2.55h2.55Z"/></g><g id="svga-group-humanbody-single"><path id="SvgjsPath2893" class="cls-2" d="M543.251,576.455c-5.6-12.1-20.9-30.036-37.893-34.991-21.009-6.128-68.434-13.535-86.019-17.654-14.1-3.3-42.488-28.8-52.438-37.357a10.77,10.77,0,0,1-3.282-7.038c-.354-27.7,10.7-101.3,10.7-101.3H225.562s11.052,73.59,10.692,101.3a10.752,10.752,0,0,1-3.277,7.038c-9.95,8.558-38.342,34.053-52.438,37.357-17.587,4.118-65.012,11.778-86.019,17.906-17,4.952-32.293,22.634-37.893,34.736-9.455,20.42-11.689,57.375-11.689,89.25h510C554.938,633.83,552.7,596.876,543.251,576.455Z"/><path id="SvgjsPath2894" class="cls-3" d="M450.785,536.369c62.072,9.032,88.194,22.205,96.375,129.338h7.777c0-31.875-2.236-68.83-11.687-89.25-5.6-12.1-20.9-30.036-37.893-34.991-21.009-6.128-68.434-13.535-86.019-17.654-14.1-3.3-46.517-30.776-55.19-41.692,8.568,12,32.617,39.793,53.688,47.073C427.917,532.677,436.312,534.263,450.785,536.369Zm-268.744-7.176c21.071-7.278,45.117-35.078,53.688-47.073-8.67,10.914-41.091,38.388-55.19,41.692-17.585,4.118-65.01,11.778-86.019,17.906-17,4.952-32.293,22.634-37.893,34.736-9.45,20.42-11.687,57.375-11.687,89.25h7.777c8.129-106.447,34.361-120.317,96.375-129.338C163.564,534.263,171.961,532.677,182.041,529.193Z"/><path id="SvgjsPath2895" class="cls-4" d="M288.835,570.952s-12.939-4.1-18.062-6.066c-26.645-10.223-113.207-16.848-113.207-16.848s91.173,3.618,111.292,7.086c-1.168-12.156-7.693-51.01-7.693-51.01s13.13,42.878,16.343,53.7C279.227,563.593,288.835,570.952,288.835,570.952Zm27.537-3.422c-.227.186-.487.428-.77.683A5.787,5.787,0,0,0,316.372,567.53Zm-27.537,3.422s7.377,7.63,11.085,7.726c4.871.13,12.311-7.392,15.685-10.465-3.226,2.44-10.605,3.547-13.54,3.662C298.673,572.005,288.835,570.952,288.835,570.952Zm53.6-19.173c-3.94.632-11.184,2.012-11.184,2.012l5.832-37.969c-1.647,7.831-11.409,41.338-20.706,51.709,4.871-4.121,15.7-6.1,21.226-6.9,26.1-3.784,26.092-3.782,104.708-12.6C442.307,548.038,368.176,547.643,342.431,551.779Z"/><path id="SvgjsPath2896" class="cls-5" d="M543.251,576.455c-5.6-12.1-20.9-30.036-37.893-34.991-21.009-6.128-68.434-13.535-86.019-17.654-14.1-3.3-42.488-28.8-52.438-37.357a10.77,10.77,0,0,1-3.282-7.038c-.354-27.7,10.7-101.3,10.7-101.3H225.562s11.052,73.59,10.692,101.3a10.752,10.752,0,0,1-3.277,7.038c-9.95,8.558-38.342,34.053-52.438,37.357-17.587,4.118-65.012,11.778-86.019,17.906-17,4.952-32.293,22.634-37.893,34.736-9.455,20.42-11.689,57.375-11.689,89.25h510C554.938,633.83,552.7,596.876,543.251,576.455Z"/></g><g id="svga-group-chinshadow-single"><path id="SvgjsPath5134" class="cls-6" d="M299.991,505.28c20.867,0,43.021-12.6,61.707-27.221,0-17.09,3.7-48.718,6.763-71.923-39.224-5.73-97.935-5.811-137.1-.388,3.019,22.848,6.694,54.075,6.811,71.451C256.891,492.277,279.084,505.28,299.991,505.28Z"/></g><g id="svga-group-clothes-single"><path id="SvgjsPath5631" class="cls-7" d="M154,668.2l3.374-155.173s25.995-6.342,42.419-16.1c44.615,55.98,177.1,44.2,199.757-1.581,3.8,1.339,6.939,3.052,10.868,4.368,12.75,8.634,23.493,11.46,23.493,11.46l2.384,157.3C399.867,668.954,154,668.2,154,668.2Z"/><path id="SvgjsPath5632" class="cls-8" d="M437.673,520.169c-10.8-1.833-19.408-4.327-24.1-9.037-13.625,25.564-68.246,41.764-86.33,44.138,52.413-16,74.429-27.573,83.125-55.037,5.075,6.077,16.631,9.05,31.4,11.572Zm-258.427-8.476c3.708-.8,5.559-3.147,9.239-4.062l-3.9-4.761c-7.941,5.7-22.876,8.428-40.545,11.281l.479,9.532a148.778,148.778,0,0,0,29.144-8.474c19.082,21.637,48.878,32.28,79.2,36.687C214.829,542.754,193.016,527.324,179.246,511.693Z"/><path id="SvgjsPath5633" class="cls-9" d="M396.483,500.662C381.364,529.632,267.1,563.379,202.66,502.87c-4.006,1.568-15.991,5.317-15.991,5.317,46.935,58.854,184.48,59.229,221.09-.286C407.6,507.84,400.206,502.4,396.483,500.662Z"/><path id="SvgjsPath5634" class="cls-10" d="M399.408,495.016c-25.722,47.366-159.574,54.07-199.509,1.594-14.586,3.968-28.608,12.434-42.728,14.553L154,668.2l282.292.273-2.18-159.084c-8.591-1.8-16.578-6.979-23.6-9.93C406.635,497.831,403.34,496.365,399.408,495.016Zm-200.476,3.177c35.453,58.869,175.483,47.06,202.518.252,3.279,1.272,4.118,1.775,7.92,3.017-28,54.08-166.53,71.316-223.189,2.925C186.58,504.285,194.936,499.575,198.932,498.193Zm-15.563,8.494c45.806,68.967,197.013,58.283,228.437-3.282a51.175,51.175,0,0,0,20.237,9.524l4.233,150.654-281.461.041,4.855-148.662C166.769,511.394,178.168,508.763,183.37,506.687Z"/><path id="SvgjsPath5635" class="cls-11" d="M33.389,667.714c-6.564-35.323-5.845-121.36,22.983-121.178,33.5-13.543,74.636-29.08,109.145-39.043,17.615-18.477,34.262-36.049,66.779-54.351.992,6.627,4.779,21.78.028,30.021-3.455,6-14.747,14.219-24.363,21.338-5.174,6.936-10.014,13.7-16.827,23.177,13.178,56.868,24.483,86.139,25.747,135.464,0,0-3.7,1.757,164.4,1.012,5.648-56.964,12.732-85.581,26.466-137.95,0,0-10.985-12.786-18.378-22.618-5.238-5.092-21.318-19.207-22.542-22.06-3-6.99-1.4-15.779.281-28.986,27.522,12.426,43.35,30.654,66.509,54.323,19.709,5.4,78.693,25.416,108.235,38.8,10.111-.281,15.818,5.1,20.074,13.938,13.783,28.547,10.521,69.607,5.559,109.112C518.8,668.793,172.15,674.355,33.389,667.714Z"/><path id="SvgjsPath5636" class="cls-12" d="M233.319,459.928c.408,2.729.775,5.317,1.048,7.755-.556.678-43.891,59.55-44.207,59.989C200.809,503.449,216.043,478.349,233.319,459.928Zm133.054,0c-.405,2.729-.469,5.317-.742,7.755.556.678,43.174,57.3,43.488,57.737C397.835,502.852,383.649,478.349,366.373,459.928Zm99.335,79.236c-10.914,15.889-13.245,21.374-25.191,37.12,2.731,0,7.137.423,9.868.423C459.728,560.681,459.746,552.523,465.708,539.164Zm11.184,115.324c9.672-22.695,17.682-42.613,27.384-65.341l-3.18-5.136C493.016,607.356,484.44,631.079,476.892,654.488ZM149.61,576.708c2.731,0,7.137-.423,9.871-.423-11.947-15.746-14.277-16.731-25.189-32.62C140.249,557.024,140.267,560.681,149.61,576.708Zm-50.712,7.3-3.18,5.136c9.705,22.728,12.151,42.646,21.825,65.341C109.993,631.079,106.979,607.356,98.9,584.011Z"/><path id="SvgjsPath5637" class="cls-13" d="M212.315,498.693c3.012-4.2,13.354-18.544,21.933-32.031C236.767,480.578,232.141,488.832,212.315,498.693Zm153.26-32.954a308.452,308.452,0,0,0,22.093,32.648C366.238,488.628,364.8,478.65,365.575,465.739Z"/><path id="SvgjsPath5638" class="cls-14" d="M367.049,452.987c.02-.156.043-.3.059-.444,46.137,25.5,72.869,63.8,103.9,92.353-1.142,1.839-3.131,3.042-4.3,4.858C434.21,525.024,418.765,487.634,367.049,452.987Zm-139.184,1.691c-38.337,20.943-92.417,85.06-97.711,89.936,1.142,1.846,1.762,1.471,2.933,3.284C165.589,523.17,174.46,498.693,227.865,454.677Zm313.989,90.989c-2.55-2.037-62.847-25.6-108.6-38.171,85.93,41.562,116.247,47.29,131.251,62.019C563.523,566.967,561.532,545.118,541.854,545.666Zm-375.9-38.63c-34.486,9.981-78.639,25.75-109.586,39.5-13.678.27-23.48,20.221-25.579,41.014C49.819,544.68,40.417,573.5,165.956,507.037Z"/><path id="SvgjsPath5639" d="M571.768,602.679c-.867-22.019-7.79-58.913-29.812-57.273-1.821-1.556-53.1-24.906-107.827-39.808-18.75-19.01-42.113-44.875-67.246-53.44-1.813,16.391-3.766,27.086.551,32.421,5.715,6.219,12.571,12.441,19.3,16.631a290.033,290.033,0,0,0,20.754,24.934c-13.846,52.793-22.478,79.851-27.981,136.9H220.373c-5.5-57.051-14.135-84.109-27.981-136.9a291.121,291.121,0,0,0,20.754-24.934c6.729-4.192,13.584-10.412,19.3-16.631,4.315-5.335,2.364-16.029.551-32.421-25.133,8.565-48.5,34.43-67.246,53.44-54.731,14.9-106.006,38.253-107.827,39.808C35.9,543.767,28.975,580.66,28.11,602.679c-1.048,26.742,3.659,63.592,4.042,66.142H567.726C568.108,666.269,572.816,629.421,571.768,602.679ZM231.047,483.166c-5.758,5.694-9.328,8.112-16.506,13.469C226.855,480.644,225.61,482.781,234.2,468,234.581,474.356,232.192,482.036,231.047,483.166ZM36.849,663.793c-2.759-32.752-7.436-62.245,1.1-94.33,3.267-12.309,6.334-20.642,19.01-21.7,2.721,14.122,20.737,73.246,36.46,113.559-15.876-61.69-13.543-47.965-20.958-72.553-2.458-8.249-4.728-16.539-7.6-24.664-2-5.646-4.207-11.187-5.768-16.965l103.1-37.906c-.711.722-32.882,34.257-33.657,35.2,4.71,7.7,19.931,18.416,27.655,29.983-31.712,2.994-47.2,8.091-58.65,9.792.844,2.343,23.106,64.65,25.439,70.523-3.771-20.188-12.281-51.757-22.024-69.388,3.6-.456,46.1-6.355,59.652-8.866-3.764-7.278-20.51-21.514-29.475-32.178,52.647-46.313,64.826-69.875,100.962-90.408.383,3.848,1.13,7.678,1.4,11.523-40.277,60.009-45,60.1-45,60.1,11.692,45.415,26.857,91.351,26.857,137.886ZM368.829,483.166c-1.142-1.13-3.534-8.81-3.149-15.165,8.586,14.782,7.341,12.643,19.655,28.634C378.156,491.278,374.584,488.863,368.829,483.166Zm194.2,180.627-178.5-.393c0-46.535,15.165-92.473,26.857-137.886,0,0-4.728-.087-45-60.1.27-3.845,1.017-7.675,1.4-11.523,36.136,20.533,48.312,44.095,100.962,90.408-8.966,10.667-25.712,24.9-29.475,32.178,13.553,2.509,56.054,8.41,59.652,8.866-9.741,17.631-18.25,49.2-22.024,69.388,2.333-5.875,24.595-68.179,25.439-70.523-11.455-1.7-26.938-6.8-58.65-9.792,7.721-11.567,22.945-22.277,27.655-29.983-.778-.943-32.946-34.479-33.657-35.2l103.1,37.906c-1.558,5.781-3.771,11.319-5.768,16.965-2.869,8.124-5.138,16.414-7.6,24.664-7.415,24.59-5.082,10.863-20.958,72.553,15.723-40.315,33.736-99.437,36.46-113.559,12.676,1.056,15.744,9.389,19.01,21.7C570.462,601.547,565.785,631.043,563.026,663.793Z"/></g><g id="svga-group-head"><g id="svga-group-ears-left"><path id="SvgjsPath5326" class="cls-15" d="M165.344,274.859c-2.466-6.342-20.609-15.305-28.585-13.89-9.022,1.6-12.337,11.108-11.141,18.153,2.813,16.542,10.19,23.508,13.5,36.429,2.795,10.9,8.754,17.167,11.7,21.8,3.621,5.681,6.961,18.72,7.709,20.622,1.181,3.009,5.363,10.31,12.755,9.935,8.5-.439,19.24-17.054,19.416-20.744C191.675,327.144,171.757,291.368,165.344,274.859Z"/><path id="SvgjsPath5327" class="cls-16" d="M167.218,342.319a6.627,6.627,0,0,0-.24-5.156c-1.714-3.119-6.179-8.843-7.194-12.268-.829-2.8-.408-8.785-.543-11.712-.24-5.176-3.8-8.721-4.914-11.692-7.431-19.872-17.32-32.189-22.95-34.746-4.164,10.172-.864,17.613,4.947,33.265-3.506-21.272-.138-27.922-.138-27.922s10.246,8.836,15.3,28.489c.915,3.547-2.833,10.95-2.117,14.548.9,4.519,10.669,13.263,13.405,16.919C164.913,334.891,167.218,342.319,167.218,342.319Z"/></g><g id="svga-group-ears-right"><path id="SvgjsPath5328" class="cls-15" d="M433.864,274.859c2.466-6.342,20.609-15.305,28.588-13.89,9.024,1.6,12.337,11.108,11.141,18.153-2.815,16.542-10.19,23.508-13.507,36.429-2.795,10.9-8.757,17.167-11.7,21.8-3.621,5.681-6.961,18.72-7.709,20.622-1.181,3.009-5.365,10.31-12.755,9.935-8.5-.439-19.24-17.054-19.413-20.744C407.53,327.144,427.453,291.368,433.864,274.859Z"/><path id="SvgjsPath5329" class="cls-16" d="M431.989,342.319a6.615,6.615,0,0,1,.24-5.156c1.714-3.119,6.181-8.843,7.191-12.268.826-2.8.408-8.785.548-11.712.24-5.176,3.8-8.721,4.911-11.692,7.431-19.872,17.322-32.189,22.95-34.746,4.164,10.172.862,17.613-4.944,33.265,3.506-21.272.135-27.922.135-27.922s-10.246,8.836-15.305,28.489c-.91,3.547,2.833,10.95,2.117,14.548-.9,4.519-10.669,13.263-13.4,16.919C434.295,334.891,431.989,342.319,431.989,342.319Z"/></g><g id="svga-group-faceshape-wrap"><g id="svga-group-faceshape-single"><path id="SvgjsPath5131" class="cls-2" d="M449.839,265.937h-.013c-.025.117-31.1,102.688-40.491,133.666a43.772,43.772,0,0,1-9.068,16.284c-16.256,18.345-60.608,63.9-100.276,63.9-40.415,0-85.657-48.565-101.255-66.846a41.557,41.557,0,0,1-8.089-14.7c-9.2-29.455-41.121-131.7-41.149-131.82h0a159.177,159.177,0,0,1-5.105-39.867c-.133-86.761,69.243-157.182,154.969-157.317S454.687,139.3,454.817,226.055A159.088,159.088,0,0,1,449.839,265.937Z"/><path id="SvgjsPath5132" class="cls-17" d="M381.966,93.185c36.49,28.394,60.361,75.115,60.432,128.03a172.02,172.02,0,0,1-4.58,39.885h-.01c-.023.117-28.619,102.688-37.25,133.663a44.933,44.933,0,0,1-8.341,16.282c-14.956,18.347-55.758,63.9-92.254,63.9-37.184,0-78.805-48.57-93.154-66.848a42.756,42.756,0,0,1-7.441-14.7c-8.461-29.458-37.832-131.7-37.857-131.822h0a172.379,172.379,0,0,1-4.7-39.867C156.738,168.6,180.649,121.65,217.28,93.159a157.355,157.355,0,0,0-72.889,133.39,159.162,159.162,0,0,0,5.105,39.867h0c.025.117,31.951,102.365,41.149,131.82a41.619,41.619,0,0,0,8.089,14.7c15.6,18.281,60.838,66.846,101.255,66.846,39.67,0,84.02-45.548,100.276-63.9a43.752,43.752,0,0,0,9.068-16.284c9.389-30.977,40.466-133.549,40.491-133.666h.013a159.107,159.107,0,0,0,4.978-39.885A157.326,157.326,0,0,0,381.966,93.185Z"/><path id="SvgjsPath5133" class="cls-5" d="M449.839,265.937h-.013c-.025.117-31.1,102.688-40.491,133.666a43.772,43.772,0,0,1-9.068,16.284c-16.256,18.345-60.608,63.9-100.276,63.9-40.415,0-85.657-48.565-101.255-66.846a41.557,41.557,0,0,1-8.089-14.7c-9.2-29.455-41.121-131.7-41.149-131.82h0a159.177,159.177,0,0,1-5.105-39.867c-.133-86.761,69.243-157.182,154.969-157.317S454.687,139.3,454.817,226.055A159.088,159.088,0,0,1,449.839,265.937Z"/></g></g><g id="svga-group-mouth-single"><path id="SvgjsPath5648" class="cls-18" d="M300.409,432.342c-7.583.386-9.757-7.371-9.757-7.371s10.525,1.513,18.718-.945C309.374,424.028,307.082,432.007,300.409,432.342Z"/><path id="SvgjsPath5652" class="cls-16" d="M301.181,426.486a75.408,75.408,0,0,1-10.381-.238.666.666,0,0,1-.6-.728.691.691,0,0,1,.734-.6c.11.008,10.967,1.084,18.041-.9a.688.688,0,0,1,.827.466.668.668,0,0,1-.463.825A38.3,38.3,0,0,1,301.181,426.486Z"/><path id="SvgjsPath5653" class="cls-8" d="M253.018,398.477s33.554,3.979,44.762,4.014c12.191.032,51.628-4.014,51.628-4.014-11.4,9.462-23.945,18.56-52.358,18.74C271.634,417.38,265.123,408.151,253.018,398.477Z"/><path id="SvgjsPath5654" class="cls-19" d="M253.018,398.477s33.554,3.979,44.762,4.014c12.191.032,51.628-4.014,51.628-4.014-11.4,9.462-23.945,18.56-52.358,18.74C271.634,417.38,265.123,408.151,253.018,398.477Z"/></g><g id="svga-group-eyes-left"><g id="svga-group-eyesback-left"><path id="SvgjsPath5566" class="cls-20" d="M203.421,273.722c2.97-2.856,22.023-6.478,33.021-5.027,17.4,2.294,31.492,17.648,31.492,17.648s-11.715,7.469-32.97,8.624C220.963,295.731,206.881,286.687,203.421,273.722Z"/></g><g id="svga-group-eyesiriswrapper-left"><g id="svga-group-eyesiriscontrol-left"><g id="svga-group-eyesiris-left"><path id="SvgjsPath5387" class="cls-21" d="M251.43,281.094A14.535,14.535,0,1,1,236.9,266.556,14.535,14.535,0,0,1,251.43,281.094Z"/><path id="SvgjsPath5388" class="cls-22" d="M228.446,287.889c2.12-.174.242-.741.242-.741-1.049-.564-3.023-1.434-3.023-2.231,0-2.5,3.425-3.147-.082-4.13-3.643-3.343,2.827-3.275,2.779-3.387-2.362-5.756.724-2.594,2.023-4.3,4.816-6.3,1.342.647,3.956,0,.947-.233-1.89-3.709.082-3.222a2.177,2.177,0,0,1,1.6,1.405,7.329,7.329,0,0,0,2.442-1.652c1.814.547,3.089,3.125,2.527,2.643a22.419,22.419,0,0,0,3.115-.826s.17-.579.337-.08c2.221,6.446,7.955,5.984,1.354,7.849,0,0-.426,0,.925,1.071,6.565,5.242-5.092,3.622,1.093,6.032.252-.252-3.706,2.338-3.706,3.055,0,1.214-2.524,4.4-4.714,3.149-1.221-.7-1.407,1.453-2.125.46-1.407-1.945-4.22-.085-3.181-1.873,1.536-1.262-1.584.494-2.19.494-2.006,0,2.624-6.742,9.433-1.732,1.991,1.458-2.093-3.471,1.514-3.471.361.119.252-1.262.252-1.652-1.875-.366,3.367-.007,3.367-3.057.332.065,1.233-.848-3.961,0a16.005,16.005,0,0,1-.082-2.146c.266-1.061,2.941-.722,2.19-1.817l-1.936-3.886c-6.233-1-2.67-1.628-6.567-.826-.184.916-8.346,4.806-8.086,6.611.242,1.7,5.124,2.272.5,5.286C235.454,298.175,223.419,284.616,228.446,287.889Z"/><path id="SvgjsPath5389" class="cls-23" d="M236.9,268.373l.414,10.642,4.45-9.673-3.689,9.988,7.817-7.231-7.231,7.815,9.99-3.689-9.671,4.455,10.64.412-10.64.412,9.671,4.455-9.99-3.689,7.231,7.815-7.817-7.231,3.689,9.988-4.45-9.673-.414,10.642-.414-10.642-4.453,9.673,3.687-9.988-7.815,7.231,7.231-7.815-9.99,3.689,9.671-4.455-10.635-.412,10.635-.412-9.671-4.455,9.99,3.689L227.9,272.1l7.815,7.231-3.687-9.988,4.453,9.673Z"/><path id="SvgjsPath5390" class="cls-24" d="M238.824,271.566l-1.306,8.031,4.8-6.567-4.278,6.921,6.953-4.235-6.6,4.758,8.04-1.248-7.917,1.868,7.912,1.923-8.035-1.3,6.57,4.8-6.924-4.276,4.235,6.95-4.758-6.6,1.25,8.04-1.868-7.922-1.926,7.907,1.306-8.031-4.806,6.567,4.283-6.921-6.95,4.235,6.6-4.758-8.04,1.25,7.919-1.868-7.907-1.921,8.031,1.3-6.57-4.8,6.924,4.276-4.232-6.95,4.758,6.6-1.25-8.038,1.87,7.922Z"/><path id="SvgjsPath5391" class="cls-25" d="M242.346,281.094a5.451,5.451,0,1,1-5.451-5.451A5.451,5.451,0,0,1,242.346,281.094Z"/><path id="SvgjsPath5392" class="cls-26" d="M231.171,291.537c-.8.8-2.386.521-3.537-.632s-1.437-2.735-.632-3.539,2.386-.518,3.537.632S231.975,290.733,231.171,291.537Z"/><path id="SvgjsPath5393" class="cls-27" d="M248.538,278.23c-1.2,1.2-4.111.242-6.5-2.146s-3.348-5.3-2.146-6.5,4.111-.242,6.5,2.146S249.739,277.029,248.538,278.23Z"/></g></g></g><g id="svga-group-eyesfront-left"><path id="SvgjsPath5591" class="cls-2" d="M190.582,283.516c0,33.45,30.688,50.87,43.6,50.87,24.08,0,43.6-17.42,43.6-50.87s-19.525-60.565-43.6-60.565S190.582,250.064,190.582,283.516Zm12.839-9.794c2.97-2.856,22.023-6.478,33.021-5.027,17.4,2.294,31.492,17.648,31.492,17.648s-11.715,7.469-32.97,8.624C220.963,295.731,206.881,286.687,203.421,273.722Z"/><path id="SvgjsPath5592" class="cls-28" d="M236.244,304.33c22.8,5.385,44.7-3.9,48.92-20.749s-10.848-34.872-33.653-40.267-44.7,3.9-48.922,20.749S213.431,298.935,236.244,304.33Zm-32.822-30.608c2.97-2.856,22.023-6.478,33.021-5.027,17.4,2.294,31.492,17.648,31.492,17.648s-11.715,7.469-32.97,8.624C220.963,295.731,206.881,286.687,203.421,273.722Z"/><path id="SvgjsPath5597" class="cls-29" d="M203.421,273.722c2.97-2.856,22.023-6.478,33.021-5.027,17.4,2.294,31.492,17.648,31.492,17.648s-11.715,7.469-32.97,8.624C220.963,295.731,206.881,286.687,203.421,273.722Z"/><path id="SvgjsPath5601" class="cls-16" d="M266.891,277.358c-15.751-10.3-9.821-7.486-39.317-16.238,8.1,1.211,23.188,5,28.36,8.043A94.211,94.211,0,0,1,266.891,277.358Z"/><path id="SvgjsPath5602" d="M199.6,273.55c4.717,11.933,23.581,33.82,70.943,13.4-7.5-8.14-26.66-22.076-43.99-21.955C212.031,265.1,203.918,269.623,199.6,273.55Zm3.825.455c2.97-2.754,22.023-6.25,33.021-4.847,17.4,2.212,31.492,17.02,31.492,17.02s-11.715,7.2-32.97,8.319C220.963,295.231,206.881,286.51,203.421,274.006Z"/></g></g><g id="svga-group-eyes-right"><g id="svga-group-eyesback-right"><path id="SvgjsPath5574" class="cls-30" d="M395.437,273.722c-2.97-2.856-22.023-6.478-33.021-5.027-17.4,2.294-31.492,17.648-31.492,17.648s11.715,7.469,32.97,8.624C377.9,295.731,391.975,286.687,395.437,273.722Z"/></g><g id="svga-group-eyesiriswrapper-right"><g id="svga-group-eyesiriscontrol-right"><g id="svga-group-eyesiris-right"><path id="SvgjsPath5394" class="cls-21" d="M377.464,281.091a14.535,14.535,0,1,1-14.535-14.535A14.528,14.528,0,0,1,377.464,281.091Z"/><path id="SvgjsPath5395" class="cls-22" d="M354.47,287.891c2.129-.184.254-.739.254-.739-1.051-.567-3.038-1.434-3.038-2.243,0-2.5,3.435-3.137-.056-4.13-3.663-3.336,2.81-3.266,2.754-3.379-2.357-5.763.739-2.6,2.045-4.3,4.8-6.289,1.335.654,3.946,0,.938-.228-1.9-3.7.085-3.222a2.151,2.151,0,0,1,1.589,1.405,7.167,7.167,0,0,0,2.442-1.647c1.817.54,3.094,3.123,2.527,2.641a23.228,23.228,0,0,0,3.123-.824s.17-.581.342-.085c2.214,6.444,7.948,5.991,1.364,7.849,0,0-.426,0,.908,1.063,6.558,5.252-5.082,3.619,1.107,6.032.254-.242-3.719,2.343-3.719,3.067,0,1.206-2.527,4.4-4.712,3.137-1.221-.7-1.42,1.463-2.129.468-1.391-1.945-4.23-.085-3.181-1.873,1.533-1.262-1.589.5-2.185.5-2.016,0,2.611-6.742,9.426-1.732,1.986,1.449-2.1-3.479,1.533-3.479.342.114.254-1.262.254-1.647-1.9-.368,3.35-.015,3.35-3.067.342.07,1.25-.838-3.946,0a15.532,15.532,0,0,1-.085-2.144c.254-1.063,2.924-.724,2.185-1.817l-1.931-3.888c-6.245-.993-2.67-1.618-6.587-.824-.17.923-8.346,4.811-8.091,6.613.254,1.7,5.138,2.272.511,5.281C361.481,298.182,349.446,284.611,354.47,287.891Z"/><path id="SvgjsPath5396" class="cls-23" d="M362.929,268.373l.426,10.647,4.428-9.68-3.689,9.993,7.834-7.238-7.238,7.822,9.993-3.689L365,280.684l10.647.412L365,281.508l9.68,4.457-9.993-3.689,7.238,7.822-7.834-7.238,3.689,9.993-4.428-9.68-.426,10.637-.426-10.647-4.457,9.68,3.689-9.993-7.808,7.238,7.238-7.822-9.993,3.689,9.68-4.457-10.647-.412,10.647-.412-9.68-4.457,9.993,3.689-7.238-7.822,7.808,7.238-3.689-9.993,4.457,9.68Z"/><path id="SvgjsPath5397" class="cls-24" d="M364.86,271.566l-1.306,8.033,4.8-6.572-4.288,6.926,6.955-4.244-6.587,4.77,8.033-1.25-7.922,1.86,7.922,1.931-8.033-1.306,6.558,4.8-6.926-4.273,4.23,6.955-4.741-6.6,1.25,8.033-1.873-7.914L361,290.617l1.306-8.033-4.8,6.572,4.288-6.926-6.955,4.244,6.587-4.77-8.033,1.25,7.922-1.86-7.922-1.931,8.033,1.306-6.558-4.8,6.926,4.273-4.23-6.955,4.741,6.6-1.25-8.033,1.873,7.922Z"/><path id="SvgjsPath5398" class="cls-25" d="M368.38,281.091a5.451,5.451,0,1,1-5.451-5.451A5.453,5.453,0,0,1,368.38,281.091Z"/><path id="SvgjsPath5399" class="cls-26" d="M357.2,291.54c-.795.795-2.384.526-3.52-.64-1.163-1.151-1.449-2.725-.625-3.534.795-.795,2.384-.511,3.52.64C357.733,289.153,358.019,290.73,357.2,291.54Z"/><path id="SvgjsPath5400" class="cls-27" d="M374.569,278.223c-1.192,1.206-4.116.254-6.5-2.144s-3.35-5.3-2.129-6.487c1.192-1.206,4.089-.254,6.473,2.144C374.824,274.122,375.761,277.031,374.569,278.223Z"/></g></g></g><g id="svga-group-eyesfront-right"><path id="SvgjsPath5612" class="cls-2" d="M364.671,222.951c-24.08,0-43.6,27.115-43.6,60.565s19.525,50.87,43.6,50.87c17.444,0,43.6-17.42,43.6-50.87S388.751,222.951,364.671,222.951Zm-.778,72.016c-21.255-1.153-32.97-8.624-32.97-8.624s14.092-15.354,31.492-17.648c11-1.453,30.051,2.171,33.021,5.027C391.975,286.687,377.9,295.731,363.893,294.967Z"/><path id="SvgjsPath5613" class="cls-31" d="M396.268,264.066c-4.22-16.851-26.117-26.139-48.922-20.749s-37.864,23.416-33.653,40.267,26.119,26.134,48.92,20.749S400.48,280.917,396.268,264.066Zm-32.374,30.9c-21.255-1.153-32.97-8.624-32.97-8.624s14.092-15.354,31.492-17.648c11-1.453,30.051,2.171,33.021,5.027C391.975,286.687,377.9,295.731,363.893,294.967Z"/><path id="SvgjsPath5618" class="cls-32" d="M395.437,273.722c-2.97-2.856-22.023-6.478-33.021-5.027-17.4,2.294-31.492,17.648-31.492,17.648s11.715,7.469,32.97,8.624C377.9,295.731,391.975,286.687,395.437,273.722Z"/><path id="SvgjsPath5622" class="cls-16" d="M331.967,277.358c15.751-10.3,9.821-7.486,39.317-16.238-8.1,1.211-23.188,5-28.36,8.043A94.005,94.005,0,0,0,331.967,277.358Z"/><path id="SvgjsPath5623" d="M372.309,265c-17.331-.121-36.49,13.816-43.99,21.955,47.362,20.417,66.226-1.47,70.943-13.4C394.94,269.623,386.825,265.1,372.309,265Zm-8.416,29.5c-21.255-1.112-32.97-8.319-32.97-8.319s14.092-14.809,31.492-17.02c11-1.4,30.051,2.093,33.021,4.847C391.975,286.51,377.9,295.231,363.893,294.5Z"/></g></g><g id="svga-group-facehighlight-single"><path id="SvgjsPath2885" class="cls-33" d="M404.488,357.655A104.551,104.551,0,1,1,299.775,253.169,104.494,104.494,0,0,1,404.488,357.655Z"/><path id="SvgjsPath2889" class="cls-34" d="M395.563,204.719a95.625,95.625,0,1,1-95.622-95.625A95.623,95.623,0,0,1,395.563,204.719Z"/></g><g id="svga-group-eyebrows-left"><path id="SvgjsPath5564" class="cls-1" d="M182.638,253.653c25.383-25.434,42.741-15.083,78-8.323,2.155.413,16.116,3.924,13.54,8.846-1.232,2.356-5.192,2.076-7.4,2.035C231.873,255.558,214.9,230.724,182.638,253.653Z"/></g><g id="svga-group-eyebrows-right"><path id="SvgjsPath5565" class="cls-1" d="M417.238,253.653c-25.38-25.434-42.741-15.083-78-8.323-2.157.413-16.116,3.924-13.543,8.846,1.232,2.356,5.192,2.076,7.4,2.035C368,255.558,384.975,230.724,417.238,253.653Z"/></g><g id="svga-group-nose-single"><path id="SvgjsPath5009" class="cls-4" d="M277.281,361.544c-2.239,5.263,15.132,10.945,21.723,11.294,7.14.375,27.147-7.395,23.756-12.73-3.567-5.6-16.94-.729-22.71-.729C294.307,359.376,280.28,354.521,277.281,361.544Z"/><path id="SvgjsPath5010" class="cls-16" d="M304.673,365.519c-.587-1.935,4.784-4.039,6.775-4.32,2.808-.408,8.568,2.045,8.053,4.06-.469,1.78-5.477-1.359-7.293-1.094C310.337,364.438,305.229,367.332,304.673,365.519Zm-17.552-.63c2.468,0,6.13,1.589,6.8.189.8-1.67-5.454-3.726-7.293-3.5-1.52.178-6.969,3.353-6.219,4.689C281.111,367.5,283.868,364.889,287.121,364.889Z"/><path id="SvgjsPath5011" class="cls-35" d="M300.165,352.619c1.548,0,4.442-1.887,4.57-5.687.513-15.32-2.438-60.774-4.57-60.613-1.989.15-5.781,44.974-4.967,60.613C295.4,350.762,298.418,352.619,300.165,352.619Z"/></g><g id="svga-group-hair-front"><path id="SvgjsPath5626" class="cls-1" d="M435.044,318.462c-11.636-31.709,1.828-80.34-20.923-116.318C403.758,184.9,394.749,173.05,396.4,152.99l-.938-.316c-2.2,3.448-5.085,7.191-7,9.588,1.089-2.782,2.864-7.043,4.47-10.259l-.847-.556c-6.592,7.836-12.253,11.855-20.04,14.025,8.415-5.916,17.72-16.21,21.792-21.917l-.691-.724c-28.863,18.572-61.618,18.824-90.515,19.051-26.079.194-42.276-.4-61.08-11.325-13.569,4.5-24.253,3.924-36-4.169-36.756,71.265-20.425,35.59-42.4,167.7-12.76-17.008-16.468-27.826-19.487-44.031-.8-5.169-1.578-13.143-1.094-18.4l-.161-.166c-11.353-24.913-16.71-39.1-14.012-88.516,2-20.5,6.459-35.894,19.314-52.015a80.174,80.174,0,0,1-.706-26.035c-6.732-12.309-11.365-24.977-13.171-29.5,9.4,7.2,10.182,7.614,18.028,10.09a66.912,66.912,0,0,1,6.087-12.406,82.36,82.36,0,0,0,3.068,15.109c.581.14,3.348.89,4.233,1.127-.507-3.376-.972-4.942-.9-7.969,1.456,3.32,2.685,4.09,6.91,9.246,4.677.982,3.555.836,4.957.836-6.806-10.667-11.4-20.107-12.564-34.463,9.315,5.307,22.348,8.338,35.958,8.338,31.974,0,64.691-24,110.081-24,39.334,0,73.366,21.823,88.442,46.673-.015-6.411-.288-11.715,2.025-18.3,0,0,.268,9.448.268,16.81l1.01.094a48.548,48.548,0,0,1,10.424-22.371c-4.891,13.153-3.029,6.13-8.5,22.19l.887.477c3.649-4.689,6.638-8,15.348-12.4-6.293,6.306-11.105,9.919-14.081,14.379l.768.66c3.713-3.366,7.576-4.641,11.506-1.563-6.327-2.3-10.062,1.731-14.4,6.821,16.878,2.782,26.036,12.52,37.9,25.538,27.316,31.5,34.509,62.248,19.694,105.84,6.209,13.421,5.253,43.669-8.606,68.049C452.374,288.532,442.587,306.183,435.044,318.462Z"/><path id="SvgjsPath5627" class="cls-36" d="M203.8,144.468q1.373,1.278,2.739,2.56c-.329-.217-.658-.418-.989-.645-36.756,71.265-20.425,35.59-42.4,167.7-12.76-17.008-16.468-27.826-19.487-44.031-.8-5.169-1.578-13.143-1.094-18.4l-.161-.166c-11.353-24.913-16.71-39.1-14.012-88.516,2-20.5,6.459-35.894,19.314-52.015a80.18,80.18,0,0,1-.747-25.612c1.522,2.229,3.119,4.4,4.751,6.541,1.1,6.691,2.03,13.217.324,18.487-24.324,75.169-10.2,109.65,5.1,163.2-6.283-40.624-18.212-92.272,14.328-122.4-13.9,33.395-10.062,48.537-6.678,71.4C167.126,192.181,178.035,163.911,203.8,144.468Zm237.489-44.143c-.959-1.051-1.892-2.071-2.82-3.078-.974.65-1.974,1.247-2.955,1.879,38.138,78.186,1.515,70.678,10.243,105.593,10.2,25.5-3.019,40.8-3.019,66.3,0-38.25-1.737-64.869-22.848-94.8-7.13-10.106-9.132-44.429-13.936-61.389-59.165,36.335-146.811,43.936-238.83-29.5,43.35,15.3,131.7,3.442,162.035-16.106-34.573,6.276-106.748,6.65-139.2-6.709,77.775-6.043,76.834-31.008,143.134-35.7-31.875-11.9-101.5,18.5-133.472,18.5-13.607,0-26.64-3.029-35.958-8.338,1.165,14.356,5.758,23.8,12.564,34.463-1.405,0-.281.145-4.957-.836-4.228-5.156-5.457-5.929-6.91-9.246-.074,3.027.393,4.593.9,7.969-.885-.237-3.654-.987-4.233-1.127A82.36,82.36,0,0,1,157.954,53.1,67.074,67.074,0,0,0,151.867,65.5c-7.849-2.476-8.624-2.892-18.028-10.09,1.805,4.526,6.439,17.2,13.171,29.5-.018.14-.023.283-.041.423,16.078,23.549,38.681,42,59.576,61.69,11.358,7.456,21.823,7.895,35.009,3.524,18.8,10.929,35,11.518,61.08,11.325,28.9-.224,61.651-.479,90.515-19.051l.691.724c-4.072,5.707-13.377,16-21.792,21.917,7.79-2.173,13.449-6.191,20.04-14.025l.847.556c-1.607,3.218-3.381,7.477-4.47,10.259,1.915-2.4,4.8-6.14,7-9.588l.938.316c-1.647,20.063,7.359,31.911,17.722,49.154,22.751,35.978,9.29,84.611,20.923,116.318,7.543-12.278,17.33-29.927,17.33-44.248,13.859-24.381,14.815-54.629,8.606-68.049C475.8,162.573,468.6,131.822,441.289,100.325Zm1.869,65.4c-.842-24.286-16.914-55.111-16.914-55.111-7.512-13.27-14.226-19.6-25.49-22.172,31.686,1.578,44.13,48.906,42.761,73.631C443.385,164.373,443.158,165.729,443.158,165.729ZM371.1,63.179c8.372,6.791,10.371,8.729,18.6,20.168-42.465-76.217-125.8-18.538-152.151-20.4C264.342,68.483,324.91,29.307,371.1,63.179Zm21.578,33.13c-50.9,42.2-128.622,24.322-192.191,4.4C263.8,129.7,344.4,145.393,392.679,96.308ZM192.5,142.208c-16.674,8.734-24.521,30.727-25.245,45.262C170.372,174.927,179.716,151.914,192.5,142.208ZM171.466,130.1c-23.865,14.532-28.494,47.866-26.137,75.862C147.838,180.1,152.5,146.352,171.466,130.1ZM343.451,98.489a265.46,265.46,0,0,1-27.214,3.047c-6.786.4-33.244.836-57.1-.122,24.62,5.276,39.408,6.258,57.365,5.215,20.67-.747,39.168-4.84,54.5-17.33C360.2,95.242,355.6,96.089,343.451,98.489Zm85.54,67.69s-.653-1.125-1.5-2.81c-2.323-3.894-4.96-14.487-15.142-47.777,7.563,61.7,19.933,50.444,25.477,82.322C437.829,186.448,437.028,180.57,428.991,166.178Z"/><path id="SvgjsPath5628" class="cls-37" d="M447.463,240.755c.928-8.277.553-4.483.655-9.205.78-15.922-8.736-29.271-2.943-48.417,4.728-13.905,7.459-16.085,5.388-40.293-.3-3.494-1.209-12.174-2.81-15.295,2.183,3.8,3.626,10.825,4.4,15.132,4.3,24.335.683,28.03-3.879,41.481C442.179,204.482,453.876,213.448,447.463,240.755ZM405.954,114.837c2.848,77.443,18.554,59.456,32.428,106.468C428.963,165.852,420.249,211.826,405.954,114.837ZM168.279,154.321c-23.434,29.486-21.068,50.742-15.3,94.35C152.459,204.53,147.078,187.777,168.279,154.321Zm-16.822-42.129c-13.449,41.613-16.394,60.394-9.937,105.277C140.323,172.472,140.609,162.539,151.456,112.192Zm51.459,32.964c-24.556,17.643-37.375,49.919-38.128,77.415C168.567,196.294,182.668,163.149,202.915,145.156Zm170.6-15.42c-30.73,11.314-80.751,14.344-117.269,3.371-28.461-8.3-72.9-36.192-96.8-53.731,21.67,17.251,59.851,42.858,86.511,52.979,27.7,10.35,71.112,14.2,104.756,5.725,23.582-5.926,35.8-11.526,55.241-23.241C397.3,119.582,384.557,126.289,373.518,129.736ZM307.111,37.457c31.026-5.827,67.6,14.173,86.845,37.816-20.137-28.861-53.134-43.22-72.833-43.562-32.331-.561-65.777,27.14-131.169,29.534C251.442,63.954,281,41.685,307.111,37.457Zm24.368,32.714C287.392,85.835,253.347,89.584,207.021,92.05,254.867,95,289.072,90.354,331.479,70.171ZM377.8,79.1C350.616,91.922,338.713,94.023,282.6,97.44,317.778,98.861,350.644,97.032,377.8,79.1ZM287.82,118.08c27.142,3.154,74.687-.268,98.483-24.959-28.738,24.21-81.9,23.343-123.369,21.7C278.806,117.292,275.942,116.879,287.82,118.08ZM404.154,94.4c19.454,7.163,24.2,41.292,31.875,68.85C432.594,138.819,426.726,99.695,404.154,94.4Z"/><path id="SvgjsPath5629" d="M441.664,99.98c-11.087-12.161-21.043-22.873-37.306-25.551,5.34-6.281,9.093-8.616,15.937-4.717-4.054-4.771-8.713-5.676-14.357-.561,3.241-4.858,8.843-8.823,16.065-16.4-10.789,5.062-14.033,8.517-18.156,13.821,5.827-17.093,3.315-7.976,9.486-24.862A49.817,49.817,0,0,0,400.943,66.5c0-15.053-.472-13.107-.179-19.686-3.537,7.877-3.134,14.815-3.134,19.354-5.694-9.389-14.061-17.34-23.08-23.842-63.888-46.637-127.6-3.713-162.129,1.479-14,2.364-34.971.862-49.342-7.752,1.015,14.7,5.567,24.46,12.214,34.884l-3.749-.79C166.4,63.939,165.9,64.137,164,59.1c-.487,4.5.258,6.987.637,9.537-1.27-.331-2.44-.683-3.213-.867a89.351,89.351,0,0,1-3.136-16.039,62.47,62.47,0,0,0-6.732,13.132c-7.647-2.417-8.2-2.8-18.946-11.041,1.275,2.55,5.888,16.476,13.872,31.186a81.071,81.071,0,0,0,.689,25.806c-12.814,16.1-17.263,31.482-19.278,52.122-2.655,48.6,2.211,62.758,14.1,88.791.025.026.025.076.051.1-.451,5.026.3,13.01,1.122,18.309,3.006,16.147,6.694,27.267,20.17,45.007.051.051.076.128.127.178,8.657-51.938,7.765-53.211,9.613-66.019,9.109-65.566,8.713-55.774,32.665-102.178,9.723,6.7,20.489,9.058,35.751,3.978,11.072,6.436,22.379,11.347,53.7,11.347,31.036-.388,66.749,1.051,98.226-19.2-4.768,6.686-15.6,18.243-24.123,23.409,8.871-1.877,15.236-5.449,23.179-14.892a129.734,129.734,0,0,0-5.533,13.158,135.676,135.676,0,0,0,8.95-11.985c-1.665,20.26,7.38,32.122,17.8,49.47,22.838,36.116,8.953,85.478,21.241,117.2,7.879-12.74,17.952-30.819,17.952-45.262,13.286-23.169,15.188-53.833,8.644-68.212C474.835,166.278,472.147,135.127,441.664,99.98ZM164.25,60.736c1.244,3.542,1.517,3.465,6.35,9.205-2.4-.5-3.991-.847-5.431-1.173A38.69,38.69,0,0,1,164.25,60.736Zm-6.4-6.783a64.256,64.256,0,0,0,2.525,13.54,61.839,61.839,0,0,1-7.14-2.04A75.112,75.112,0,0,1,157.849,53.953Zm4.386,255.561c-10.751-19.393-13.574-25.987-16.549-45.619-.291-2.259-1.2-8.787-1.25-11.908-15.478-35.394-21.3-102.6,3.085-139.587v-.026s1.017-1.591,2.856-3.876a94.736,94.736,0,0,1-1.122-18.564c1.887,3.366,4.029,6.426,5.941,9.358,0-.008,1.5,1.992,1.5,2.04,11.605,14.764,22.323,27.04,48.246,45.262C173.825,197.018,175.755,179.986,162.235,309.514ZM462.217,189.947a164.12,164.12,0,0,1-3.924,17.824c7.089,18.023-.655,52.063-7.806,67.269-3.126,18.087-6.49,21.729-15.325,39.754-6.316-28.05,6.587-77.823-17.238-114.954-15.45-25.612-22.075-28.968-18.436-60.613,0,0,.156-1.721.2-2.167-32.2,19.689-67.769,21.915-114.673,20.91-13.558,0-31.875-1.7-43.3-8.772-23.157,6.587-31.747-3.664-51.025-18.717-20.816-17.689-34.958-33.135-52.4-69.538,9.8,7.951,29.419,11.957,41.794,14.025-8.346-11.126-13.257-21.29-15.478-35.7,8.874,5.916,30.141,11.738,48.883,9.664C248,45.691,296.324,10.256,355.7,37.125c27.55,12.156,41.529,29.264,44.8,38.25.025,0,.051.025.1.025a2.727,2.727,0,0,0,.482.1,5.823,5.823,0,0,0,.918.229c17.789,5.929,18.98,7.035,36.21,27.132C447.9,114.745,471.216,138.462,462.217,189.947Z"/></g></g></g></g></svg>