<?xml version="1.0" standalone="no"?>
<!DOCTYPE svg PUBLIC "-//W3C//DTD SVG 20010904//EN"
 "http://www.w3.org/TR/2001/REC-SVG-20010904/DTD/svg10.dtd">
<svg version="1.0" xmlns="http://www.w3.org/2000/svg"
 width="2048.000000pt" height="2048.000000pt" viewBox="0 0 2048.000000 2048.000000"
 preserveAspectRatio="xMidYMid meet">
<metadata>
Created by potrace 1.11, written by Peter Selinger 2001-2013
</metadata>
<g transform="translate(0.000000,2048.000000) scale(0.100000,-0.100000)"
fill="#000000" stroke="none">
<path d="M11133 19260 c-44 -9 -91 -31 -137 -63 -41 -29 -9083 -12088 -9114
-12155 -51 -112 -24 -271 61 -361 41 -43 8956 -5988 9011 -6008 23 -9 73 -16
116 -16 130 -1 235 64 301 185 32 59 34 69 34 155 l0 93 -1424 2848 -1424
2848 0 70 c0 58 228 980 1498 6054 1394 5573 1496 5989 1491 6047 -14 163
-145 290 -316 306 -30 3 -74 2 -97 -3z"/>
<path d="M13460 8524 c-14 -2 -68 -11 -120 -20 -210 -35 -446 -132 -646 -265
-151 -100 -353 -302 -453 -453 -132 -199 -226 -427 -267 -651 -29 -154 -26
-501 5 -645 112 -525 433 -945 901 -1184 269 -136 544 -196 850 -182 786 33
1433 586 1597 1365 23 111 27 150 27 326 1 210 -7 277 -50 445 -34 131 -67
215 -136 350 -235 458 -658 780 -1173 890 -79 17 -142 23 -305 25 -113 2 -216
2 -230 -1z"/>
</g>
</svg>
