<?xml version="1.0" encoding="utf-8"?>
<!-- Generator: Adobe Illustrator 21.0.0, SVG Export Plug-In . SVG Version: 6.00 Build 0)  -->
<svg version="1.1" id="Layer_1" xmlns="http://www.w3.org/2000/svg" xmlns:xlink="http://www.w3.org/1999/xlink" x="0px" y="0px"
	 viewBox="0 0 1782.7 966.8" style="enable-background:new 0 0 1782.7 966.8;" xml:space="preserve">
<style type="text/css">
	.st0{opacity:0.89;}
	.st1{fill:none;stroke:#05FF00;stroke-width:3.447;}
	.st2{fill:none;stroke:#FFE500;stroke-width:2;}
	.st3{fill:none;stroke:#FF0F00;stroke-width:4;}
	.st4{fill:none;stroke:#0067FF;stroke-width:1.8163;}
	.st5{fill:none;stroke:#FF8A00;stroke-width:3.2258;}
	.st6{fill:none;stroke:#12E0C7;stroke-width:3;}
	.st7{fill:none;stroke:#FF8A00;stroke-width:3;}
	.st8{fill:none;stroke:#E12574;stroke-width:3;}
	.st9{fill:#FF006B;}
	.st10{fill:#00FFF0;}
	.st11{fill:#0067FF;}
	.st12{fill:#FFC107;}
</style>
<g class="st0">
	<circle class="st1" cx="200.8" cy="187.9" r="11.4"/>
	<circle class="st2" cx="1676.3" cy="618.4" r="10.5"/>
	<circle class="st3" cx="552.8" cy="679.9" r="11"/>
	<circle class="st4" cx="107.3" cy="807.4" r="7.4"/>
	<circle class="st5" cx="1051.3" cy="68.4" r="12.5"/>
	<path class="st6" d="M482.8,380.8l1.9-7.9c0.2-0.8,1-1.4,1.8-1.3l6.6,0.7c0.9,0.1,1.7-0.5,1.9-1.3l1.6-7c0.2-0.9,1.1-1.5,2.1-1.3
		l5.9,1.4c1,0.2,1.9-0.4,2.1-1.4l1.1-7.5"/>
	<path class="st7" d="M1539.3,910.9l-4.4-7.3c-0.5-0.8-0.3-1.7,0.4-2.3l5.5-4.5c0.7-0.6,0.9-1.6,0.4-2.3l-4-6.4
		c-0.5-0.8-0.3-1.9,0.5-2.4l5.5-3.5c0.9-0.6,1.1-1.7,0.5-2.6l-4.8-6.4"/>
	<path class="st8" d="M1574.6,181.5l8.5-3c0.8-0.3,1.8,0.1,2.2,0.9l3.5,6.7c0.4,0.8,1.4,1.2,2.2,0.9l7.5-2.8c0.9-0.3,2,0.1,2.3,1.1
		l2.5,6.5c0.4,1,1.5,1.5,2.5,1l7.7-3.6"/>
	<path class="st9" d="M190.5,555.1l-4.9,20.7l-15.4-14.6L190.5,555.1z"/>
	<path class="st10" d="M838.1,857.3l-4.1,17.3L821,862.4L838.1,857.3z"/>
	<path class="st11" d="M546.1,93.6l-15.9,9.2l0-18.4L546.1,93.6z"/>
	<path class="st12" d="M1435.3,431.7l-17,7.4l2.1-18.5L1435.3,431.7z"/>
</g>
</svg>
