<svg width="1595" height="865" viewBox="0 0 1595 865" fill="none" xmlns="http://www.w3.org/2000/svg">
<g opacity="0.89">
<circle cx="107" cy="137" r="16.5" stroke="#05FF00" stroke-width="5"/>
<circle cx="1582.5" cy="567.5" r="10.5" stroke="#FFE500" stroke-width="4"/>
<circle cx="459" cy="629" r="11" stroke="#FF0F00" stroke-width="4"/>
<circle cx="13.5" cy="756.5" r="11" stroke="#0067FF" stroke-width="5"/>
<circle cx="957.5" cy="17.5" r="15.5" stroke="#FF8A00" stroke-width="4"/>
<path d="M387 332L389.262 322.78C389.5 321.812 390.415 321.166 391.407 321.267L399.069 322.048C400.075 322.15 400.999 321.486 401.222 320.5L403.065 312.364C403.309 311.285 404.383 310.609 405.461 310.856L412.321 312.425C413.461 312.685 414.581 311.916 414.746 310.758L416 302" stroke="#12E0C7" stroke-width="4"/>
<path d="M1445.43 862.429L1440.47 854.182C1439.96 853.33 1440.15 852.231 1440.92 851.602L1447.1 846.549C1447.88 845.911 1448.06 844.792 1447.53 843.938L1443.02 836.741C1442.43 835.808 1442.71 834.577 1443.64 833.988L1449.83 830.078C1450.82 829.455 1451.07 828.125 1450.37 827.191L1445 820" stroke="#FF8A00" stroke-width="4"/>
<path d="M1478.77 130.185L1488.18 126.891C1489.11 126.562 1490.15 126.972 1490.61 127.853L1494.46 135.237C1494.93 136.131 1495.99 136.538 1496.93 136.188L1505.24 133.108C1506.27 132.725 1507.42 133.249 1507.8 134.28L1510.5 141.455C1510.91 142.547 1512.16 143.058 1513.22 142.565L1521.65 138.629" stroke="#E12574" stroke-width="4"/>
<path d="M99.7629 501.016L93.3074 527.996L73.1696 508.916L99.7629 501.016Z" fill="#FF006B"/>
<path d="M747.141 803.48L741.586 826.697L724.257 810.277L747.141 803.48Z" fill="#00FFF0"/>
<path d="M1345.27 381.617L1320.7 392.349L1323.69 365.699L1345.27 381.617Z" fill="#FFC107"/>
</g>
</svg>
