<?xml version="1.0" standalone="no"?>
<!DOCTYPE svg PUBLIC "-//W3C//DTD SVG 1.1//EN" "http://www.w3.org/Graphics/SVG/1.1/DTD/svg11.dtd" >
<svg xmlns="http://www.w3.org/2000/svg">
<metadata>Generated by IcoMoon</metadata>
<defs>
<font id="icomoon" horiz-adv-x="1024">
<font-face units-per-em="1024" ascent="960" descent="-64" />
<missing-glyph horiz-adv-x="1024" />
<glyph unicode="&#x20;" horiz-adv-x="512" d="" />
<glyph unicode="&#xe900;" glyph-name="list-view" d="M155.15 783.517h713.697c31.12 0 56.346-25.226 56.346-56.346s-25.226-56.346-56.346-56.346h-713.697c-31.12 0-56.346 25.226-56.346 56.346s25.226 56.346 56.346 56.346zM155.15 483.013h713.697c31.12 0 56.346-25.226 56.346-56.346s-25.226-56.346-56.346-56.346h-713.697c-31.12 0-56.346 25.226-56.346 56.346s25.226 56.346 56.346 56.346zM155.15 182.506h713.697c31.12 0 56.346-25.226 56.346-56.346s-25.226-56.346-56.346-56.346h-713.697c-31.12 0-56.346 25.226-56.346 56.346s25.226 56.346 56.346 56.346z" />
<glyph unicode="&#xe901;" glyph-name="grid-view" d="M166.604 853.335h203.174c44.885 0 81.27-36.387 81.27-81.27v-203.174c0-44.885-36.387-81.27-81.27-81.27h-203.174c-44.885 0-81.27 36.387-81.27 81.27v203.174c0 44.885 36.387 81.27 81.27 81.27zM166.604 365.716h203.174c44.885 0 81.27-36.387 81.27-81.27v-203.174c0-44.885-36.387-81.27-81.27-81.27h-203.174c-44.885 0-81.27 36.387-81.27 81.27v203.174c0 44.885 36.387 81.27 81.27 81.27zM654.223 853.335h203.174c44.885 0 81.27-36.387 81.27-81.27v-203.174c0-44.885-36.387-81.27-81.27-81.27h-203.174c-44.885 0-81.27 36.387-81.27 81.27v203.174c0 44.885 36.387 81.27 81.27 81.27zM654.223 365.716h203.174c44.885 0 81.27-36.387 81.27-81.27v-203.174c0-44.885-36.387-81.27-81.27-81.27h-203.174c-44.885 0-81.27 36.387-81.27 81.27v203.174c0 44.885 36.387 81.27 81.27 81.27z" />
<glyph unicode="&#xe902;" glyph-name="calendar" d="M810.669 768.002h-42.668v85.333h-85.333v-85.333h-341.335v85.333h-85.333v-85.333h-42.668c-47.36 0-85.333-38.4-85.333-85.333v-597.337c0-46.932 37.972-85.333 85.333-85.333h597.337c46.932 0 85.333 38.4 85.333 85.333v597.337c0 46.932-38.4 85.333-85.333 85.333zM810.669 85.332h-597.337v426.672h597.337v-426.672zM810.669 597.336h-597.337v85.333h597.337v-85.333zM298.666 426.667h213.334v-213.334h-213.334v213.334z" />
<glyph unicode="&#xe903;" glyph-name="double-arrow" d="M449.543 77.731h224.712l249.135 348.936-249.135 348.936h-224.712l249.836-348.936-249.836-348.936zM100.608 77.731h224.712l249.139 348.936-249.139 348.936h-224.712l249.836-348.936-249.836-348.936z" />
<glyph unicode="&#xe904;" glyph-name="arrow-right" d="M296.613 768.89l342.265-342.182-342.307-342.182c-16.314-16.315-16.314-42.706 0-59.021 16.314-16.272 42.746-16.272 59.060 0l371.797 371.674c16.315 16.272 16.315 42.704 0 58.977l-371.793 371.673c-16.315 16.272-42.788 16.272-59.103 0-16.234-16.231-16.234-42.667 0.080-58.939z" />
<glyph unicode="&#xe905;" glyph-name="category" d="M490.99 853.335l-231.080-384h462.163l-231.083 384zM490.99 689.495l81.090-134.828h-162.595l81.509 134.828zM722.073 383.999c-104.615 0-189.067-85.76-189.067-192s84.45-192 189.067-192c104.615 0 189.067 85.76 189.067 192s-84.45 192-189.067 192zM722.073 85.335c-57.98 0-105.036 47.788-105.036 106.668s47.057 106.668 105.036 106.668c57.98 0 105.036-47.788 105.036-106.668s-47.057-106.668-105.036-106.668zM112.86 21.335h336.116v341.332h-336.116v-341.332zM196.889 277.335h168.059v-170.668h-168.059v170.668z" />
<glyph unicode="&#xe906;" glyph-name="stack-overflow-bottom" d="M809.733 6.134h-638.933v274.267h-91.333v-365.733h821.733v365.733h-91.467v-274.267z" />
<glyph unicode="&#xe907;" glyph-name="link" d="M725.333 640h-170.667v-85.333h170.667c72.533 0 128-55.467 128-128s-55.467-128-128-128h-170.667v-85.333h170.667c119.467 0 213.333 93.867 213.333 213.333s-93.867 213.333-213.333 213.333zM170.667 426.667c0 72.533 55.467 128 128 128h170.667v85.333h-170.667c-119.467 0-213.333-93.867-213.333-213.333s93.867-213.333 213.333-213.333h170.667v85.333h-170.667c-72.533 0-128 55.467-128 128zM341.333 469.334h341.333v-85.333h-341.333v85.333z" />
<glyph unicode="&#xe908;" glyph-name="logo" d="M543.086 823.467l-402.286-536.381c-5.486-7.010-3.657-16.762 3.657-21.638l396.8-263.924c12.8-8.533 28.952 5.486 21.943 19.505l-124.343 248.381c-1.829 3.048-2.133 6.705-1.219 10.362l132.571 530.895c3.962 16.152-17.067 26.21-27.124 12.8zM740.571 274.286c0-42.079-34.112-76.19-76.19-76.19s-76.19 34.112-76.19 76.19c0 42.079 34.112 76.19 76.19 76.19s76.19-34.112 76.19-76.19z" />
<glyph unicode="&#xe909;" glyph-name="stack-overflow-top" d="M271.467 305.467l18.8 89.733 447.467-94.267-18.8-89.2-447.467 93.733zM330.267 519.2l38.267 83.467 414.267-193.733-38.267-82.8-414.267 193.067zM445.2 722.667l58.267 70.267 350.8-293.2-58.267-70.267-350.8 293.2zM672 938.667l272.533-366.267-73.2-54.8-272.533 366.267 73.2 54.8zM261.733 98.134v90.8h457.2v-90.8h-457.2z" />
<glyph unicode="&#xe90a;" glyph-name="linkedin" d="M872.405 66.048h-151.637v237.611c0 56.661-1.152 129.579-79.019 129.579-79.061 0-91.136-61.653-91.136-125.397v-241.792h-151.637v488.619h145.664v-66.603h1.963c20.352 38.4 69.845 78.933 143.787 78.933 153.643 0 182.059-101.12 182.059-232.747v-268.203zM227.712 621.526c-48.811 0-88.021 39.509-88.021 88.107 0 48.555 39.253 88.021 88.021 88.021 48.64 0 88.064-39.467 88.064-88.021 0-48.597-39.467-88.107-88.064-88.107zM303.744 66.048h-152.064v488.619h152.064v-488.619zM948.267 938.667h-872.704c-41.771 0-75.563-33.024-75.563-73.771v-876.459c0-40.789 33.792-73.771 75.563-73.771h872.576c41.728 0 75.861 32.981 75.861 73.771v876.459c0 40.747-34.133 73.771-75.861 73.771h0.128z" />
<glyph unicode="&#xe90b;" glyph-name="pluralsight" d="M670.72 863.787c-240.64 87.723-508.117-37.12-595.157-277.12-88.363-243.157 36.437-510.123 277.077-597.76 241.28-87.68 510.123 37.12 597.76 277.76 87.765 241.92-37.12 509.397-278.357 597.12h-1.323zM512-85.333c-281.6 0-512 230.4-512 512s230.4 512 512 512 512-230.4 512-512-230.4-512-512-512zM380.843 690.987v-528.683l458.837 264.363-458.837 264.32zM425.6 615.51l326.4-188.843-326.4-188.843v377.685zM275.157 633.387v-413.397l358.443 206.677-358.443 206.72zM320 556.587l226.603-129.92-226.603-130.603v261.205z" />
<glyph unicode="&#xe90c;" glyph-name="marker" d="M512 853.334c-166.4 0-298.667-132.267-298.667-298.667 0-226.133 298.667-554.667 298.667-554.667s298.667 332.8 298.667 554.667c0 166.4-132.267 298.667-298.667 298.667zM298.667 554.667c0 119.467 93.867 213.333 213.333 213.333s213.333-93.867 213.333-213.333c0-123.733-123.733-307.2-213.333-422.4-89.6 115.2-213.333 298.667-213.333 422.4zM618.667 554.667c0-58.91-47.756-106.667-106.667-106.667s-106.667 47.756-106.667 106.667c0 58.91 47.756 106.667 106.667 106.667s106.667-47.756 106.667-106.667z" />
<glyph unicode="&#xe90d;" glyph-name="cake" d="M512 682.667c46.933 0 85.333 38.4 85.333 85.333 0 17.067-4.267 29.867-12.8 42.667l-72.533 128-72.533-128c-8.533-12.8-12.8-25.6-12.8-42.667 0-46.933 38.4-85.333 85.333-85.333zM768 554.667h-213.333v85.333h-85.333v-85.333h-213.333c-72.533 0-128-55.467-128-128v-384c0-21.333 21.333-42.667 42.667-42.667h682.667c21.333 0 42.667 21.333 42.667 42.667v384c0 72.533-55.467 128-128 128zM810.667 85.334h-597.333v128c38.4 0 76.8 17.067 102.4 42.667l46.933 46.933 46.933-46.933c55.467-55.467 153.6-55.467 209.067 0l46.933 46.933 46.933-46.933c25.6-25.6 64-42.667 102.4-42.667-4.267 0-4.267-128-4.267-128zM810.667 277.334c-21.333 0-42.667 8.533-59.733 25.6l-89.6 89.6-89.6-89.6c-29.867-29.867-85.333-29.867-119.467 0l-89.6 89.6-89.6-89.6c-17.067-17.067-38.4-25.6-59.733-25.6v149.333c0 25.6 17.067 42.667 42.667 42.667h512c21.333 0 42.667-17.067 42.667-42.667v-149.333z" />
<glyph unicode="&#xe90e;" glyph-name="email" d="M938.667 682.667c0 46.933-38.4 85.333-85.333 85.333h-682.667c-46.933 0-85.333-38.4-85.333-85.333v-512c0-46.933 38.4-85.333 85.333-85.333h682.667c46.933 0 85.333 38.4 85.333 85.333v512zM853.333 682.667l-341.333-213.333-341.333 213.333h682.667zM853.333 170.667h-682.667v426.667l341.333-213.333 341.333 213.333v-426.667z" />
<glyph unicode="&#xe90f;" glyph-name="open-new-tab" d="M768 128h-512c-25.6 0-42.667 21.333-42.667 42.667v512c0 25.6 17.067 42.667 42.667 42.667h213.333c25.6 0 42.667 17.067 42.667 42.667v0c0 21.333-17.067 42.667-42.667 42.667h-256c-46.933 0-85.333-38.4-85.333-85.333v-597.333c0-46.933 38.4-85.333 85.333-85.333h597.333c46.933 0 85.333 38.4 85.333 85.333v256c0 25.6-21.333 42.667-42.667 42.667v0c-21.333 0-42.667-17.067-42.667-42.667v-213.333c0-21.333-21.333-42.667-42.667-42.667zM597.333 768v0c0-25.6 17.067-42.667 42.667-42.667h110.933l-388.267-388.267c-17.067-17.067-17.067-42.667 0-59.733v0c17.067-17.067 42.667-17.067 59.733 0l388.267 388.267v-110.933c0-25.6 21.333-42.667 42.667-42.667v0c21.333 0 42.667 17.067 42.667 42.667v213.333c0 21.333-21.333 42.667-42.667 42.667h-213.333c-25.6 0-42.667-21.333-42.667-42.667z" />
<glyph unicode="&#xe910;" glyph-name="github" d="M512.001 926.080c282.667 0 511.999-229.333 511.999-511.999 0-225.999-146.666-418-350-485.999-26-4.667-35.334 11.333-35.334 24.667 0 16.667 0.666 72 0.666 140.666 0 48-16 78.667-34.666 94.667 114 12.666 233.999 56 233.999 252.666 0 56-20 101.333-52.667 137.333 5.333 13.334 22.667 65.333-5.333 135.999-42.666 13.334-140.666-52.667-140.666-52.667-40.666 11.333-84.666 17.333-128 17.333s-87.333-6-128-17.333c0 0-98 65.999-140.666 52.667-28-70.666-10.667-122.667-5.333-135.999-32.667-36-52.667-81.333-52.667-137.333 0-196 119.334-239.999 233.333-252.666-14.666-13.334-28-36-32.667-68.666-29.333-13.334-104-36-148.667 42.666-28 48.666-78.667 52.667-78.667 52.667-50 0.666-3.333-31.333-3.333-31.333 33.333-15.333 56.666-74.667 56.666-74.667 30-91.334 172.667-60.667 172.667-60.667 0-42.666 0.666-82.666 0.666-95.333 0-13.334-9.333-29.333-35.334-24.667-203.334 68-350 260-350 485.999 0 282.667 229.333 511.999 511.999 511.999zM194.002 190.747c1.333 2.667-0.666 6-4.667 8-4 1.333-7.334 0.666-8.667-1.333-1.333-2.667 0.666-6 4.667-8 3.333-2 7.334-1.333 8.667 1.333zM214.668 168.081c2.667 2 2 6.666-1.333 10.667-3.333 3.333-8 4.667-10.667 2-2.667-2-2-6.666 1.333-10.667 3.333-3.333 8-4.667 10.667-2zM234.668 138.082c3.333 2.667 3.333 8 0 12.666-2.667 4.667-8 6.666-11.333 4-3.333-2-3.333-7.334 0-12s8.667-6.666 11.333-4.667zM262.668 110.082c2.667 2.667 1.333 8.667-2.667 12.666-4.667 4.667-10.667 5.333-13.334 2-3.333-2.667-2-8.667 2.667-12.666 4.667-4.667 10.667-5.333 13.334-2zM300.668 93.415c1.333 4-2.667 8.667-8.667 10.667-5.333 1.333-11.333-0.666-12.666-4.667s2.667-8.667 8.667-9.999c5.333-2 11.333 0 12.666 4zM342.668 90.082c0 4.667-5.333 8-11.333 7.334-6 0-10.667-3.333-10.667-7.334 0-4.667 4.667-8 11.333-7.334 6 0 10.667 3.333 10.667 7.334zM381.335 96.748c-0.666 4-6 6.666-12 6-6-1.333-9.999-5.333-9.333-9.999 0.666-4 6-6.666 12-5.333s9.999 5.333 9.333 9.333z" />
<glyph unicode="&#xe911;" glyph-name="stack-overflow" d="M809.715 6.096h-638.858v274.286h-91.429v-365.714h821.715v365.714h-91.429v-274.286zM271.43 305.524l18.857 89.714 447.429-94.286-18.857-89.143zM330.287 519.238l38.286 83.429 414.286-193.714-38.286-82.857zM445.144 722.667l58.286 70.286 350.857-293.143-58.286-70.286zM672.001 938.667l272.571-366.286-73.143-54.857-272.571 366.286zM261.715 98.096v90.857h457.143v-90.857h-457.143z" />
<glyph unicode="&#xe912;" glyph-name="behance" d="M924 705.167h-255.5v-62h255.5v62zM798 492.167c-60 0-100-37.5-104-97.5h204c-5.5 60.5-37 97.5-100 97.5zM806 199.667c38 0 87 20.5 99 59.5h110.5c-34-104.5-104.5-153.5-213.5-153.5-144 0-233.5 97.5-233.5 239.5 0 137 94.5 241.5 233.5 241.5 143 0 222-112.5 222-247.5 0-8-0.5-16-1-23.5h-329c0-73 38.5-116 112-116zM138.5 224.667h148c56.5 0 102.5 20 102.5 83.5 0 64.5-38.5 90-99.5 90h-151v-173.5zM138.5 493.167h140.5c49.5 0 84.5 21.5 84.5 75 0 58-45 72-95 72h-130v-147zM0 747.667h297c108 0 201.5-30.5 201.5-156 0-63.5-29.5-104.5-86-131.5 77.5-22 115-80.5 115-159.5 0-128-107.5-183-222-183h-305.5v630z" />
<glyph unicode="&#xe913;" glyph-name="codepen" d="M123.429 270.667l344.571-229.714v205.143l-190.857 127.429zM88 352.953l110.286 73.714-110.286 73.714v-147.429zM556 40.953l344.571 229.714-153.714 102.857-190.857-127.429v-205.143zM512 322.667l155.429 104-155.429 104-155.429-104zM277.143 479.81l190.857 127.429v205.143l-344.571-229.714zM825.714 426.667l110.286-73.714v147.429zM746.857 479.81l153.714 102.857-344.571 229.714v-205.143zM1024 582.667v-312c0-14.286-7.429-28.571-19.429-36.571l-468-312c-7.429-4.571-16-7.429-24.571-7.429s-17.143 2.857-24.571 7.429l-468 312c-12 8-19.429 22.286-19.429 36.571v312c0 14.286 7.429 28.571 19.429 36.571l468 312c7.429 4.571 16 7.429 24.571 7.429s17.143-2.857 24.571-7.429l468-312c12-8 19.429-22.286 19.429-36.571z" />
<glyph unicode="&#xe914;" glyph-name="moon" d="M235.947 186.027c14.507-17.92 29.867-34.987 47.787-50.773 153.6-136.96 390.827-140.373 550.4-10.667 16.213 13.227 31.147 27.307 45.227 41.813 14.507 15.787-0.427 40.107-21.333 35.413-152.747-34.56-318.72 16.213-424.533 145.92s-123.733 302.080-59.307 444.587c8.96 20.053-12.373 39.253-30.72 27.733-17.493-10.24-34.133-22.187-50.347-35.413-158.72-130.987-201.813-364.373-97.707-541.867 11.947-20.48 26.027-38.827 40.533-56.747z" />
<glyph unicode="&#xe915;" glyph-name="sun" d="M258.133 762.027l-16.64 16.64c-16.64 16.64-43.52 16.213-59.733 0l-0.427-0.427c-16.64-16.64-16.64-43.52 0-59.733l16.64-16.64c16.64-16.64 43.093-16.64 59.733 0l0.427 0.427c16.64 16.213 16.64 43.52 0 59.733zM128.427 490.667h-43.52c-23.467 0-42.24-18.773-42.24-42.24v-0.427c0-23.467 18.773-42.24 42.24-42.24h43.093c23.893-0.427 42.667 18.347 42.667 41.813v0.427c0 23.893-18.773 42.667-42.24 42.667zM512.427 915.2h-0.427c-23.893 0-42.667-18.773-42.667-42.24v-40.96c0-23.467 18.773-42.24 42.24-42.24h0.427c23.893-0.427 42.667 18.347 42.667 41.813v41.387c0 23.467-18.773 42.24-42.24 42.24zM842.667 778.24c-16.64 16.64-43.52 16.64-60.16 0.427l-16.64-16.64c-16.64-16.64-16.64-43.52 0-59.733l0.427-0.427c16.64-16.64 43.52-16.64 59.733 0l16.64 16.64c16.64 16.64 16.64 43.093 0 59.733zM765.44 133.974l16.64-16.64c16.64-16.64 43.52-16.64 60.16 0s16.64 43.52 0 60.16l-16.64 16.64c-16.64 16.64-43.52 16.213-59.733 0-17.067-17.067-17.067-43.52-0.427-60.16zM853.333 448.427v-0.427c0-23.467 18.773-42.24 42.24-42.24h43.093c23.467 0 42.24 18.773 42.24 42.24v0.427c0 23.467-18.773 42.24-42.24 42.24h-43.093c-23.467 0-42.24-18.773-42.24-42.24zM512 704c-141.227 0-256-114.773-256-256s114.773-256 256-256 256 114.773 256 256-114.773 256-256 256zM511.573-19.2h0.427c23.467 0 42.24 18.773 42.24 42.24v40.96c0 23.467-18.773 42.24-42.24 42.24h-0.427c-23.467 0-42.24-18.773-42.24-42.24v-40.96c0-23.467 18.773-42.24 42.24-42.24zM181.333 117.76c16.64-16.64 43.52-16.64 60.16 0l16.64 16.64c16.64 16.64 16.213 43.52 0 59.733l-0.427 0.427c-16.64 16.64-43.52 16.64-60.16 0l-16.64-16.64c-16.213-17.067-16.213-43.52 0.427-60.16z" />
<glyph unicode="&#xe916;" glyph-name="arrow" d="M512 938.666l-90.24-90.24 357.12-357.76h-778.879v-127.999h778.879l-357.12-357.76 90.24-90.24 511.999 511.999z" />
<glyph unicode="&#xe917;" glyph-name="stop" d="M256 682.667h512v-512h-512v512z" />
<glyph unicode="&#xe918;" glyph-name="pause" d="M598 724.667h170v-596h-170v596zM256 128.667v596h170v-596h-170z" />
<glyph unicode="&#xe919;" glyph-name="play" d="M342 724.667l468-298-468-298v596z" />
</font>
</defs>
</svg>
