<svg xmlns="http://www.w3.org/2000/svg" xmlns:xlink="http://www.w3.org/1999/xlink" viewBox="0 0 443.26 376.91"><defs><style>.cls-1{fill:#fff;}.cls-2{mask:url(#mask);}.cls-3{fill:none;stroke:#000;stroke-miterlimit:10;stroke-width:12px;opacity:0;}.cls-4{filter:url(#luminosity-noclip);}</style><filter id="luminosity-noclip" x="0" y="-8458.43" width="443.26" height="32766" filterUnits="userSpaceOnUse" color-interpolation-filters="sRGB"><feFlood flood-color="#fff" result="bg"/><feBlend in="SourceGraphic" in2="bg"/></filter><mask id="mask" x="0" y="-8458.43" width="443.26" height="32766" maskUnits="userSpaceOnUse"><g class="cls-4"/></mask></defs><title>Asset 1</title><g id="Layer_2" data-name="Layer 2"><g id="Layer_1-2" data-name="Layer 1"><path class="cls-1" d="M119.87,355.7q0-5.47-1.41-7.75t-4.83-2.28q-1.06,0-2.2.11t-2.2.27v30.86H97.9V338.3q1.44-.38,3.38-.8t4.1-.76q2.17-.34,4.45-.53t4.48-.19a18.88,18.88,0,0,1,7,1.1,15.91,15.91,0,0,1,4.45,2.62,21.16,21.16,0,0,1,11.4-3.72,20,20,0,0,1,7.87,1.33,11.86,11.86,0,0,1,4.9,3.76,14.24,14.24,0,0,1,2.51,5.78,37.27,37.27,0,0,1,.68,7.45v22.57H141.83V355.7q0-5.47-1.41-7.75t-4.83-2.28a10.21,10.21,0,0,0-2.55.46,9.93,9.93,0,0,0-2.7,1.14A17.35,17.35,0,0,1,131,351q.15,1.94.15,4.14v21.81H119.87Z"/><path class="cls-1" d="M200,329.86q.15,3.12.42,7.07t.61,8.17q.34,4.22.72,8.4t.76,7.75q2-3.88,4-8.36t4.1-9.27q2.05-4.79,4.07-9.73t3.84-9.65h12.54q-5.93,14.44-12.08,27.47t-13.22,25.19h-11.1q-.61-4.18-1.1-8t-.91-7.56q-.42-3.72-.76-7.52t-.65-7.9q-4.33,8.06-8.55,15.77t-9,15.24h-11.1q-.61-7.07-.87-14t-.27-14.06q0-6.16.23-12.27t.61-12.35h11.93q-.38,6.69-.72,13.11t-.34,13.34v5.24q0,2.66.15,5.32,2.13-3.72,4.48-7.9t4.64-8.36q2.28-4.18,4.33-8.09t3.5-7Z"/><path class="cls-1" d="M226.11,376.91l12.62-52.67h34.43L270.73,334H248.15l-2.43,10.64h19.91l-2.36,9.58H243.37l-3,12.92h24.32l-2.43,9.8Z"/><path class="cls-1" d="M308.8,366.87l-2.43,10H271.26l12.62-52.67h11.86l-10.26,42.64Z"/><path class="cls-1" d="M351.06,366.87l-2.43,10H313.51l12.62-52.67H338l-10.26,42.64Z"/><g class="cls-2"><path class="cls-1" d="M347.2,260.32c-52.29,46-108.25,27.85-122.73,21.93a8,8,0,0,1-4.7-5.33c-4-15.11-15-72.93,37.3-119C305.8,115,394.64,95.41,427.76,89.34a8,8,0,0,1,9.12,10.35C426.66,131.77,395.93,217.41,347.2,260.32Z"/><path class="cls-3" d="M347.2,260.32c-52.29,46-108.25,27.85-122.73,21.93a8,8,0,0,1-4.7-5.33c-4-15.11-15-72.93,37.3-119C305.8,115,394.64,95.41,427.76,89.34a8,8,0,0,1,9.12,10.35C426.66,131.77,395.93,217.41,347.2,260.32Z"/><path class="cls-1" d="M333.64,229.37c-34.12,60.75-92.95,62.09-108.57,61.3a8,8,0,0,1-6.2-3.48c-8.8-12.93-38.27-63.86-4.15-124.61C246.52,106,323.86,58.06,353.11,41.38a8,8,0,0,1,12,6.76C366.1,81.78,365.43,172.77,333.64,229.37Z"/><path class="cls-3" d="M333.64,229.37c-34.12,60.75-92.95,62.09-108.57,61.3a8,8,0,0,1-6.2-3.48c-8.8-12.93-38.27-63.86-4.15-124.61C246.52,106,323.86,58.06,353.11,41.38a8,8,0,0,1,12,6.76C366.1,81.78,365.43,172.77,333.64,229.37Z"/><path class="cls-1" d="M96.06,260.32c52.29,46,108.25,27.85,122.73,21.93a8,8,0,0,0,4.7-5.33c4-15.11,15-72.93-37.3-119C137.46,115,48.62,95.41,15.5,89.34A8,8,0,0,0,6.39,99.7C16.6,131.77,47.33,217.41,96.06,260.32Z"/><path class="cls-3" d="M96.06,260.32c52.29,46,108.25,27.85,122.73,21.93a8,8,0,0,0,4.7-5.33c4-15.11,15-72.93-37.3-119C137.46,115,48.62,95.41,15.5,89.34A8,8,0,0,0,6.39,99.7C16.6,131.77,47.33,217.41,96.06,260.32Z"/><path class="cls-1" d="M109.62,229.37c34.12,60.75,92.95,62.09,108.57,61.3a8,8,0,0,0,6.2-3.48c8.8-12.93,38.27-63.86,4.15-124.61C196.74,106,119.4,58.06,90.15,41.38a8,8,0,0,0-12,6.76C77.16,81.78,77.83,172.77,109.62,229.37Z"/><path class="cls-3" d="M109.62,229.37c34.12,60.75,92.95,62.09,108.57,61.3a8,8,0,0,0,6.2-3.48c8.8-12.93,38.27-63.86,4.15-124.61C196.74,106,119.4,58.06,90.15,41.38a8,8,0,0,0-12,6.76C77.16,81.78,77.83,172.77,109.62,229.37Z"/><path class="cls-1" d="M289.9,183.35C289.9,253,239.27,283,225.26,290a8,8,0,0,1-7.11,0c-14-7-64.64-36.94-64.64-106.61,0-64.93,44-144.58,61.3-173.44a8,8,0,0,1,13.8,0C245.93,38.77,289.9,118.42,289.9,183.35Z"/><path class="cls-3" d="M289.9,183.35C289.9,253,239.27,283,225.26,290a8,8,0,0,1-7.11,0c-14-7-64.64-36.94-64.64-106.61,0-64.93,44-144.58,61.3-173.44a8,8,0,0,1,13.8,0C245.93,38.77,289.9,118.42,289.9,183.35Z"/></g></g></g></svg>