<svg id="Layer_1" data-name="Layer 1" xmlns="http://www.w3.org/2000/svg" viewBox="0 0 128.1 128.1">
  <defs>
    <style>
      .cls-1 {
        fill: #8d8382;
      }

      .cls-2 {
        fill: #ffc50c;
      }

      .cls-3 {
        fill: #fff;
      }

      .cls-4 {
        fill: #504742;
      }
    </style>
  </defs>
  <title>Untitled-1</title>
  <g>
    <rect class="cls-1" x="57.9" y="93.7" width="23.8" height="27.95" rx="5.5" transform="translate(-26.8 23.2) rotate(-15.9)"/>
    <path class="cls-2" d="M19.4,62.1A36.1,36.1,0,0,0,33.5,81.8l2.6,1.7c8.2,5.6,13.1,9,16.4,17.5a3.7,3.7,0,0,0,4.6,2.3l21.2-6A3.8,3.8,0,0,0,81,92.9c-1.7-8.9.7-14.3,4.7-23.3.4-1,.9-2,1.3-3.1A36,36,0,0,0,23.2,33.6,36.5,36.5,0,0,0,19.4,62.1Z"/>
    <path class="cls-3" d="M61.3,25.3c4-1.2,7.8,1.5,10.8,3.9a29.5,29.5,0,0,1,7.4,8.7,26.1,26.1,0,0,1,.4,24c-.3.7-1.2.1-1.1-.5A31.2,31.2,0,0,0,74,40.2a28.2,28.2,0,0,0-6.3-6.6c-2.6-1.8-5.6-2.9-7.5-5.6A1.8,1.8,0,0,1,61.3,25.3Z"/>
    <g>
      <path class="cls-4" d="M57,105.6l22.6-6.4a1.6,1.6,0,0,1,2.1,1h0a1.8,1.8,0,0,1-1.3,2l-22.6,6.4a1.7,1.7,0,0,1-2.1-1.1h0A1.6,1.6,0,0,1,57,105.6Z"/>
      <path class="cls-4" d="M58.6,111.2l22.6-6.4a1.7,1.7,0,0,1,2.1,1h0a1.6,1.6,0,0,1-1.3,2l-22.5,6.4a1.7,1.7,0,0,1-2.2-1h0A1.8,1.8,0,0,1,58.6,111.2Z"/>
      <path class="cls-4" d="M60.5,118l22.6-6.4a1.6,1.6,0,0,1,2.1,1h0a1.6,1.6,0,0,1-1.3,2L61.4,121a1.6,1.6,0,0,1-2.1-1h0A1.6,1.6,0,0,1,60.5,118Z"/>
    </g>
  </g>
  <g>
    <polygon class="cls-2" points="88.3 22.5 110.1 19.9 106.8 14.4 88.3 22.5"/>
    <polygon class="cls-2" points="84.9 21.1 92.6 12.8 86.1 9.7 84.9 21.1"/>
    <polygon class="cls-2" points="80.7 19.3 78.3 4.2 72.7 6.5 80.7 19.3"/>
  </g>
</svg>
