<svg width="69" height="231" viewBox="0 0 69 231" fill="none" xmlns="http://www.w3.org/2000/svg">
<line y1="6.5" x2="31" y2="6.5" stroke="#FF0F00" stroke-width="13"/>
<line x1="38" y1="6.5" x2="69" y2="6.5" stroke="#FF0F00" stroke-width="13"/>
<line y1="23.5" x2="9" y2="23.5" stroke="#0067FF" stroke-width="7"/>
<line x1="15" y1="23.5" x2="24" y2="23.5" stroke="#0067FF" stroke-width="7"/>
<line x1="30" y1="23.5" x2="39" y2="23.5" stroke="#0067FF" stroke-width="7"/>
<line x1="45" y1="23.5" x2="54" y2="23.5" stroke="#0067FF" stroke-width="7"/>
<line x1="60" y1="23.5" x2="69" y2="23.5" stroke="#0067FF" stroke-width="7"/>
<line x1="60" y1="127.5" x2="69" y2="127.5" stroke="#7AF478" stroke-width="9"/>
<line y1="44.5" x2="31" y2="44.5" stroke="#7AF478" stroke-width="9"/>
<line x1="38" y1="44.5" x2="69" y2="44.5" stroke="#7AF478" stroke-width="9"/>
<line y1="59.5" x2="31" y2="59.5" stroke="#7AF478" stroke-width="9"/>
<line x1="38" y1="59.5" x2="69" y2="59.5" stroke="#7AF478" stroke-width="9"/>
<line y1="144" x2="31" y2="144" stroke="#7AF478" stroke-width="10"/>
<line x1="38" y1="144" x2="69" y2="144" stroke="#7AF478" stroke-width="10"/>
<line x1="38" y1="82" x2="69" y2="82" stroke="#7AF478" stroke-width="8"/>
<line x1="38" y1="97" x2="69" y2="97" stroke="#7AF478" stroke-width="8"/>
<line y1="89.5" x2="31" y2="89.5" stroke="#FF8A00" stroke-width="23"/>
<line y1="114" x2="69" y2="114" stroke="#FFE500" stroke-width="2"/>
<line y1="157" x2="69" y2="157" stroke="#FFE500" stroke-width="2"/>
<line y1="193" x2="69" y2="193" stroke="#FFE500" stroke-width="2"/>
<line y1="127.5" x2="56" y2="127.5" stroke="#FF8A00" stroke-width="9"/>
<line y1="177" x2="69" y2="177" stroke="#FF8A00" stroke-width="12"/>
<line y1="206.5" x2="34" y2="206.5" stroke="#0067FF" stroke-width="11"/>
<line x1="38" y1="206.5" x2="69" y2="206.5" stroke="#0067FF" stroke-width="11"/>
<line y1="225.5" x2="69" y2="225.5" stroke="#FF0F00" stroke-width="11"/>
</svg>
