<svg xmlns="http://www.w3.org/2000/svg" viewBox="0 0 136.258 40.192">
  <defs>
    <style>
      .cls-1 {
        fill: #fff;
      }
    </style>
  </defs>
  <g id="grassdoorlogo" transform="translate(0 0)">
    <g id="Group_1" data-name="Group 1" transform="translate(0 15.271)">
      <path id="Path_1" data-name="Path 1" class="cls-1" d="M498.4,888.7v-.03a5.059,5.059,0,0,1,5.248-5.067,5.665,5.665,0,0,1,3.953,1.422l-1.586,1.907a3.433,3.433,0,0,0-2.354-.92,2.561,2.561,0,0,0-2.493,2.675v.03a2.574,2.574,0,0,0,2.645,2.7,2.754,2.754,0,0,0,1.561-.405v-1.186h-1.92v-1.979h4.485v4.383a6.592,6.592,0,0,1-4.232,1.5A5.006,5.006,0,0,1,498.4,888.7" transform="translate(-498.4 -883.6)"/>
      <path id="Path_2" data-name="Path 2" class="cls-1" d="M806.3,888.2h4.607a4.244,4.244,0,0,1,3.173,1.059,3.027,3.027,0,0,1,.865,2.27v.03a3.079,3.079,0,0,1-2,2.991l2.325,3.4h-3.118l-1.962-2.953H809v2.953h-2.7V888.2Zm4.481,4.679c.92,0,1.447-.447,1.447-1.156v-.03c0-.764-.557-1.156-1.464-1.156H809v2.337h1.785Z" transform="translate(-793.31 -888.006)"/>
      <path id="Path_3" data-name="Path 3" class="cls-1" d="M1071.147,886.6h2.6l4.147,9.813H1075l-.709-1.738h-3.759l-.7,1.738H1067Zm2.367,5.97-1.084-2.772-1.1,2.772Z" transform="translate(-1043.011 -886.474)"/>
      <path id="Path_4" data-name="Path 4" class="cls-1" d="M1373.2,892.667l1.5-1.8a5.011,5.011,0,0,0,3.16,1.169c.726,0,1.114-.249,1.114-.667v-.03c0-.4-.321-.624-1.641-.932-2.076-.473-3.675-1.059-3.675-3.063v-.03c0-1.81,1.434-3.118,3.772-3.118a6.128,6.128,0,0,1,4.008,1.3l-1.35,1.907a4.9,4.9,0,0,0-2.73-.962c-.654,0-.974.278-.974.624v.029c0,.447.333.641,1.683.945,2.24.489,3.632,1.211,3.632,3.033v.029c0,1.991-1.574,3.173-3.94,3.173a6.757,6.757,0,0,1-4.561-1.607" transform="translate(-1336.293 -884.175)"/>
      <path id="Path_5" data-name="Path 5" class="cls-1" d="M1631.2,892.667l1.5-1.8a5.011,5.011,0,0,0,3.16,1.169c.725,0,1.114-.249,1.114-.667v-.03c0-.4-.321-.624-1.641-.932-2.076-.473-3.675-1.059-3.675-3.063v-.03c0-1.81,1.434-3.118,3.772-3.118a6.127,6.127,0,0,1,4.008,1.3l-1.35,1.907a4.9,4.9,0,0,0-2.73-.962c-.654,0-.975.278-.975.624v.029c0,.447.333.641,1.683.945,2.24.489,3.633,1.211,3.633,3.033v.029c0,1.991-1.574,3.173-3.941,3.173a6.757,6.757,0,0,1-4.561-1.607" transform="translate(-1583.408 -884.175)"/>
      <path id="Path_6" data-name="Path 6" class="cls-1" d="M1910,888.2h3.759c3.481,0,5.5,2,5.5,4.818v.03c0,2.814-2.046,4.9-5.556,4.9H1910V888.2Zm3.8,7.354a2.389,2.389,0,0,0,2.688-2.464v-.03a2.4,2.4,0,0,0-2.688-2.464h-1.1v4.957Z" transform="translate(-1850.446 -888.006)"/>
      <path id="Path_7" data-name="Path 7" class="cls-1" d="M2200.8,888.7v-.03a5.252,5.252,0,0,1,10.5-.025v.03a5.252,5.252,0,0,1-10.5.025m7.742,0v-.03a2.535,2.535,0,0,0-2.506-2.633,2.483,2.483,0,0,0-2.464,2.6v.029a2.533,2.533,0,0,0,2.494,2.633,2.488,2.488,0,0,0,2.477-2.6" transform="translate(-2128.977 -883.6)"/>
      <path id="Path_8" data-name="Path 8" class="cls-1" d="M2521.2,888.7v-.03a5.252,5.252,0,0,1,10.5-.025v.03a5.252,5.252,0,0,1-10.5.025m7.741,0v-.03a2.535,2.535,0,0,0-2.506-2.633,2.483,2.483,0,0,0-2.464,2.6v.029a2.532,2.532,0,0,0,2.493,2.633,2.488,2.488,0,0,0,2.476-2.6" transform="translate(-2435.86 -883.6)"/>
      <path id="Path_9" data-name="Path 9" class="cls-1" d="M2849.5,888.2h4.607a4.244,4.244,0,0,1,3.173,1.059,3.026,3.026,0,0,1,.865,2.27v.03a3.079,3.079,0,0,1-2,2.991l2.325,3.4h-3.118l-1.962-2.953H2852.2v2.953h-2.7V888.2Zm4.484,4.679c.92,0,1.448-.447,1.448-1.156v-.03c0-.764-.557-1.156-1.464-1.156H2852.2v2.337h1.784Z" transform="translate(-2750.309 -888.006)"/>
    </g>
    <g id="Group_2" data-name="Group 2" transform="translate(114.455)">
      <path id="Path_10" data-name="Path 10" class="cls-1" d="M3214.19,1315.922c-.017.017-.034.042-.059.068-.042-.076-.08-.144-.118-.215-.017.029-.034.046-.051.076-.055-.1-.1-.194-.16-.291-.021.042-.038.072-.067.122-.042-.114-.076-.207-.118-.317-.03.046-.047.068-.072.1-.038-.1-.067-.181-.105-.278-.025.034-.038.055-.063.084-.029-.105-.054-.194-.084-.291l-.081.1c-.042-.114-.084-.215-.122-.321-.013.017-.025.038-.042.063-.042-.093-.084-.181-.126-.274-.013.009-.034.017-.063.034-.013-.084-.021-.165-.034-.253-.03.021-.046.034-.072.051-.021-.093-.038-.181-.055-.27-.021.013-.084.042-.088.046-.042-.11-.034-.236-.076-.342-.021.03-.025.025-.055.068-.013-.16-.038-.266-.051-.405-.017,0-.034.013-.051.017a.948.948,0,0,0-.067-.3c-.093-.169-.4-.629-.485-.827h0a1.471,1.471,0,0,0-.523-.266v2.139a11.136,11.136,0,0,0,.287,1.485l2.949.527C3214.427,1316.146,3214.326,1316.066,3214.19,1315.922Z" transform="translate(-3211.3 -1278.751)"/>
      <path id="Path_11" data-name="Path 11" class="cls-1" d="M3310.079,1097.5Z" transform="translate(-3305.902 -1073.205)"/>
      <path id="Path_12" data-name="Path 12" class="cls-1" d="M3353.4,1218.1Z" transform="translate(-3347.405 -1188.716)"/>
      <path id="Path_13" data-name="Path 13" class="cls-1" d="M3232.637,561.415a1.285,1.285,0,0,0,.139-.122l.013-.013a.336.336,0,0,0,.038-.042l.009-.008c.025-.025.046-.051.068-.076.008-.008.012-.017.021-.025s.021-.025.029-.038a.235.235,0,0,1,.025-.034l.038-.051a.384.384,0,0,0,.025-.042c.009-.013.013-.021.021-.034s.021-.034.03-.051a.184.184,0,0,0,.017-.029.484.484,0,0,0,.034-.068.28.28,0,0,0,.013-.029c.008-.021.017-.038.025-.059s.008-.013.008-.021a.592.592,0,0,0,.029-.08c0-.008,0-.017.009-.021a.449.449,0,0,0,.021-.068c0-.008,0-.013,0-.021a.645.645,0,0,0,.021-.089s0-.013,0-.017c0-.025.012-.051.017-.076,0-.008,0-.013,0-.021l.012-.093v-.008c0-.029,0-.059.009-.084v-.021c0-.034,0-.063,0-.1v-.013l.1-36.49a1.834,1.834,0,0,0-2.236-1.8l-17.99,3.987a2.851,2.851,0,0,0,.245.844,1.586,1.586,0,0,0,.354.515c-.008.19-.025,1.266-.025,1.5.19-.072.346-.135.57-.219-.034.531-.068,1.013-.1,1.531.189-.118.321-.194.5-.3-.059.709-.114,1.354-.173,2.042.245-.11.443-.2.692-.316-.114.641-.215,1.228-.333,1.873.219-.089.367-.148.591-.236-.135.608-.25,1.139-.376,1.721.22-.063.372-.11.562-.169-.182.612-.346,1.156-.527,1.751.282-.114.485-.2.734-.3-.152.717-.292,1.371-.43,2.012.093-.029.224-.072.4-.127-.085.6-.165,1.156-.25,1.734.114.013.241.177.4.2-.2.456-.388.932-.6,1.489h.5c-.224.557-.435.835-.663,1.392h.35c-.16.835-.316,1.257-.477,1.928.211-.084.414-.19.709-.3-.333.924-.637,1.759-.962,2.666.287-.025.46-.046.671-.068-.367.975-.722,1.907-1.072,2.835.1.017.224.118.379.143-.316.595-1.2,3.092-1.48,3.649a2.959,2.959,0,0,0-.144.384l.359-.367a39.711,39.711,0,0,0,1.991-5.944l.523.388c.228-.865.553-1.578.789-2.464.161.27.152.375.371.489.013-.24.4-1.519.414-1.751.067.038.358.08.46.135.114-.515.223-1.012.337-1.544.135.11.236.19.367.291.1-.477.291-.894.384-1.337.16.084.262.143.321.173.249-.494.379-.962.625-1.451.126.135.207.224.253.274.249-.578.489-1.135.743-1.717l.417.565c.186-.557.342-1.038.531-1.6l.317.523c.244-.595.426-1.05.628-1.553.144.173.249.3.367.447.249-.548.481-1.051.73-1.6l.358.629.954-1.637c.084.177.152.312.24.489.249-.422.473-.81.713-1.219.14.186.241.321.363.481a3.523,3.523,0,0,1,.7-.747c.414-.388.7-.595,1.114-.983a14.686,14.686,0,0,0,1.034-1.185c-.7,1.527-.832,2.358-1.5,3.827.127.042.292.1.473.16-.3.367-.578.709-.877,1.072.181.038.316.068.5.1-.41.494-.781.941-1.19,1.426.261.034.447.055.763.1-.5.447-.923.827-1.4,1.257.3.072.447.105.68.16l-1.236,1.114c.219.059.358.1.569.152-.477.376-.89.7-1.333,1.046.253.076.447.135.679.207-.494.456-.941.873-1.4,1.3.123.03.249.059.418.1-.4.422-.772.806-1.156,1.211l.3.257-1.232.692c.165.105.27.169.414.262-.452.3-.861.565-1.292.844.106.08.389.346.422.371-.477.443-1.148.654-1.612,1.089.207.042.173.08.477.148-.81.4-1.291.747-1.991,1.1.063.08.122.148.186.224a5.416,5.416,0,0,0-1.435.987c-.687.827-3.151,2.08-3.771,3l-.215.354.316-.186a27.2,27.2,0,0,0,3.375-2.6c.067.148.118.262.181.4.422-.43.848-.743,1.278-1.186,0,.211-.034.27.059.409.089-.139.739-.759.823-.89.029.046.186.165.224.232.236-.266.464-.519.709-.793.042.11.076.19.118.291.215-.249.468-.43.667-.658.063.1.105.169.131.211.312-.207.54-.439.848-.646.03.122.046.2.059.245.337-.257.663-.5,1-.764.021.16.038.3.059.468l.84-.768c0,.16.008.257.013.409.342-.27.6-.477.882-.7.025.152.046.257.067.384.329-.241.629-.46.958-.7,0,.19,0,.329,0,.485l1.1-.646c-.008.131-.012.232-.021.367.283-.165.544-.316.823-.481.021.156.034.266.051.405a2.308,2.308,0,0,1,.658-.207c.371-.093.607-.114.979-.207a9.225,9.225,0,0,0,1-.354c-.916.667-1.266,1.11-2.143,1.755.059.068.139.152.224.249-.3.118-.574.224-.87.342l.257.224c-.4.152-.768.3-1.168.447l.417.308c-.443.1-.814.181-1.24.274.151.139.228.211.346.316-.384.089-.717.16-1.1.249.11.11.177.173.283.279-.4.063-.755.114-1.126.173.123.131.215.228.329.346l-1.249.3c.063.055.127.114.211.194l-1.08.329c.017.055.046.135.088.249h-.954c.063.118.1.19.156.287-.363.025-.692.046-1.038.072.034.08.114.333.127.359-.426.1-.89,0-1.308.105.105.093.076.105.232.245-.608-.03-1,.013-1.532-.013.013.068.025.127.034.194a3.655,3.655,0,0,0-1.168.106c-.675.257-2.844.359-3.62.544a.808.808,0,0,1-.308,0l.362.076h0a15.887,15.887,0,0,0,2.329.646c-.042.076-.076.135-.114.211.325.038.6.122.933.165-.089.072-.127.076-.161.16.088-.008.57.068.654.063-.008.025-.013.135-.025.173.194.017.38.03.578.046-.034.055-.055.093-.089.148.177.013.342.059.5.072-.025.063-.038.1-.046.127.194.068.367.089.557.156a1.284,1.284,0,0,0-.084.105l.658.186c-.063.063-.113.114-.186.181.211.038.393.072.608.114l-.173.139c.228.059.405.1.595.152l-.143.156.616.186c-.08.063-.139.11-.211.16.219.089.422.173.642.266-.06.042-.105.072-.165.114l.477.2c-.059.059-.1.1-.156.156a1.316,1.316,0,0,1,.308.215c.16.131.249.228.414.354a5.264,5.264,0,0,0,.481.316c-.591-.177-.9-.181-1.464-.354-.008.046-.021.11-.034.181-.148-.089-.287-.173-.435-.266,0,.067-.008.118-.013.186l-.578-.359c0,.1,0,.165,0,.283-.19-.16-.346-.3-.527-.447-.013.114-.017.169-.025.253-.165-.139-.3-.257-.468-.392-.008.084-.017.135-.025.215-.16-.156-.3-.287-.448-.43-.017.1-.025.169-.042.257-.19-.156-.363-.3-.541-.443,0,.046-.008.093-.012.156-.173-.127-.333-.24-.5-.359-.017.025-.042.063-.081.118-.1-.139-.2-.266-.312-.413-.03.063-.046.105-.071.165-.131-.148-.249-.283-.372-.426-.025.042-.105.16-.114.173-.186-.152-.3-.384-.477-.532,0,.076-.021.068-.03.181-.186-.274-.337-.43-.5-.667-.025.03-.046.051-.071.08a2.077,2.077,0,0,0-.431-.473c-.333-.207-1.088-1.008-1.426-1.283h0l-.207-.034.081.093h0a7.707,7.707,0,0,0,.86.793c-.038.021-.063.038-.1.063.127.1.224.2.359.3-.055.008-.072,0-.106.03.038.017.228.169.266.186-.013.008-.038.055-.055.068.076.055.151.106.236.16-.025.017-.046.025-.071.042.071.046.13.11.2.152-.025.021-.042.034-.051.042.067.076.135.127.2.2l-.063.025.236.236c-.042.013-.076.021-.122.034l.231.194a.993.993,0,0,1-.109.017c.084.08.147.139.215.207-.038.013-.068.021-.1.03l.215.228c-.051.008-.084.013-.126.017.072.093.139.177.21.266-.033,0-.063,0-.1.008.055.068.1.131.156.2-.042.013-.067.017-.1.03a.59.59,0,0,1,.076.164c.038.093.051.156.089.249.017.038.029.068.042.093l14.715,2.637a1.839,1.839,0,0,0,1.46-.363C3232.633,561.419,3232.637,561.419,3232.637,561.415Zm-2.354-17.884a1.407,1.407,0,1,1,1.114-1.371A1.264,1.264,0,0,1,3230.283,543.531Z" transform="translate(-3213.121 -521.632)"/>
      <path id="Path_14" data-name="Path 14" class="cls-1" d="M3672.9,521.807a1.789,1.789,0,0,1,1.354,1.8v36.5a1.843,1.843,0,0,1-1.451,1.793l.063.013a1.929,1.929,0,0,0,2.27-1.806V523.6A1.838,1.838,0,0,0,3672.9,521.807Z" transform="translate(-3653.33 -521.757)"/>
    </g>
  </g>
</svg>
