<svg width="514" height="375" viewBox="0 0 514 375" fill="none" xmlns="http://www.w3.org/2000/svg">
<path d="M66.704 12.436H89.792V115H66.704V71.488H27.928V115H4.84V12.436H27.928V51.656H66.704V12.436ZM105.388 76.668C105.388 69.7613 106.424 63.7427 108.496 58.612C110.666 53.3827 113.478 49.0413 116.932 45.588C120.385 42.1347 124.332 39.52 128.772 37.744C133.31 35.968 137.948 35.08 142.684 35.08C153.734 35.08 162.466 38.484 168.88 45.292C175.293 52.0013 178.5 61.9173 178.5 75.04C178.5 76.3227 178.45 77.7533 178.352 79.332C178.253 80.812 178.154 82.144 178.056 83.328H128.032C128.525 87.8667 130.646 91.468 134.396 94.132C138.145 96.796 143.177 98.128 149.492 98.128C153.537 98.128 157.484 97.7827 161.332 97.092C165.278 96.3027 168.485 95.3653 170.952 94.28L173.912 112.188C172.728 112.78 171.149 113.372 169.176 113.964C167.202 114.556 164.982 115.049 162.516 115.444C160.148 115.937 157.582 116.332 154.82 116.628C152.057 116.924 149.294 117.072 146.532 117.072C139.526 117.072 133.409 116.036 128.18 113.964C123.049 111.892 118.757 109.08 115.304 105.528C111.949 101.877 109.433 97.5853 107.756 92.652C106.177 87.7187 105.388 82.3907 105.388 76.668ZM157.188 68.232C157.089 66.3573 156.744 64.532 156.152 62.756C155.658 60.98 154.82 59.4013 153.636 58.02C152.55 56.6387 151.12 55.504 149.344 54.616C147.666 53.728 145.545 53.284 142.98 53.284C140.513 53.284 138.392 53.728 136.616 54.616C134.84 55.4053 133.36 56.4907 132.176 57.872C130.992 59.2533 130.054 60.8813 129.364 62.756C128.772 64.532 128.328 66.3573 128.032 68.232H157.188ZM223.637 116.48C217.224 116.381 211.995 115.691 207.949 114.408C204.003 113.125 200.845 111.349 198.477 109.08C196.208 106.712 194.629 103.9 193.741 100.644C192.952 97.2893 192.557 93.54 192.557 89.396V3.70399L214.609 0.151997V84.956C214.609 86.9293 214.757 88.7053 215.053 90.284C215.349 91.8627 215.892 93.1947 216.681 94.28C217.569 95.3653 218.803 96.2533 220.381 96.944C221.96 97.6347 224.081 98.0787 226.745 98.276L223.637 116.48ZM267.505 116.48C261.092 116.381 255.863 115.691 251.817 114.408C247.871 113.125 244.713 111.349 242.345 109.08C240.076 106.712 238.497 103.9 237.609 100.644C236.82 97.2893 236.425 93.54 236.425 89.396V3.70399L258.477 0.151997V84.956C258.477 86.9293 258.625 88.7053 258.921 90.284C259.217 91.8627 259.76 93.1947 260.549 94.28C261.437 95.3653 262.671 96.2533 264.249 96.944C265.828 97.6347 267.949 98.0787 270.613 98.276L267.505 116.48ZM353.109 75.928C353.109 82.0453 352.221 87.6693 350.445 92.8C348.669 97.832 346.104 102.173 342.749 105.824C339.395 109.376 335.349 112.139 330.613 114.112C325.976 116.085 320.747 117.072 314.925 117.072C309.203 117.072 303.973 116.085 299.237 114.112C294.6 112.139 290.604 109.376 287.249 105.824C283.895 102.173 281.28 97.832 279.405 92.8C277.531 87.6693 276.593 82.0453 276.593 75.928C276.593 69.8107 277.531 64.236 279.405 59.204C281.379 54.172 284.043 49.88 287.397 46.328C290.851 42.776 294.896 40.0133 299.533 38.04C304.269 36.0667 309.4 35.08 314.925 35.08C320.549 35.08 325.68 36.0667 330.317 38.04C335.053 40.0133 339.099 42.776 342.453 46.328C345.808 49.88 348.423 54.172 350.297 59.204C352.172 64.236 353.109 69.8107 353.109 75.928ZM330.613 75.928C330.613 69.12 329.232 63.792 326.469 59.944C323.805 55.9973 319.957 54.024 314.925 54.024C309.893 54.024 305.996 55.9973 303.233 59.944C300.471 63.792 299.089 69.12 299.089 75.928C299.089 82.736 300.471 88.1627 303.233 92.208C305.996 96.1547 309.893 98.128 314.925 98.128C319.957 98.128 323.805 96.1547 326.469 92.208C329.232 88.1627 330.613 82.736 330.613 75.928ZM4.84 141.436H27.928V244H4.84V141.436ZM109.571 228.608C111.741 228.608 113.813 228.559 115.787 228.46C117.76 228.361 119.339 228.213 120.523 228.016V211.292C119.635 211.095 118.303 210.897 116.527 210.7C114.751 210.503 113.123 210.404 111.643 210.404C109.571 210.404 107.597 210.552 105.723 210.848C103.947 211.045 102.368 211.489 100.987 212.18C99.6055 212.871 98.5201 213.808 97.7308 214.992C96.9415 216.176 96.5468 217.656 96.5468 219.432C96.5468 222.885 97.6815 225.303 99.9508 226.684C102.319 227.967 105.525 228.608 109.571 228.608ZM107.795 164.08C114.307 164.08 119.733 164.82 124.075 166.3C128.416 167.78 131.869 169.901 134.435 172.664C137.099 175.427 138.973 178.781 140.059 182.728C141.144 186.675 141.687 191.065 141.687 195.9V241.78C138.529 242.471 134.139 243.26 128.515 244.148C122.891 245.135 116.083 245.628 108.091 245.628C103.059 245.628 98.4708 245.184 94.3268 244.296C90.2815 243.408 86.7788 241.977 83.8188 240.004C80.8588 237.932 78.5895 235.268 77.0108 232.012C75.4321 228.756 74.6428 224.76 74.6428 220.024C74.6428 215.485 75.5308 211.637 77.3068 208.48C79.1815 205.323 81.6481 202.807 84.7068 200.932C87.7655 199.057 91.2681 197.725 95.2148 196.936C99.1615 196.048 103.256 195.604 107.499 195.604C110.36 195.604 112.876 195.752 115.047 196.048C117.316 196.245 119.141 196.541 120.523 196.936V194.864C120.523 191.115 119.388 188.105 117.119 185.836C114.849 183.567 110.903 182.432 105.279 182.432C101.529 182.432 97.8295 182.728 94.1788 183.32C90.5281 183.813 87.3708 184.553 84.7068 185.54L81.8948 167.78C83.1775 167.385 84.7561 166.991 86.6308 166.596C88.6041 166.103 90.7255 165.708 92.9948 165.412C95.2641 165.017 97.6321 164.721 100.099 164.524C102.664 164.228 105.229 164.08 107.795 164.08ZM201.439 202.708C201.439 195.604 200.502 190.572 198.627 187.612C196.851 184.652 193.743 183.172 189.303 183.172C187.922 183.172 186.491 183.271 185.011 183.468C183.531 183.567 182.101 183.715 180.719 183.912V244H158.667V168.816C160.542 168.323 162.713 167.829 165.179 167.336C167.745 166.744 170.409 166.251 173.171 165.856C176.033 165.363 178.943 165.017 181.903 164.82C184.863 164.524 187.774 164.376 190.635 164.376C196.259 164.376 200.798 165.116 204.251 166.596C207.803 167.977 210.714 169.655 212.983 171.628C216.141 169.359 219.742 167.583 223.788 166.3C227.932 165.017 231.73 164.376 235.183 164.376C241.399 164.376 246.481 165.264 250.428 167.04C254.473 168.717 257.679 171.135 260.048 174.292C262.416 177.449 264.044 181.199 264.932 185.54C265.82 189.881 266.264 194.716 266.264 200.044V244H244.211V202.708C244.211 195.604 243.274 190.572 241.399 187.612C239.623 184.652 236.515 183.172 232.076 183.172C230.891 183.172 229.214 183.468 227.043 184.06C224.971 184.652 223.245 185.392 221.863 186.28C222.554 188.549 222.998 190.967 223.196 193.532C223.393 195.999 223.491 198.663 223.491 201.524V244H201.439V202.708ZM54.864 288.196C44.1093 288.196 36.3147 291.205 31.48 297.224C26.744 303.144 24.376 311.284 24.376 321.644C24.376 326.676 24.968 331.264 26.152 335.408C27.336 339.453 29.112 342.956 31.48 345.916C33.848 348.876 36.808 351.195 40.36 352.872C43.912 354.451 48.056 355.24 52.792 355.24C55.3573 355.24 57.528 355.191 59.304 355.092C61.1787 354.993 62.8067 354.796 64.188 354.5V318.832H87.276V369.596C84.5133 370.681 80.0733 371.816 73.956 373C67.8387 374.283 60.2907 374.924 51.312 374.924C43.616 374.924 36.6107 373.74 30.296 371.372C24.08 369.004 18.752 365.551 14.312 361.012C9.872 356.473 6.41867 350.899 3.952 344.288C1.584 337.677 0.4 330.129 0.4 321.644C0.4 313.06 1.732 305.463 4.396 298.852C7.06 292.241 10.7107 286.667 15.348 282.128C19.9853 277.491 25.412 273.988 31.628 271.62C37.9427 269.252 44.652 268.068 51.756 268.068C56.5907 268.068 60.932 268.413 64.78 269.104C68.7267 269.696 72.0813 270.436 74.844 271.324C77.7053 272.113 80.024 272.952 81.8 273.84C83.6747 274.728 85.0067 275.419 85.796 275.912L79.136 294.412C75.9787 292.735 72.328 291.304 68.184 290.12C64.1387 288.837 59.6987 288.196 54.864 288.196ZM134.066 357.608C136.237 357.608 138.309 357.559 140.282 357.46C142.255 357.361 143.834 357.213 145.018 357.016V340.292C144.13 340.095 142.798 339.897 141.022 339.7C139.246 339.503 137.618 339.404 136.138 339.404C134.066 339.404 132.093 339.552 130.218 339.848C128.442 340.045 126.863 340.489 125.482 341.18C124.101 341.871 123.015 342.808 122.226 343.992C121.437 345.176 121.042 346.656 121.042 348.432C121.042 351.885 122.177 354.303 124.446 355.684C126.814 356.967 130.021 357.608 134.066 357.608ZM132.29 293.08C138.802 293.08 144.229 293.82 148.57 295.3C152.911 296.78 156.365 298.901 158.93 301.664C161.594 304.427 163.469 307.781 164.554 311.728C165.639 315.675 166.182 320.065 166.182 324.9V370.78C163.025 371.471 158.634 372.26 153.01 373.148C147.386 374.135 140.578 374.628 132.586 374.628C127.554 374.628 122.966 374.184 118.822 373.296C114.777 372.408 111.274 370.977 108.314 369.004C105.354 366.932 103.085 364.268 101.506 361.012C99.9273 357.756 99.138 353.76 99.138 349.024C99.138 344.485 100.026 340.637 101.802 337.48C103.677 334.323 106.143 331.807 109.202 329.932C112.261 328.057 115.763 326.725 119.71 325.936C123.657 325.048 127.751 324.604 131.994 324.604C134.855 324.604 137.371 324.752 139.542 325.048C141.811 325.245 143.637 325.541 145.018 325.936V323.864C145.018 320.115 143.883 317.105 141.614 314.836C139.345 312.567 135.398 311.432 129.774 311.432C126.025 311.432 122.325 311.728 118.674 312.32C115.023 312.813 111.866 313.553 109.202 314.54L106.39 296.78C107.673 296.385 109.251 295.991 111.126 295.596C113.099 295.103 115.221 294.708 117.49 294.412C119.759 294.017 122.127 293.721 124.594 293.524C127.159 293.228 129.725 293.08 132.29 293.08ZM249.615 370.336C245.865 371.421 241.031 372.408 235.111 373.296C229.191 374.283 222.975 374.776 216.463 374.776C209.852 374.776 204.327 373.888 199.887 372.112C195.545 370.336 192.092 367.869 189.527 364.712C186.961 361.456 185.136 357.608 184.051 353.168C182.965 348.728 182.423 343.844 182.423 338.516V295.152H204.475V335.852C204.475 342.956 205.412 348.087 207.287 351.244C209.161 354.401 212.664 355.98 217.795 355.98C219.373 355.98 221.051 355.931 222.827 355.832C224.603 355.635 226.181 355.437 227.563 355.24V295.152H249.615V370.336ZM266.615 275.764L288.667 272.212V295.152H315.159V313.504H288.667V340.884C288.667 345.521 289.456 349.221 291.035 351.984C292.712 354.747 296.018 356.128 300.951 356.128C303.319 356.128 305.736 355.931 308.203 355.536C310.768 355.043 313.087 354.401 315.159 353.612L318.267 370.78C315.603 371.865 312.643 372.803 309.387 373.592C306.131 374.381 302.135 374.776 297.399 374.776C291.38 374.776 286.398 373.987 282.451 372.408C278.504 370.731 275.347 368.461 272.979 365.6C270.611 362.64 268.934 359.088 267.947 354.944C267.059 350.8 266.615 346.212 266.615 341.18V275.764ZM357.014 357.608C359.185 357.608 361.257 357.559 363.23 357.46C365.203 357.361 366.782 357.213 367.966 357.016V340.292C367.078 340.095 365.746 339.897 363.97 339.7C362.194 339.503 360.566 339.404 359.086 339.404C357.014 339.404 355.041 339.552 353.166 339.848C351.39 340.045 349.811 340.489 348.43 341.18C347.049 341.871 345.963 342.808 345.174 343.992C344.385 345.176 343.99 346.656 343.99 348.432C343.99 351.885 345.125 354.303 347.394 355.684C349.762 356.967 352.969 357.608 357.014 357.608ZM355.238 293.08C361.75 293.08 367.177 293.82 371.518 295.3C375.859 296.78 379.313 298.901 381.878 301.664C384.542 304.427 386.417 307.781 387.502 311.728C388.587 315.675 389.13 320.065 389.13 324.9V370.78C385.973 371.471 381.582 372.26 375.958 373.148C370.334 374.135 363.526 374.628 355.534 374.628C350.502 374.628 345.914 374.184 341.77 373.296C337.725 372.408 334.222 370.977 331.262 369.004C328.302 366.932 326.033 364.268 324.454 361.012C322.875 357.756 322.086 353.76 322.086 349.024C322.086 344.485 322.974 340.637 324.75 337.48C326.625 334.323 329.091 331.807 332.15 329.932C335.209 328.057 338.711 326.725 342.658 325.936C346.605 325.048 350.699 324.604 354.942 324.604C357.803 324.604 360.319 324.752 362.49 325.048C364.759 325.245 366.585 325.541 367.966 325.936V323.864C367.966 320.115 366.831 317.105 364.562 314.836C362.293 312.567 358.346 311.432 352.722 311.432C348.973 311.432 345.273 311.728 341.622 312.32C337.971 312.813 334.814 313.553 332.15 314.54L329.338 296.78C330.621 296.385 332.199 295.991 334.074 295.596C336.047 295.103 338.169 294.708 340.438 294.412C342.707 294.017 345.075 293.721 347.542 293.524C350.107 293.228 352.673 293.08 355.238 293.08ZM448.883 331.708C448.883 324.604 447.945 319.572 446.071 316.612C444.295 313.652 441.187 312.172 436.747 312.172C435.365 312.172 433.935 312.271 432.455 312.468C430.975 312.567 429.544 312.715 428.163 312.912V373H406.111V297.816C407.985 297.323 410.156 296.829 412.623 296.336C415.188 295.744 417.852 295.251 420.615 294.856C423.476 294.363 426.387 294.017 429.347 293.82C432.307 293.524 435.217 293.376 438.079 293.376C443.703 293.376 448.241 294.116 451.695 295.596C455.247 296.977 458.157 298.655 460.427 300.628C463.584 298.359 467.185 296.583 471.231 295.3C475.375 294.017 479.173 293.376 482.627 293.376C488.843 293.376 493.924 294.264 497.871 296.04C501.916 297.717 505.123 300.135 507.491 303.292C509.859 306.449 511.487 310.199 512.375 314.54C513.263 318.881 513.707 323.716 513.707 329.044V373H491.655V331.708C491.655 324.604 490.717 319.572 488.843 316.612C487.067 313.652 483.959 312.172 479.519 312.172C478.335 312.172 476.657 312.468 474.487 313.06C472.415 313.652 470.688 314.392 469.307 315.28C469.997 317.549 470.441 319.967 470.639 322.532C470.836 324.999 470.935 327.663 470.935 330.524V373H448.883V331.708Z" fill="white"/>
<path d="M388.84 103.308C388.84 107.748 387.409 111.152 384.548 113.52C381.785 115.789 378.628 116.924 375.076 116.924C371.524 116.924 368.317 115.789 365.456 113.52C362.693 111.152 361.312 107.748 361.312 103.308C361.312 98.868 362.693 95.5133 365.456 93.244C368.317 90.876 371.524 89.692 375.076 89.692C378.628 89.692 381.785 90.876 384.548 93.244C387.409 95.5133 388.84 98.868 388.84 103.308Z" fill="#03A9F4"/>
</svg>
