<svg xmlns="http://www.w3.org/2000/svg" viewBox="0 0 225.9 40.3"><defs><style>.cls-1{fill:#fff;}</style></defs><title>mglogo</title><g id="Layer_2" data-name="Layer 2"><g id="Layer_2-2" data-name="Layer 2"><path class="cls-1" d="M23.6,9.4a7.7,7.7,0,0,0-6.5,3.3,6.6,6.6,0,0,0-6.2-3.3,7.4,7.4,0,0,0-5.3,2.3V9.8H0v22H5.6V20.4c0-2.8,1.1-6.2,4.2-6.2,1.5,0,3,.6,3,4.9V31.8h5.6V20.4c0-2.8,1.1-6.2,4.2-6.2s3.1,1.5,3.1,4.9V31.8h5.5V18.6C31.3,11,27.1,9.4,23.6,9.4Z"/><path class="cls-1" d="M68.2,9.4c-6.5,0-11.2,4.8-11.2,11.4s4.4,11.5,11,11.5a13.4,13.4,0,0,0,9.5-3.4l.6-.5L75.6,25l-.6.4-.2.2a10.5,10.5,0,0,1-6.2,2.1,5.6,5.6,0,0,1-5.9-5.2H78.7V20A10.2,10.2,0,0,0,68.2,9.4Zm-.1,4.4a5.2,5.2,0,0,1,5.2,4.5H62.8A5.3,5.3,0,0,1,68.1,13.8Z"/><path class="cls-1" d="M90.5,27.3c-1,0-1.3-.3-1.5-.7a7.9,7.9,0,0,1-.4-3.4V14.6h4.9V9.9H88.5V3.7H83V9.9h-3v4.7h3v8.7c0,3.3.2,5.1,1.2,6.6a5.6,5.6,0,0,0,5,2.4,11.1,11.1,0,0,0,4.1-.8l.5-.2-.4-4.9A4.4,4.4,0,0,1,90.5,27.3Z"/><path class="cls-1" d="M120.4,24l1.5-2.1-3.3-3.8-1.5,2.3-4.7-5.6c3.7-2.3,5.6-4.9,5.6-7.8s-3.3-7-8.2-7-8.3,2.9-8.3,7.1,1.6,5,3,6.6c-3.7,2-7.5,4.6-7.5,9.5s4,9.1,10,9.1c4.4,0,7.3-1.8,10.1-4.5l3.4,4h6.7ZM109.9,4.4c1.1,0,2.9.3,2.9,2.6s-2.2,3.5-3.6,4.4l-.8-1a5.2,5.2,0,0,1-1.5-3.2A2.7,2.7,0,0,1,109.9,4.4Zm-2.3,23.2a4.6,4.6,0,0,1-4.9-4.6c0-2.7,2.1-4.2,4.3-5.4l.8-.4,6.1,7.1C112.7,25.7,110.3,27.6,107.5,27.6Z"/><path class="cls-1" d="M144.1,11.9a9.2,9.2,0,0,0-6.6-2.5c-7,0-10.6,5.6-10.6,11.1s3.7,11.1,10.6,11.1A9.2,9.2,0,0,0,144,29a7.7,7.7,0,0,1-1.4,4.5c-.6.7-2,2-5.1,2a12.3,12.3,0,0,1-6.9-2.4l-2.8,4a16.3,16.3,0,0,0,9.5,3.2c4.3,0,7.4-1.4,9.7-4.2s2.4-4.8,2.4-9.3V9.8H144Zm.1,8.6c0,3.8-2.3,6.3-5.9,6.3s-5.9-2.5-5.9-6.3,2.3-6.3,5.9-6.3S144.2,16.6,144.2,20.5Z"/><path class="cls-1" d="M164.2,9.9a7.1,7.1,0,0,0-2.6-.5,5.9,5.9,0,0,0-4.5,2V9.8h-5.6v22h5.6v-11c0-9.7,7-5.8,7-5.8Z"/><path class="cls-1" d="M44.5,9.4c-6.5,0-11.2,4.8-11.2,11.4s4.4,11.5,11,11.5a13.4,13.4,0,0,0,9.5-3.4l.6-.5L51.9,25l-.6.4-.2.2a10.5,10.5,0,0,1-6.2,2.1A5.6,5.6,0,0,1,39,22.5H55V20A10.2,10.2,0,0,0,44.5,9.4Zm-.1,4.4a5.2,5.2,0,0,1,5.2,4.5H39.1A5.3,5.3,0,0,1,44.4,13.8Z"/><path class="cls-1" d="M200.5,9.4c-6.5,0-11.2,4.8-11.2,11.4s4.4,11.5,11,11.5a13.4,13.4,0,0,0,9.5-3.4l.6-.5L207.9,25l-.6.4-.2.2a10.5,10.5,0,0,1-6.2,2.1,5.6,5.6,0,0,1-5.9-5.2H211V20A10.2,10.2,0,0,0,200.5,9.4Zm-.1,4.4a5.2,5.2,0,0,1,5.2,4.5H195.1A5.3,5.3,0,0,1,200.4,13.8Z"/><path class="cls-1" d="M224.6,26.9a4.4,4.4,0,0,1-1.8.4c-1,0-1.3-.3-1.5-.7a7.9,7.9,0,0,1-.4-3.4V14.6h4.9V9.9h-4.9V3.7h-5.6V9.9h-3v4.7h3v8.7c0,3.3.2,5.1,1.2,6.6a5.6,5.6,0,0,0,5,2.4,11.1,11.1,0,0,0,4.1-.8l.5-.2-.4-4.9Z"/><path class="cls-1" d="M176.8,9.4c-6.5,0-11.2,4.8-11.2,11.4s4.4,11.5,11,11.5a13.4,13.4,0,0,0,9.5-3.4l.6-.5L184.2,25l-.6.4-.2.2a10.5,10.5,0,0,1-6.2,2.1,5.6,5.6,0,0,1-5.9-5.2h15.9V20A10.2,10.2,0,0,0,176.8,9.4Zm-.1,4.4a5.2,5.2,0,0,1,5.2,4.5H171.4A5.3,5.3,0,0,1,176.7,13.8Z"/></g></g></svg>