<svg xmlns="http://www.w3.org/2000/svg" viewBox="0 0 452.2 372"><defs><style>.cls-1{fill:#fff;}.cls-2{fill:#00aeef;}</style></defs><title>mwelllogo</title><g id="Layer_2" data-name="Layer 2"><g id="Layer_1-2" data-name="Layer 1"><path class="cls-1" d="M276,295.1a124.7,124.7,0,0,1-45.6-8.7,4.9,4.9,0,0,1-2.9-3.3c-4.4-16.7-14.8-74.6,38-121.2,50-44,140.6-64.4,177.3-71.1h.9a4.9,4.9,0,0,1,4.7,6.4c-11.3,35.5-43,122.8-93,166.8C332,284.6,305.3,295.1,276,295.1Z"/><path class="cls-2" d="M443.8,94.2a1.4,1.4,0,0,1,1.1.6,1.4,1.4,0,0,1,.2,1.3,604.6,604.6,0,0,1-31.5,79c-18.8,38.5-39.2,67.5-60.5,86.3s-48.7,30.2-77.2,30.2a121.1,121.1,0,0,1-44.2-8.4,1.4,1.4,0,0,1-.8-.9,121,121,0,0,1-2.4-47.4c4.1-27.2,17.3-50.9,39.4-70.3s52.7-35.3,93.2-49.1a604.6,604.6,0,0,1,82.3-21.2h.3m0-7h-1.6c-34.7,6.4-127.9,27-179,71.9-54.8,48.3-43.3,108.9-39.1,124.7a8.4,8.4,0,0,0,4.9,5.6,127.4,127.4,0,0,0,46.9,9c23.9,0,53.4-6.9,81.8-32,51.1-45,83.3-134.8,94-168.4a8.4,8.4,0,0,0-8-11Z"/><path class="cls-1" d="M234.9,295.1h-5a4.9,4.9,0,0,1-3.8-2.1c-9.7-14.3-38.7-65.5-4.2-127C254.5,107.8,333.3,58.6,365.7,40.1a4.9,4.9,0,0,1,2.4-.7,4.9,4.9,0,0,1,4.9,4.8c1.1,37.2.1,130.1-32.6,188.2C308.7,289,256.1,295.1,234.9,295.1Z"/><path class="cls-2" d="M368.1,43a1.5,1.5,0,0,1,1.4,1.4,604.6,604.6,0,0,1-3.6,85c-5,42.5-14.6,76.7-28.5,101.4-30.8,54.9-82,60.8-102.5,60.8H230a1.4,1.4,0,0,1-1.1-.6A121,121,0,0,1,211,247c-5.2-27-.5-53.7,13.9-79.4s38.1-50.7,71.8-77.2a604.6,604.6,0,0,1,70.7-47.3l.7-.2m0-7a8.4,8.4,0,0,0-4.2,1.1c-30.7,17.5-111.8,67.7-145.1,127.1-35.8,63.7-4.9,117.1,4.4,130.6a8.4,8.4,0,0,0,6.5,3.6h5.2c21.6,0,75.9-6.2,108.6-64.4s34-154.7,33-190a8.4,8.4,0,0,0-8.4-8.2Z"/><path class="cls-1" d="M176.2,295.1c-29.3,0-56.1-10.5-79.5-31.1C46.7,220,15,132.7,3.7,97.2a4.9,4.9,0,0,1,4.7-6.4h.9c36.6,6.7,127.3,27.1,177.3,71.1,52.9,46.6,42.5,104.5,38,121.2a4.9,4.9,0,0,1-2.9,3.3,124.7,124.7,0,0,1-45.6,8.7Z"/><path class="cls-2" d="M8.4,94.2h.3a604.6,604.6,0,0,1,82.3,21.2c40.5,13.8,71.9,30.3,93.2,49.1s35.3,43.1,39.4,70.3a121,121,0,0,1-2.4,47.4,1.4,1.4,0,0,1-.8.9,121.1,121.1,0,0,1-44.2,8.4c-28.4,0-54.4-10.2-77.2-30.2s-41.7-47.8-60.5-86.3a604.6,604.6,0,0,1-31.5-79,1.4,1.4,0,0,1,.2-1.3,1.4,1.4,0,0,1,1.1-.6m0-7a8.4,8.4,0,0,0-8,11c10.7,33.6,42.9,123.4,94,168.4,28.4,25,57.9,32,81.8,32a127.4,127.4,0,0,0,46.9-9,8.4,8.4,0,0,0,4.9-5.6c4.2-15.8,15.7-76.5-39.1-124.7-51.1-45-144.2-65.6-179-71.9Z"/><path class="cls-1" d="M217.3,295.1c-21.2,0-73.9-6.1-105.6-62.6C79.1,174.4,78,81.5,79.1,44.3a4.9,4.9,0,0,1,4.9-4.8,4.9,4.9,0,0,1,2.4.7c32.4,18.5,111.1,67.7,143.8,125.8,34.5,61.4,5.5,112.7-4.2,127a4.9,4.9,0,0,1-3.8,2.1h-5Z"/><path class="cls-2" d="M84.1,43l.7.2a604.6,604.6,0,0,1,70.7,47.3c33.7,26.4,57.8,52.4,71.8,77.2S246.3,220,241.1,247a121,121,0,0,1-18,43.9,1.4,1.4,0,0,1-1.1.6h-4.8c-20.6,0-71.7-5.9-102.5-60.8C100.8,206,91.2,171.9,86.2,129.3a604.6,604.6,0,0,1-3.6-85A1.5,1.5,0,0,1,84.1,43m0-7a8.4,8.4,0,0,0-8.4,8.2c-1,35.3-.3,130.7,33,190s87,64.4,108.6,64.4h5.2a8.4,8.4,0,0,0,6.5-3.6c9.2-13.6,40.1-67,4.4-130.6C200,104.8,118.9,54.6,88.2,37.1A8.4,8.4,0,0,0,84.1,36Z"/><path class="cls-1" d="M226.2,295.1a4.9,4.9,0,0,1-2.2-.5c-15.4-7.7-65.8-38.2-65.8-108.6,0-66.6,44.6-148.1,63.8-180.1a4.9,4.9,0,0,1,8.5,0c19.2,31.9,63.8,113.4,63.8,180.1,0,70.5-50.4,101-65.8,108.6A4.9,4.9,0,0,1,226.2,295.1Z"/><path class="cls-2" d="M226.2,7a1.4,1.4,0,0,1,1.2.7,604.6,604.6,0,0,1,38.5,75.8c16.4,39.5,24.8,74,24.8,102.4s-9,55-26.7,76a121,121,0,0,1-37.2,29.5h-1.2A121,121,0,0,1,188.4,262c-17.7-21-26.7-46.6-26.7-76s8.3-62.9,24.8-102.4A604.6,604.6,0,0,1,224.9,7.7a1.4,1.4,0,0,1,1.2-.7m0-7a8.4,8.4,0,0,0-7.2,4.1c-18.2,30.3-64.3,113.8-64.3,181.9,0,73.1,53.1,104.5,67.8,111.8a8.4,8.4,0,0,0,7.5,0c14.7-7.3,67.8-38.7,67.8-111.8,0-68.1-46.1-151.6-64.3-181.9A8.4,8.4,0,0,0,226.2,0Z"/><path class="cls-1" d="M125.7,350.8q0-5.5-1.4-7.8t-4.8-2.3h-2.2l-2.2.3V372H103.8V333.4l3.4-.8,4.1-.8,4.4-.5,4.5-.2a18.9,18.9,0,0,1,7,1.1,15.9,15.9,0,0,1,4.4,2.6,21.2,21.2,0,0,1,11.4-3.7,20,20,0,0,1,7.9,1.3,11.9,11.9,0,0,1,4.9,3.8,14.2,14.2,0,0,1,2.5,5.8,37.2,37.2,0,0,1,.7,7.4V372H147.7V350.8q0-5.5-1.4-7.8t-4.8-2.3a10.2,10.2,0,0,0-2.5.5,9.9,9.9,0,0,0-2.7,1.1,17.3,17.3,0,0,1,.7,3.7q.2,1.9.2,4.1V372H125.7Z"/><path class="cls-1" d="M205.8,325q.2,3.1.4,7.1t.6,8.2q.3,4.2.7,8.4t.8,7.8q2-3.9,4-8.4t4.1-9.3l4.1-9.7,3.8-9.7h12.5q-5.9,14.4-12.1,27.5T211.6,372H200.5q-.6-4.2-1.1-8t-.9-7.6q-.4-3.7-.8-7.5t-.6-7.9l-8.5,15.8q-4.2,7.7-9,15.2H168.4q-.6-7.1-.9-14t-.3-14.1q0-6.2.2-12.3t.6-12.3h11.9q-.4,6.7-.7,13.1t-.3,13.3v5.2q0,2.7.2,5.3l4.5-7.9,4.6-8.4,4.3-8.1q2.1-3.9,3.5-7Z"/><path class="cls-1" d="M232,372l12.6-52.7H279l-2.4,9.7H254l-2.4,10.6h19.9l-2.4,9.6H249.2l-3,12.9h24.3l-2.4,9.8Z"/><path class="cls-1" d="M314.7,362l-2.4,10H277.1l12.6-52.7h11.9L291.3,362Z"/><path class="cls-1" d="M356.9,362l-2.4,10H319.4L332,319.4h11.9L333.6,362Z"/></g></g></svg>