<svg id="Layer_1" data-name="Layer 1" xmlns="http://www.w3.org/2000/svg" viewBox="0 0 3800.37 1565.85"><defs><style>.cls-1,.cls-3{fill:#00aeef;}.cls-2,.cls-4{fill:#fff;}.cls-3{stroke:#fff;stroke-opacity:0;stroke-width:14px;}.cls-3,.cls-4,.cls-5{stroke-miterlimit:10;}.cls-4,.cls-5{stroke:#000;}.cls-4{stroke-width:7px;}.cls-5{fill:none;stroke-width:12px;}.cls-5,.cls-6{opacity:0;}</style></defs><title>mwelllogo</title><rect class="cls-1" x="2879.88" width="920.49" height="662.69"/><path class="cls-1" d="M501.79,420.39a124.73,124.73,0,0,1-45.57-8.7,4.9,4.9,0,0,1-2.86-3.25c-4.45-16.66-14.84-74.65,38-121.2,50-44,140.63-64.4,177.28-71.12a5.2,5.2,0,0,1,.93-.09,4.94,4.94,0,0,1,4.66,6.44c-11.31,35.5-43,122.82-93,166.84C557.84,409.93,531.1,420.39,501.79,420.39Z" transform="translate(2022.05)"/><path class="cls-2" d="M669.6,219.52a1.42,1.42,0,0,1,1.13.61,1.35,1.35,0,0,1,.2,1.27,604.57,604.57,0,0,1-31.49,79c-18.81,38.47-39.16,67.5-60.49,86.28-22.77,20-48.73,30.21-77.16,30.21a121.09,121.09,0,0,1-44.25-8.44,1.38,1.38,0,0,1-.81-.92,121,121,0,0,1-2.43-47.37c4.05-27.2,17.31-50.85,39.4-70.3,21.33-18.78,52.7-35.29,93.25-49.08a604.56,604.56,0,0,1,82.35-21.23l.3,0m0-7a8.66,8.66,0,0,0-1.56.14c-34.72,6.37-127.87,27-179,71.94C434.25,332.88,445.74,393.49,450,409.34a8.38,8.38,0,0,0,4.92,5.59,127.44,127.44,0,0,0,46.89,9c23.9,0,53.36-6.92,81.79-32,51.09-45,83.31-134.77,94-168.41a8.44,8.44,0,0,0-8-11Z" transform="translate(2022.05)"/><path class="cls-1" d="M460.72,420.39c-1.73,0-3.42,0-5-.12a4.9,4.9,0,0,1-3.78-2.12c-9.71-14.25-38.7-65.53-4.19-127,32.62-58.08,111.41-107.3,143.77-125.76a4.86,4.86,0,0,1,2.43-.66,4.93,4.93,0,0,1,4.95,4.8c1.07,37.24,0,130.13-32.57,188.21C534.57,414.28,481.89,420.39,460.72,420.39Z" transform="translate(2022.05)"/><path class="cls-2" d="M593.93,168.26a1.46,1.46,0,0,1,1.45,1.4,604.56,604.56,0,0,1-3.58,85c-5,42.53-14.63,76.66-28.54,101.43-30.83,54.9-82,60.82-102.54,60.82-1.67,0-3.3,0-4.83-.12a1.38,1.38,0,0,1-1.06-.6,121,121,0,0,1-18-43.9c-5.17-27-.49-53.72,13.93-79.38,13.92-24.78,38.06-50.74,71.76-77.16a604.56,604.56,0,0,1,70.69-47.27,1.38,1.38,0,0,1,.7-.2m0-7a8.36,8.36,0,0,0-4.16,1.12C559.11,179.87,478,230.11,444.68,289.46c-35.77,63.69-4.88,117.09,4.35,130.65a8.38,8.38,0,0,0,6.5,3.65c1.41.07,3.15.13,5.19.13,21.61,0,75.95-6.19,108.64-64.4,33.34-59.35,34-154.74,33-190a8.45,8.45,0,0,0-8.45-8.2Z" transform="translate(2022.05)"/><path class="cls-1" d="M402,420.39c-29.31,0-56.05-10.46-79.47-31.08-50-44-81.69-131.34-93-166.84a4.94,4.94,0,0,1,4.66-6.44,5.2,5.2,0,0,1,.93.09c36.65,6.72,127.28,27.1,177.28,71.12,52.88,46.56,42.49,104.54,38,121.2a4.9,4.9,0,0,1-2.87,3.25,124.73,124.73,0,0,1-45.57,8.7Z" transform="translate(2022.05)"/><path class="cls-2" d="M234.24,219.52l.3,0a604.56,604.56,0,0,1,82.35,21.23c40.55,13.79,71.92,30.3,93.25,49.08,22.09,19.45,35.35,43.11,39.4,70.3a121,121,0,0,1-2.43,47.37,1.38,1.38,0,0,1-.81.92A121.09,121.09,0,0,1,402,416.89c-28.44,0-54.4-10.16-77.16-30.21-21.33-18.78-41.68-47.81-60.49-86.28a604.56,604.56,0,0,1-31.49-79,1.35,1.35,0,0,1,.2-1.27,1.42,1.42,0,0,1,1.13-.61m0-7a8.44,8.44,0,0,0-8,11c10.71,33.63,42.93,123.42,94,168.41,28.43,25,57.89,32,81.79,32a127.44,127.44,0,0,0,46.89-9,8.38,8.38,0,0,0,4.92-5.59c4.23-15.84,15.72-76.46-39.11-124.73-51.09-45-144.24-65.57-179-71.94a8.65,8.65,0,0,0-1.56-.14Z" transform="translate(2022.05)"/><path class="cls-1" d="M443.12,420.39c-21.18,0-73.85-6.1-105.59-62.61-32.62-58.08-33.65-151-32.57-188.21a4.93,4.93,0,0,1,4.95-4.8,4.86,4.86,0,0,1,2.43.66c32.36,18.46,111.15,67.68,143.77,125.76,34.5,61.43,5.51,112.71-4.19,127a4.9,4.9,0,0,1-3.78,2.12c-1.59.08-3.28.12-5,.12Z" transform="translate(2022.05)"/><path class="cls-2" d="M309.9,168.26a1.38,1.38,0,0,1,.7.2,604.56,604.56,0,0,1,70.69,47.27c33.7,26.42,57.85,52.38,71.76,77.16,14.41,25.66,19.1,52.37,13.93,79.38a121,121,0,0,1-18,43.9,1.38,1.38,0,0,1-1.06.6c-1.54.08-3.16.12-4.83.12-20.56,0-71.71-5.93-102.54-60.82-13.92-24.78-23.52-58.9-28.54-101.43a604.56,604.56,0,0,1-3.58-85,1.46,1.46,0,0,1,1.45-1.4m0-7a8.45,8.45,0,0,0-8.45,8.2c-1,35.28-.32,130.68,33,190,32.69,58.21,87,64.4,108.64,64.4,2,0,3.78-.05,5.19-.13a8.38,8.38,0,0,0,6.5-3.65c9.23-13.55,40.13-67,4.35-130.65-33.34-59.35-114.43-109.59-145.09-127.08a8.36,8.36,0,0,0-4.16-1.12Z" transform="translate(2022.05)"/><path class="cls-1" d="M452,420.39a4.89,4.89,0,0,1-2.17-.51C434.39,412.2,384,381.69,384,311.23c0-66.62,44.6-148.11,63.77-180.05a4.94,4.94,0,0,1,8.46,0C475.4,163.12,520,244.62,520,311.23c0,70.46-50.39,101-65.83,108.64A4.89,4.89,0,0,1,452,420.39Z" transform="translate(2022.05)"/><path class="cls-2" d="M452,132.29a1.37,1.37,0,0,1,1.23.69,604.57,604.57,0,0,1,38.48,75.83c16.45,39.54,24.78,74,24.78,102.42,0,29.44-9,55-26.73,76a121,121,0,0,1-37.16,29.48,1.38,1.38,0,0,1-1.22,0,121,121,0,0,1-37.16-29.48c-17.74-21-26.73-46.6-26.73-76,0-28.42,8.34-62.87,24.78-102.42A604.57,604.57,0,0,1,450.77,133a1.37,1.37,0,0,1,1.23-.69m0-7a8.36,8.36,0,0,0-7.23,4.09C426.6,159.64,380.5,243.16,380.5,311.23c0,73.05,53.09,104.48,67.77,111.78a8.38,8.38,0,0,0,7.45,0c14.69-7.3,67.77-38.73,67.77-111.78,0-68.07-46.1-151.59-64.27-181.85a8.36,8.36,0,0,0-7.23-4.09Z" transform="translate(2022.05)"/><path class="cls-2" d="M1348.79,420.39a124.74,124.74,0,0,1-45.57-8.7,4.9,4.9,0,0,1-2.86-3.25c-4.45-16.66-14.84-74.65,38-121.2,50-44,140.63-64.4,177.28-71.12a5.21,5.21,0,0,1,.93-.09,4.94,4.94,0,0,1,4.66,6.44c-11.31,35.5-43,122.82-93,166.84C1404.84,409.93,1378.1,420.39,1348.79,420.39Z" transform="translate(2022.05)"/><path class="cls-1" d="M1516.6,219.52a1.42,1.42,0,0,1,1.13.61,1.35,1.35,0,0,1,.2,1.27,604.57,604.57,0,0,1-31.49,79c-18.81,38.47-39.16,67.5-60.49,86.28-22.77,20-48.73,30.21-77.16,30.21a121.09,121.09,0,0,1-44.25-8.44,1.38,1.38,0,0,1-.81-.92,121,121,0,0,1-2.43-47.37c4.05-27.2,17.31-50.85,39.4-70.3,21.33-18.78,52.7-35.29,93.25-49.08a604.57,604.57,0,0,1,82.35-21.23l.3,0m0-7a8.66,8.66,0,0,0-1.56.14c-34.72,6.37-127.87,27-179,71.94-54.83,48.27-43.34,108.89-39.11,124.73a8.38,8.38,0,0,0,4.92,5.59,127.44,127.44,0,0,0,46.89,9c23.9,0,53.36-6.92,81.79-32,51.09-45,83.31-134.77,94-168.41a8.44,8.44,0,0,0-8-11Z" transform="translate(2022.05)"/><path class="cls-2" d="M1307.72,420.39c-1.73,0-3.42,0-5-.12a4.9,4.9,0,0,1-3.78-2.12c-9.71-14.25-38.7-65.54-4.19-127,32.62-58.08,111.41-107.29,143.77-125.76a4.86,4.86,0,0,1,2.43-.66,4.93,4.93,0,0,1,4.95,4.8c1.07,37.24.05,130.13-32.57,188.21C1381.57,414.28,1328.89,420.39,1307.72,420.39Z" transform="translate(2022.05)"/><path class="cls-1" d="M1440.93,168.26a1.46,1.46,0,0,1,1.45,1.4,604.55,604.55,0,0,1-3.58,85c-5,42.53-14.63,76.66-28.54,101.43-30.83,54.9-82,60.82-102.54,60.82-1.67,0-3.3,0-4.83-.12a1.38,1.38,0,0,1-1.06-.6,121,121,0,0,1-18-43.9c-5.17-27-.49-53.72,13.93-79.38,13.92-24.78,38.06-50.74,71.76-77.16a604.56,604.56,0,0,1,70.69-47.27,1.38,1.38,0,0,1,.7-.2m0-7a8.36,8.36,0,0,0-4.16,1.12c-30.66,17.49-111.75,67.73-145.09,127.08-35.77,63.69-4.88,117.09,4.35,130.65a8.38,8.38,0,0,0,6.5,3.65c1.41.07,3.15.13,5.19.13,21.61,0,75.95-6.19,108.64-64.4,33.34-59.35,34-154.74,33-190a8.45,8.45,0,0,0-8.45-8.2Z" transform="translate(2022.05)"/><path class="cls-2" d="M1249,420.39c-29.31,0-56.05-10.46-79.48-31.08-50-44-81.69-131.34-93-166.84a4.94,4.94,0,0,1,4.66-6.44,5.21,5.21,0,0,1,.93.09c36.65,6.72,127.28,27.1,177.28,71.12,52.88,46.56,42.49,104.54,38,121.2a4.9,4.9,0,0,1-2.86,3.25,124.75,124.75,0,0,1-45.57,8.7Z" transform="translate(2022.05)"/><path class="cls-1" d="M1081.24,219.52l.3,0a604.56,604.56,0,0,1,82.35,21.23c40.55,13.79,71.92,30.3,93.25,49.08,22.09,19.45,35.35,43.11,39.4,70.3a121,121,0,0,1-2.43,47.37,1.38,1.38,0,0,1-.81.92,121.09,121.09,0,0,1-44.25,8.44c-28.44,0-54.4-10.16-77.16-30.21-21.33-18.78-41.68-47.81-60.49-86.28a604.55,604.55,0,0,1-31.49-79,1.35,1.35,0,0,1,.2-1.27,1.42,1.42,0,0,1,1.13-.61m0-7a8.44,8.44,0,0,0-8,11c10.71,33.63,42.93,123.42,94,168.41,28.43,25,57.89,32,81.79,32a127.44,127.44,0,0,0,46.89-9,8.38,8.38,0,0,0,4.92-5.59c4.23-15.84,15.72-76.46-39.11-124.73-51.09-45-144.24-65.57-179-71.94a8.65,8.65,0,0,0-1.56-.14Z" transform="translate(2022.05)"/><path class="cls-2" d="M1290.12,420.39c-21.18,0-73.85-6.1-105.59-62.61-32.62-58.08-33.65-151-32.57-188.21a4.93,4.93,0,0,1,4.95-4.8,4.86,4.86,0,0,1,2.43.66c32.36,18.46,111.15,67.68,143.77,125.76,34.5,61.43,5.51,112.71-4.19,127a4.9,4.9,0,0,1-3.78,2.12c-1.59.08-3.28.12-5,.12Z" transform="translate(2022.05)"/><path class="cls-1" d="M1156.9,168.26a1.38,1.38,0,0,1,.7.2,604.56,604.56,0,0,1,70.69,47.27c33.7,26.42,57.85,52.38,71.76,77.16,14.41,25.66,19.1,52.37,13.93,79.38a121,121,0,0,1-18,43.9,1.38,1.38,0,0,1-1.06.6c-1.54.08-3.16.12-4.83.12-20.56,0-71.71-5.93-102.54-60.82-13.92-24.78-23.52-58.9-28.54-101.43a604.56,604.56,0,0,1-3.58-85,1.46,1.46,0,0,1,1.45-1.4m0-7a8.45,8.45,0,0,0-8.45,8.2c-1,35.28-.32,130.68,33,190,32.69,58.21,87,64.4,108.64,64.4,2,0,3.78-.05,5.19-.13a8.38,8.38,0,0,0,6.5-3.65c9.23-13.55,40.13-67,4.35-130.65-33.34-59.35-114.43-109.59-145.09-127.08a8.36,8.36,0,0,0-4.16-1.12Z" transform="translate(2022.05)"/><path class="cls-2" d="M1299,420.39a4.9,4.9,0,0,1-2.17-.51c-15.44-7.67-65.83-38.19-65.83-108.64,0-66.62,44.59-148.11,63.77-180.05a4.94,4.94,0,0,1,8.46,0c19.17,31.94,63.77,113.43,63.77,180.05,0,70.45-50.39,101-65.83,108.64A4.89,4.89,0,0,1,1299,420.39Z" transform="translate(2022.05)"/><path class="cls-1" d="M1299,132.29a1.37,1.37,0,0,1,1.23.69,604.56,604.56,0,0,1,38.48,75.83c16.45,39.54,24.78,74,24.78,102.42,0,29.44-9,55-26.73,76a121,121,0,0,1-37.16,29.48,1.38,1.38,0,0,1-1.22,0,121,121,0,0,1-37.16-29.48c-17.74-21-26.73-46.6-26.73-76,0-28.42,8.34-62.87,24.78-102.42A604.56,604.56,0,0,1,1297.77,133a1.37,1.37,0,0,1,1.23-.69m0-7a8.36,8.36,0,0,0-7.23,4.09c-18.17,30.27-64.27,113.78-64.27,181.85,0,73.05,53.09,104.48,67.77,111.78a8.38,8.38,0,0,0,7.45,0c14.69-7.3,67.77-38.73,67.77-111.78,0-68.07-46.1-151.59-64.27-181.85a8.36,8.36,0,0,0-7.23-4.09Z" transform="translate(2022.05)"/><path class="cls-1" d="M361.57,476.12q0-5.47-1.41-7.75t-4.83-2.28q-1.06,0-2.2.11t-2.2.27v30.86H339.61V458.71q1.44-.38,3.38-.8t4.1-.76q2.17-.34,4.45-.53t4.48-.19a18.88,18.88,0,0,1,7,1.1,15.91,15.91,0,0,1,4.45,2.62,21.16,21.16,0,0,1,11.4-3.72,20,20,0,0,1,7.87,1.33,11.86,11.86,0,0,1,4.9,3.76,14.24,14.24,0,0,1,2.51,5.78,37.27,37.27,0,0,1,.68,7.45v22.57H383.53v-21.2q0-5.47-1.41-7.75t-4.83-2.28a10.21,10.21,0,0,0-2.55.46,9.93,9.93,0,0,0-2.7,1.14,17.35,17.35,0,0,1,.68,3.69q.15,1.94.15,4.14v21.81H361.57Z" transform="translate(2022.05)"/><path class="cls-1" d="M441.67,450.28q.15,3.12.42,7.07t.61,8.17q.34,4.22.72,8.4t.76,7.75q2-3.88,4-8.36t4.1-9.27q2.05-4.79,4.07-9.73t3.84-9.65h12.54q-5.93,14.44-12.08,27.47t-13.22,25.19h-11.1q-.61-4.18-1.1-8t-.91-7.56q-.42-3.72-.76-7.52t-.65-7.9q-4.33,8.06-8.55,15.77t-9,15.24h-11.1q-.61-7.07-.87-14t-.27-14.06q0-6.16.23-12.27t.61-12.35h11.93q-.38,6.69-.72,13.11t-.34,13.34v5.24q0,2.66.15,5.32,2.13-3.72,4.48-7.9t4.64-8.36q2.28-4.18,4.33-8.09t3.5-7Z" transform="translate(2022.05)"/><path class="cls-1" d="M467.82,497.32l12.62-52.67h34.43l-2.43,9.73H489.86L487.43,465h19.91L505,474.6H485.07l-3,12.92h24.32l-2.43,9.8Z" transform="translate(2022.05)"/><path class="cls-1" d="M550.51,487.29l-2.43,10H513l12.62-52.67h11.86l-10.26,42.64Z" transform="translate(2022.05)"/><path class="cls-1" d="M592.76,487.29l-2.43,10H555.22l12.62-52.67h11.86l-10.26,42.64Z" transform="translate(2022.05)"/><path class="cls-2" d="M1198.57,476.12q0-5.47-1.41-7.75t-4.83-2.28q-1.06,0-2.2.11t-2.21.27v30.86h-11.32V458.71q1.44-.38,3.38-.8t4.1-.76q2.17-.34,4.45-.53t4.48-.19a18.88,18.88,0,0,1,7,1.1,15.92,15.92,0,0,1,4.45,2.62,21.16,21.16,0,0,1,11.4-3.72,20,20,0,0,1,7.87,1.33,11.85,11.85,0,0,1,4.9,3.76,14.22,14.22,0,0,1,2.51,5.78,37.2,37.2,0,0,1,.68,7.45v22.57h-11.32v-21.2q0-5.47-1.41-7.75t-4.83-2.28a10.22,10.22,0,0,0-2.55.46,9.93,9.93,0,0,0-2.7,1.14,17.35,17.35,0,0,1,.68,3.69q.15,1.94.15,4.14v21.81h-11.32Z" transform="translate(2022.05)"/><path class="cls-2" d="M1278.67,450.28q.15,3.12.42,7.07t.61,8.17q.34,4.22.72,8.4t.76,7.75q2-3.88,4-8.36t4.1-9.27q2.05-4.79,4.07-9.73t3.84-9.65h12.54q-5.93,14.44-12.08,27.47t-13.22,25.19h-11.1q-.61-4.18-1.1-8t-.91-7.56q-.42-3.72-.76-7.52t-.65-7.9q-4.33,8.06-8.55,15.77t-9,15.24h-11.1q-.61-7.07-.87-14t-.27-14.06q0-6.16.23-12.27t.61-12.35h11.93q-.38,6.69-.72,13.11t-.34,13.34v5.24q0,2.66.15,5.32,2.13-3.72,4.48-7.9t4.64-8.36q2.28-4.18,4.33-8.09t3.5-7Z" transform="translate(2022.05)"/><path class="cls-2" d="M1304.82,497.32l12.62-52.67h34.43l-2.43,9.73h-22.57L1324.43,465h19.91L1342,474.6h-19.91l-3,12.92h24.32l-2.43,9.8Z" transform="translate(2022.05)"/><path class="cls-2" d="M1387.51,487.29l-2.43,10H1350l12.62-52.67h11.86l-10.26,42.64Z" transform="translate(2022.05)"/><path class="cls-2" d="M1429.76,487.29l-2.43,10h-35.11l12.62-52.67h11.86l-10.26,42.64Z" transform="translate(2022.05)"/><rect x="2022.05" y="662.69" width="1778.32" height="903.15"/><path class="cls-1" d="M-815.21,420.39a124.73,124.73,0,0,1-45.57-8.7,4.9,4.9,0,0,1-2.86-3.25c-4.45-16.66-14.84-74.65,38-121.2,50-44,140.63-64.4,177.28-71.12a5.2,5.2,0,0,1,.93-.09,4.86,4.86,0,0,1,4,2,4.87,4.87,0,0,1,.71,4.4c-11.31,35.5-43,122.82-93,166.84C-759.16,409.93-785.9,420.39-815.21,420.39Z" transform="translate(2022.05)"/><path class="cls-2" d="M-647.4,219.52a1.42,1.42,0,0,1,1.13.61,1.35,1.35,0,0,1,.2,1.27,604.55,604.55,0,0,1-31.49,79c-18.81,38.47-39.16,67.5-60.49,86.28-22.77,20-48.73,30.21-77.16,30.21a121.09,121.09,0,0,1-44.25-8.44,1.38,1.38,0,0,1-.81-.92,121,121,0,0,1-2.43-47.37c4.05-27.2,17.31-50.85,39.4-70.3,21.33-18.78,52.7-35.29,93.25-49.08a604.57,604.57,0,0,1,82.35-21.23l.3,0m0-7a8.66,8.66,0,0,0-1.56.14c-34.72,6.37-127.87,27-179,71.94-54.83,48.27-43.34,108.89-39.11,124.73a8.38,8.38,0,0,0,4.92,5.59,127.44,127.44,0,0,0,46.89,9c23.9,0,53.36-6.92,81.79-32,51.09-45,83.31-134.77,94-168.41a8.44,8.44,0,0,0-8-11Z" transform="translate(2022.05)"/><path class="cls-1" d="M-856.28,420.39c-1.73,0-3.42,0-5-.12a4.9,4.9,0,0,1-3.78-2.12c-9.71-14.25-38.7-65.53-4.19-127,32.62-58.08,111.41-107.3,143.77-125.76a4.86,4.86,0,0,1,2.43-.66,4.93,4.93,0,0,1,4.95,4.8c1.07,37.24,0,130.13-32.57,188.21C-782.43,414.28-835.11,420.39-856.28,420.39Z" transform="translate(2022.05)"/><path class="cls-2" d="M-723.07,168.26a1.46,1.46,0,0,1,1.45,1.4,604.55,604.55,0,0,1-3.58,85c-5,42.53-14.63,76.66-28.54,101.43-30.83,54.9-82,60.82-102.54,60.82-1.67,0-3.3,0-4.83-.12a1.38,1.38,0,0,1-1.06-.6,121,121,0,0,1-18-43.9c-5.17-27-.49-53.72,13.93-79.38,13.92-24.78,38.06-50.74,71.76-77.16a604.56,604.56,0,0,1,70.69-47.27,1.38,1.38,0,0,1,.7-.2m0-7a8.36,8.36,0,0,0-4.16,1.12C-757.89,179.87-839,230.11-872.32,289.46c-35.77,63.69-4.88,117.09,4.35,130.65a8.38,8.38,0,0,0,6.5,3.65c1.41.07,3.15.13,5.19.13,21.61,0,75.95-6.19,108.64-64.4,33.34-59.35,34-154.74,33-190a8.45,8.45,0,0,0-8.45-8.2Z" transform="translate(2022.05)"/><path class="cls-1" d="M-915,420.39c-29.31,0-56.05-10.46-79.47-31.08-50-44-81.69-131.34-93-166.84a4.87,4.87,0,0,1,.71-4.4,4.86,4.86,0,0,1,4-2,5.2,5.2,0,0,1,.93.09c36.65,6.72,127.28,27.1,177.28,71.12,52.88,46.56,42.49,104.54,38,121.2a4.9,4.9,0,0,1-2.87,3.25,124.73,124.73,0,0,1-45.57,8.7Z" transform="translate(2022.05)"/><path class="cls-2" d="M-1082.76,219.52l.3,0a604.57,604.57,0,0,1,82.35,21.23c40.55,13.79,71.92,30.3,93.25,49.08,22.09,19.45,35.35,43.11,39.4,70.3a121,121,0,0,1-2.43,47.37,1.38,1.38,0,0,1-.81.92A121.09,121.09,0,0,1-915,416.89c-28.44,0-54.4-10.16-77.16-30.21-21.33-18.78-41.68-47.81-60.49-86.28a604.57,604.57,0,0,1-31.49-79,1.35,1.35,0,0,1,.2-1.27,1.42,1.42,0,0,1,1.13-.61m0-7a8.44,8.44,0,0,0-8,11c10.71,33.63,42.93,123.42,94,168.41,28.43,25,57.89,32,81.79,32a127.44,127.44,0,0,0,46.89-9,8.38,8.38,0,0,0,4.92-5.59c4.23-15.84,15.72-76.46-39.11-124.73-51.09-45-144.24-65.57-179-71.94a8.65,8.65,0,0,0-1.56-.14Z" transform="translate(2022.05)"/><path class="cls-1" d="M-873.88,420.39c-21.18,0-73.85-6.1-105.59-62.61-32.62-58.08-33.65-151-32.57-188.21a4.93,4.93,0,0,1,4.95-4.8,4.86,4.86,0,0,1,2.43.66c32.36,18.46,111.15,67.68,143.77,125.76,34.5,61.43,5.51,112.71-4.19,127a4.9,4.9,0,0,1-3.78,2.12c-1.59.08-3.28.12-5,.12Z" transform="translate(2022.05)"/><path class="cls-2" d="M-1007.1,168.26a1.38,1.38,0,0,1,.7.2,604.55,604.55,0,0,1,70.69,47.27c33.7,26.42,57.85,52.38,71.76,77.16,14.41,25.66,19.1,52.37,13.93,79.38a121,121,0,0,1-18,43.9,1.38,1.38,0,0,1-1.06.6c-1.54.08-3.16.12-4.83.12-20.56,0-71.71-5.93-102.54-60.82-13.92-24.78-23.52-58.9-28.54-101.43a604.55,604.55,0,0,1-3.58-85,1.46,1.46,0,0,1,1.45-1.4m0-7a8.45,8.45,0,0,0-8.45,8.2c-1,35.28-.32,130.68,33,190,32.69,58.21,87,64.4,108.64,64.4,2,0,3.78-.05,5.19-.13a8.38,8.38,0,0,0,6.5-3.65c9.23-13.55,40.13-67,4.35-130.65-33.34-59.35-114.43-109.59-145.09-127.08a8.36,8.36,0,0,0-4.16-1.12Z" transform="translate(2022.05)"/><path class="cls-1" d="M-865,420.39a4.89,4.89,0,0,1-2.17-.51C-882.61,412.2-933,381.69-933,311.23c0-66.62,44.6-148.11,63.77-180.05a4.83,4.83,0,0,1,4.23-2.39,4.83,4.83,0,0,1,4.23,2.39C-841.6,163.12-797,244.62-797,311.23c0,70.46-50.39,101-65.83,108.64A4.89,4.89,0,0,1-865,420.39Z" transform="translate(2022.05)"/><path class="cls-2" d="M-865,132.29a1.37,1.37,0,0,1,1.23.69,604.59,604.59,0,0,1,38.48,75.83c16.45,39.54,24.78,74,24.78,102.42,0,29.44-9,55-26.73,76a121,121,0,0,1-37.16,29.48,1.38,1.38,0,0,1-.61.14,1.38,1.38,0,0,1-.61-.14,121,121,0,0,1-37.16-29.48c-17.74-21-26.73-46.6-26.73-76,0-28.42,8.34-62.87,24.78-102.42A604.58,604.58,0,0,1-866.23,133a1.37,1.37,0,0,1,1.23-.69m0-7a8.36,8.36,0,0,0-7.23,4.09c-18.17,30.27-64.27,113.78-64.27,181.85,0,73.05,53.09,104.48,67.77,111.78a8.37,8.37,0,0,0,3.73.87,8.37,8.37,0,0,0,3.73-.87c14.69-7.3,67.77-38.73,67.77-111.78,0-68.07-46.1-151.59-64.27-181.85a8.36,8.36,0,0,0-7.23-4.09Z" transform="translate(2022.05)"/><path class="cls-3" d="M-1206.32,391.93c-54.83,48.27-113.5,29.2-128.68,23a8.38,8.38,0,0,1-4.92-5.59c-4.23-15.84-15.72-76.46,39.11-124.73,51.09-45,144.24-65.57,179-71.94a8.44,8.44,0,0,1,9.56,10.86C-1123,257.16-1155.23,346.95-1206.32,391.93Z" transform="translate(2022.05)"/><path class="cls-3" d="M-1220.54,359.49c-35.77,63.69-97.45,65.1-113.83,64.27a8.38,8.38,0,0,1-6.5-3.65c-9.23-13.55-40.13-67-4.35-130.65,33.34-59.35,114.43-109.59,145.09-127.08a8.44,8.44,0,0,1,12.61,7.08C-1186.5,204.74-1187.2,300.14-1220.54,359.49Z" transform="translate(2022.05)"/><path class="cls-3" d="M-1469.64,391.93c54.83,48.27,113.5,29.2,128.68,23a8.38,8.38,0,0,0,4.92-5.59c4.23-15.84,15.72-76.46-39.11-124.73-51.09-45-144.24-65.57-179-71.94a8.44,8.44,0,0,0-9.56,10.86C-1552.95,257.16-1520.73,346.95-1469.64,391.93Z" transform="translate(2022.05)"/><path class="cls-3" d="M-1455.42,359.49c35.77,63.69,97.45,65.1,113.83,64.27a8.38,8.38,0,0,0,6.5-3.65c9.23-13.55,40.13-67,4.35-130.65-33.34-59.35-114.43-109.59-145.09-127.08a8.44,8.44,0,0,0-12.61,7.08C-1489.46,204.74-1488.76,300.14-1455.42,359.49Z" transform="translate(2022.05)"/><path class="cls-3" d="M-1266.4,311.23c0,73.05-53.09,104.48-67.77,111.78a8.38,8.38,0,0,1-7.45,0c-14.69-7.3-67.77-38.73-67.77-111.78,0-68.07,46.1-151.59,64.27-181.85a8.44,8.44,0,0,1,14.46,0C-1312.5,159.64-1266.4,243.16-1266.4,311.23Z" transform="translate(2022.05)"/><path class="cls-2" d="M-955.43,482.12q0-5.47-1.41-7.75t-4.83-2.28q-1.06,0-2.2.11t-2.2.27v30.86h-11.32V464.71q1.44-.38,3.38-.8t4.1-.76q2.17-.34,4.45-.53t4.48-.19a18.88,18.88,0,0,1,7,1.1,15.91,15.91,0,0,1,4.45,2.62,19.47,19.47,0,0,1,5.59-2.74,19.6,19.6,0,0,1,5.81-1,20,20,0,0,1,7.87,1.33,11.86,11.86,0,0,1,4.9,3.76,14.24,14.24,0,0,1,2.51,5.78,37.27,37.27,0,0,1,.68,7.45v22.57h-11.32v-21.2q0-5.47-1.41-7.75t-4.83-2.28a10.21,10.21,0,0,0-2.55.46,9.93,9.93,0,0,0-2.7,1.14,17.35,17.35,0,0,1,.68,3.69q.15,1.94.15,4.14v21.81h-11.32Z" transform="translate(2022.05)"/><path class="cls-2" d="M-875.33,456.28q.15,3.12.42,7.07t.61,8.17q.34,4.22.72,8.4t.76,7.75q2-3.88,4-8.36t4.1-9.27q2.05-4.79,4.07-9.73t3.84-9.65h12.54q-5.93,14.44-12.08,27.47t-13.22,25.19h-11.1q-.61-4.18-1.1-8t-.91-7.56q-.42-3.72-.76-7.52t-.65-7.9q-4.33,8.06-8.55,15.77t-9,15.24h-11.1q-.61-7.07-.87-14t-.27-14.06q0-6.16.23-12.27t.61-12.35h11.93q-.38,6.69-.72,13.11t-.34,13.34v5.24q0,2.66.15,5.32,2.13-3.72,4.48-7.9t4.64-8.36q2.28-4.18,4.33-8.09t3.5-7Z" transform="translate(2022.05)"/><path class="cls-2" d="M-849.18,503.32l12.62-52.67h34.43l-2.43,9.73h-22.57L-829.57,471h19.91L-812,480.6h-19.91l-3,12.92h24.32l-2.43,9.8Z" transform="translate(2022.05)"/><path class="cls-2" d="M-766.49,493.29l-2.43,10H-804l12.62-52.67h11.86l-10.26,42.64Z" transform="translate(2022.05)"/><path class="cls-2" d="M-724.24,493.29l-2.43,10h-35.11l12.62-52.67h11.86l-10.26,42.64Z" transform="translate(2022.05)"/><path class="cls-2" d="M-1902.19,482.12q0-5.47-1.41-7.75t-4.83-2.28q-1.06,0-2.2.11t-2.2.27v30.86h-11.32V464.71q1.44-.38,3.38-.8t4.1-.76q2.17-.34,4.45-.53t4.48-.19a18.88,18.88,0,0,1,7,1.1,15.91,15.91,0,0,1,4.45,2.62,19.47,19.47,0,0,1,5.59-2.74,19.6,19.6,0,0,1,5.81-1,20,20,0,0,1,7.87,1.33,11.86,11.86,0,0,1,4.9,3.76,14.24,14.24,0,0,1,2.51,5.78,37.27,37.27,0,0,1,.68,7.45v22.57h-11.32v-21.2q0-5.47-1.41-7.75t-4.83-2.28a10.21,10.21,0,0,0-2.55.46,9.93,9.93,0,0,0-2.7,1.14,17.35,17.35,0,0,1,.68,3.69q.15,1.94.15,4.14v21.81h-11.32Z" transform="translate(2022.05)"/><path class="cls-2" d="M-1822.08,456.28q.15,3.12.42,7.07t.61,8.17q.34,4.22.72,8.4t.76,7.75q2-3.88,4-8.36t4.1-9.27q2.05-4.79,4.07-9.73t3.84-9.65H-1791q-5.93,14.44-12.08,27.47t-13.22,25.19h-11.1q-.61-4.18-1.1-8t-.91-7.56q-.42-3.72-.76-7.52t-.65-7.9q-4.33,8.06-8.55,15.77t-9,15.24h-11.1q-.61-7.07-.87-14t-.27-14.06q0-6.16.23-12.27t.61-12.35h11.93q-.38,6.69-.72,13.11t-.34,13.34v5.24q0,2.66.15,5.32,2.13-3.72,4.48-7.9t4.64-8.36q2.28-4.18,4.33-8.09t3.5-7Z" transform="translate(2022.05)"/><path class="cls-2" d="M-1795.94,503.32l12.62-52.67h34.43l-2.43,9.73h-22.57l-2.43,10.64h19.91l-2.36,9.58h-19.91l-3,12.92h24.32l-2.43,9.8Z" transform="translate(2022.05)"/><path class="cls-2" d="M-1713.25,493.29l-2.43,10h-35.11l12.62-52.67h11.86l-10.26,42.64Z" transform="translate(2022.05)"/><path class="cls-2" d="M-1671,493.29l-2.43,10h-35.11l12.62-52.67h11.86l-10.26,42.64Z" transform="translate(2022.05)"/><path class="cls-1" d="M-216.21,420.39a124.73,124.73,0,0,1-45.57-8.7,4.9,4.9,0,0,1-2.86-3.25c-4.45-16.66-14.84-74.65,38-121.2,50-44,140.63-64.4,177.28-71.12a5.2,5.2,0,0,1,.93-.09,4.86,4.86,0,0,1,4,2,4.87,4.87,0,0,1,.71,4.4c-11.31,35.5-43,122.82-93,166.84C-160.16,409.93-186.9,420.39-216.21,420.39Z" transform="translate(2022.05)"/><path d="M-48.4,219.52a1.42,1.42,0,0,1,1.13.61,1.35,1.35,0,0,1,.2,1.27,604.55,604.55,0,0,1-31.49,79c-18.81,38.47-39.16,67.5-60.49,86.28-22.77,20-48.73,30.21-77.16,30.21a121.09,121.09,0,0,1-44.25-8.44,1.38,1.38,0,0,1-.81-.92,121,121,0,0,1-2.43-47.37c4.05-27.2,17.31-50.85,39.4-70.3,21.33-18.78,52.7-35.29,93.25-49.08A604.57,604.57,0,0,1-48.7,219.55l.3,0m0-7a8.66,8.66,0,0,0-1.56.14c-34.72,6.37-127.87,27-179,71.94-54.83,48.27-43.34,108.89-39.11,124.73a8.38,8.38,0,0,0,4.92,5.59,127.44,127.44,0,0,0,46.89,9c23.9,0,53.36-6.92,81.79-32,51.09-45,83.31-134.77,94-168.41a8.44,8.44,0,0,0-8-11Z" transform="translate(2022.05)"/><path class="cls-1" d="M-257.28,420.39c-1.73,0-3.42,0-5-.12a4.9,4.9,0,0,1-3.78-2.12c-9.71-14.25-38.7-65.53-4.19-127,32.62-58.08,111.41-107.3,143.77-125.76a4.86,4.86,0,0,1,2.43-.66,4.93,4.93,0,0,1,4.95,4.8c1.07,37.24,0,130.13-32.57,188.21C-183.43,414.28-236.11,420.39-257.28,420.39Z" transform="translate(2022.05)"/><path d="M-124.07,168.26a1.46,1.46,0,0,1,1.45,1.4,604.56,604.56,0,0,1-3.58,85c-5,42.53-14.63,76.66-28.54,101.43-30.83,54.9-82,60.82-102.54,60.82-1.67,0-3.3,0-4.83-.12a1.38,1.38,0,0,1-1.06-.6,121,121,0,0,1-18-43.9c-5.17-27-.49-53.72,13.93-79.38,13.92-24.78,38.06-50.74,71.76-77.16a604.56,604.56,0,0,1,70.69-47.27,1.38,1.38,0,0,1,.7-.2m0-7a8.36,8.36,0,0,0-4.16,1.12C-158.89,179.87-240,230.11-273.32,289.46c-35.77,63.69-4.88,117.09,4.35,130.65a8.38,8.38,0,0,0,6.5,3.65c1.41.07,3.15.13,5.19.13,21.61,0,75.95-6.19,108.64-64.4,33.34-59.35,34-154.74,33-190a8.45,8.45,0,0,0-8.45-8.2Z" transform="translate(2022.05)"/><path class="cls-1" d="M-316,420.39c-29.31,0-56.05-10.46-79.47-31.08-50-44-81.69-131.34-93-166.84a4.87,4.87,0,0,1,.71-4.4,4.86,4.86,0,0,1,4-2,5.2,5.2,0,0,1,.93.09c36.65,6.72,127.28,27.1,177.28,71.12,52.88,46.56,42.49,104.54,38,121.2a4.9,4.9,0,0,1-2.87,3.25,124.73,124.73,0,0,1-45.57,8.7Z" transform="translate(2022.05)"/><path d="M-483.76,219.52l.3,0a604.56,604.56,0,0,1,82.35,21.23c40.55,13.79,71.92,30.3,93.25,49.08,22.09,19.45,35.35,43.11,39.4,70.3a121,121,0,0,1-2.43,47.37,1.38,1.38,0,0,1-.81.92A121.09,121.09,0,0,1-316,416.89c-28.44,0-54.4-10.16-77.16-30.21-21.33-18.78-41.68-47.81-60.49-86.28a604.55,604.55,0,0,1-31.49-79,1.35,1.35,0,0,1,.2-1.27,1.42,1.42,0,0,1,1.13-.61m0-7a8.44,8.44,0,0,0-8,11c10.71,33.63,42.93,123.42,94,168.41,28.43,25,57.89,32,81.79,32a127.44,127.44,0,0,0,46.89-9,8.38,8.38,0,0,0,4.92-5.59c4.23-15.84,15.72-76.46-39.11-124.73-51.09-45-144.24-65.57-179-71.94a8.65,8.65,0,0,0-1.56-.14Z" transform="translate(2022.05)"/><path class="cls-1" d="M-274.88,420.39c-21.18,0-73.85-6.1-105.59-62.61-32.62-58.08-33.65-151-32.57-188.21a4.93,4.93,0,0,1,4.95-4.8,4.86,4.86,0,0,1,2.43.66c32.36,18.46,111.15,67.68,143.77,125.76,34.5,61.43,5.51,112.71-4.19,127a4.9,4.9,0,0,1-3.78,2.12c-1.59.08-3.28.12-5,.12Z" transform="translate(2022.05)"/><path d="M-408.1,168.26a1.38,1.38,0,0,1,.7.2,604.56,604.56,0,0,1,70.69,47.27c33.7,26.42,57.85,52.38,71.76,77.16,14.41,25.66,19.1,52.37,13.93,79.38a121,121,0,0,1-18,43.9,1.38,1.38,0,0,1-1.06.6c-1.54.08-3.16.12-4.83.12-20.56,0-71.71-5.93-102.54-60.82-13.92-24.78-23.52-58.9-28.54-101.43a604.56,604.56,0,0,1-3.58-85,1.46,1.46,0,0,1,1.45-1.4m0-7a8.45,8.45,0,0,0-8.45,8.2c-1,35.28-.32,130.68,33,190,32.69,58.21,87,64.4,108.64,64.4,2,0,3.78-.05,5.19-.13a8.38,8.38,0,0,0,6.5-3.65c9.23-13.55,40.13-67,4.35-130.65-33.34-59.35-114.43-109.59-145.09-127.08a8.36,8.36,0,0,0-4.16-1.12Z" transform="translate(2022.05)"/><path class="cls-1" d="M-266,420.39a4.89,4.89,0,0,1-2.17-.51C-283.61,412.2-334,381.69-334,311.23c0-66.62,44.6-148.11,63.77-180.05a4.83,4.83,0,0,1,4.23-2.39,4.83,4.83,0,0,1,4.23,2.39C-242.6,163.12-198,244.62-198,311.23c0,70.46-50.39,101-65.83,108.64A4.89,4.89,0,0,1-266,420.39Z" transform="translate(2022.05)"/><path d="M-266,132.29a1.37,1.37,0,0,1,1.23.69,604.56,604.56,0,0,1,38.48,75.83c16.45,39.54,24.78,74,24.78,102.42,0,29.44-9,55-26.73,76a121,121,0,0,1-37.16,29.48,1.38,1.38,0,0,1-.61.14,1.38,1.38,0,0,1-.61-.14,121,121,0,0,1-37.16-29.48c-17.74-21-26.73-46.6-26.73-76,0-28.42,8.34-62.87,24.78-102.42A604.56,604.56,0,0,1-267.23,133a1.37,1.37,0,0,1,1.23-.69m0-7a8.36,8.36,0,0,0-7.23,4.09c-18.17,30.27-64.27,113.78-64.27,181.85,0,73.05,53.09,104.48,67.77,111.78a8.37,8.37,0,0,0,3.73.87,8.37,8.37,0,0,0,3.73-.87c14.69-7.3,67.77-38.73,67.77-111.78,0-68.07-46.1-151.59-64.27-181.85a8.36,8.36,0,0,0-7.23-4.09Z" transform="translate(2022.05)"/><path class="cls-1" d="M-356.43,476.12q0-5.47-1.41-7.75t-4.83-2.28q-1.06,0-2.2.11t-2.2.27v30.86h-11.32V458.71q1.44-.38,3.38-.8t4.1-.76q2.17-.34,4.45-.53t4.48-.19a18.88,18.88,0,0,1,7,1.1,15.91,15.91,0,0,1,4.45,2.62,19.47,19.47,0,0,1,5.59-2.74,19.6,19.6,0,0,1,5.81-1,20,20,0,0,1,7.87,1.33,11.86,11.86,0,0,1,4.9,3.76,14.24,14.24,0,0,1,2.51,5.78,37.27,37.27,0,0,1,.68,7.45v22.57h-11.32v-21.2q0-5.47-1.41-7.75t-4.83-2.28a10.21,10.21,0,0,0-2.55.46,9.93,9.93,0,0,0-2.7,1.14,17.35,17.35,0,0,1,.68,3.69q.15,1.94.15,4.14v21.81h-11.32Z" transform="translate(2022.05)"/><path class="cls-1" d="M-276.33,450.28q.15,3.12.42,7.07t.61,8.17q.34,4.22.72,8.4t.76,7.75q2-3.88,4-8.36t4.1-9.27q2.05-4.79,4.07-9.73t3.84-9.65h12.54q-5.93,14.44-12.08,27.47t-13.22,25.19h-11.1q-.61-4.18-1.1-8t-.91-7.56q-.42-3.72-.76-7.52t-.65-7.9q-4.33,8.06-8.55,15.77t-9,15.24h-11.1q-.61-7.07-.87-14t-.27-14.06q0-6.16.23-12.27t.61-12.35h11.93q-.38,6.69-.72,13.11t-.34,13.34v5.24q0,2.66.15,5.32,2.13-3.72,4.48-7.9t4.64-8.36q2.28-4.18,4.33-8.09t3.5-7Z" transform="translate(2022.05)"/><path class="cls-1" d="M-250.18,497.32l12.62-52.67h34.43l-2.43,9.73h-22.57L-230.57,465h19.91L-213,474.6h-19.91l-3,12.92h24.32l-2.43,9.8Z" transform="translate(2022.05)"/><path class="cls-1" d="M-167.49,487.29l-2.43,10H-205l12.62-52.67h11.86l-10.26,42.64Z" transform="translate(2022.05)"/><path class="cls-1" d="M-125.24,487.29l-2.43,10h-35.11l12.62-52.67h11.86l-10.26,42.64Z" transform="translate(2022.05)"/><path class="cls-1" d="M-1445.65,476.12q0-5.47-1.41-7.75t-4.83-2.28q-1.06,0-2.2.11t-2.2.27v30.86h-11.32V458.71q1.44-.38,3.38-.8t4.1-.76q2.17-.34,4.45-.53t4.48-.19a18.88,18.88,0,0,1,7,1.1,15.91,15.91,0,0,1,4.45,2.62,19.47,19.47,0,0,1,5.59-2.74,19.6,19.6,0,0,1,5.81-1,20,20,0,0,1,7.87,1.33,11.86,11.86,0,0,1,4.9,3.76,14.24,14.24,0,0,1,2.51,5.78,37.27,37.27,0,0,1,.68,7.45v22.57h-11.32v-21.2q0-5.47-1.41-7.75t-4.83-2.28a10.21,10.21,0,0,0-2.55.46,9.93,9.93,0,0,0-2.7,1.14,17.35,17.35,0,0,1,.68,3.69q.15,1.94.15,4.14v21.81h-11.32Z" transform="translate(2022.05)"/><path class="cls-1" d="M-1365.54,450.28q.15,3.12.42,7.07t.61,8.17q.34,4.22.72,8.4t.76,7.75q2-3.88,4-8.36t4.1-9.27q2.05-4.79,4.07-9.73t3.84-9.65h12.54q-5.93,14.44-12.08,27.47t-13.22,25.19h-11.1q-.61-4.18-1.1-8t-.91-7.56q-.42-3.72-.76-7.52t-.65-7.9q-4.33,8.06-8.55,15.77t-9,15.24h-11.1q-.61-7.07-.87-14t-.27-14.06q0-6.16.23-12.27t.61-12.35h11.93q-.38,6.69-.72,13.11t-.34,13.34v5.24q0,2.66.15,5.32,2.13-3.72,4.48-7.9t4.64-8.36q2.28-4.18,4.33-8.09t3.5-7Z" transform="translate(2022.05)"/><path class="cls-1" d="M-1339.4,497.32l12.62-52.67h34.43l-2.43,9.73h-22.57l-2.43,10.64h19.91l-2.36,9.58h-19.91l-3,12.92h24.32l-2.43,9.8Z" transform="translate(2022.05)"/><path class="cls-1" d="M-1256.71,487.29l-2.43,10h-35.11l12.62-52.67h11.86L-1280,487.29Z" transform="translate(2022.05)"/><path class="cls-1" d="M-1214.46,487.29l-2.43,10H-1252l12.62-52.67h11.86l-10.26,42.64Z" transform="translate(2022.05)"/><path class="cls-4" d="M1065.49,1209.79c-78.95,69.51-163.43,42-185.29,33.11a12.06,12.06,0,0,1-7.09-8.05c-6.09-22.81-22.63-110.1,56.31-179.6,73.57-64.77,207.69-94.41,257.68-103.58a12.15,12.15,0,0,1,13.76,15.63C1185.45,1015.73,1139.06,1145,1065.49,1209.79Z" transform="translate(2022.05)"/><path class="cls-4" d="M1045,1163.07c-51.51,91.71-140.32,93.74-163.9,92.54a12.06,12.06,0,0,1-9.35-5.25c-13.29-19.52-57.78-96.41-6.27-188.12,48-85.46,164.77-157.8,208.91-183a12.15,12.15,0,0,1,18.16,10.2C1094,940.26,1093,1077.61,1045,1163.07Z" transform="translate(2022.05)"/><path class="cls-4" d="M686.35,1209.79c78.95,69.51,163.43,42,185.29,33.11a12.06,12.06,0,0,0,7.09-8.05c6.09-22.81,22.63-110.1-56.31-179.6-73.57-64.77-207.69-94.41-257.68-103.58A12.15,12.15,0,0,0,551,967.3C566.39,1015.73,612.78,1145,686.35,1209.79Z" transform="translate(2022.05)"/><path class="cls-4" d="M706.82,1163.07c51.51,91.71,140.32,93.74,163.9,92.54a12.06,12.06,0,0,0,9.35-5.25c13.29-19.52,57.78-96.41,6.27-188.12-48-85.46-164.77-157.8-208.91-183a12.15,12.15,0,0,0-18.16,10.2C657.81,940.26,658.82,1077.61,706.82,1163.07Z" transform="translate(2022.05)"/><path class="cls-4" d="M979,1093.59c0,105.18-76.44,150.44-97.59,160.95a12.06,12.06,0,0,1-10.73,0c-21.15-10.51-97.59-55.77-97.59-160.95,0-98,66.38-218.27,92.54-261.85a12.15,12.15,0,0,1,20.83,0C912.61,875.32,979,995.57,979,1093.59Z" transform="translate(2022.05)"/><path class="cls-2" d="M-1674.85,386.73c-52.29,46-108.25,27.85-122.73,21.93a8,8,0,0,1-4.7-5.33c-4-15.11-15-72.93,37.3-119,48.73-42.9,137.57-62.54,170.68-68.61a8,8,0,0,1,9.12,10.35C-1595.4,258.19-1626.12,343.83-1674.85,386.73Z" transform="translate(2022.05)"/><path class="cls-5" d="M-1674.85,386.73c-52.29,46-108.25,27.85-122.73,21.93a8,8,0,0,1-4.7-5.33c-4-15.11-15-72.93,37.3-119,48.73-42.9,137.57-62.54,170.68-68.61a8,8,0,0,1,9.12,10.35C-1595.4,258.19-1626.12,343.83-1674.85,386.73Z" transform="translate(2022.05)"/><path class="cls-2" d="M-1688.41,355.79c-34.12,60.75-92.95,62.09-108.57,61.3a8,8,0,0,1-6.2-3.48c-8.8-12.93-38.27-63.86-4.15-124.61,31.79-56.61,109.14-104.52,138.38-121.21a8,8,0,0,1,12,6.76C-1655.95,208.2-1656.62,299.18-1688.41,355.79Z" transform="translate(2022.05)"/><path class="cls-5" d="M-1688.41,355.79c-34.12,60.75-92.95,62.09-108.57,61.3a8,8,0,0,1-6.2-3.48c-8.8-12.93-38.27-63.86-4.15-124.61,31.79-56.61,109.14-104.52,138.38-121.21a8,8,0,0,1,12,6.76C-1655.95,208.2-1656.62,299.18-1688.41,355.79Z" transform="translate(2022.05)"/><path class="cls-2" d="M-1926,386.73c52.29,46,108.25,27.85,122.73,21.93a8,8,0,0,0,4.7-5.33c4-15.11,15-72.93-37.3-119-48.73-42.9-137.57-62.54-170.68-68.61a8,8,0,0,0-9.12,10.35C-2005.45,258.19-1974.72,343.83-1926,386.73Z" transform="translate(2022.05)"/><path class="cls-5" d="M-1926,386.73c52.29,46,108.25,27.85,122.73,21.93a8,8,0,0,0,4.7-5.33c4-15.11,15-72.93-37.3-119-48.73-42.9-137.57-62.54-170.68-68.61a8,8,0,0,0-9.12,10.35C-2005.45,258.19-1974.72,343.83-1926,386.73Z" transform="translate(2022.05)"/><path class="cls-2" d="M-1912.43,355.79c34.12,60.75,92.95,62.09,108.57,61.3a8,8,0,0,0,6.2-3.48c8.8-12.93,38.27-63.86,4.15-124.61-31.79-56.61-109.14-104.52-138.38-121.21a8,8,0,0,0-12,6.76C-1944.9,208.2-1944.23,299.18-1912.43,355.79Z" transform="translate(2022.05)"/><path class="cls-5" d="M-1912.43,355.79c34.12,60.75,92.95,62.09,108.57,61.3a8,8,0,0,0,6.2-3.48c8.8-12.93,38.27-63.86,4.15-124.61-31.79-56.61-109.14-104.52-138.38-121.21a8,8,0,0,0-12,6.76C-1944.9,208.2-1944.23,299.18-1912.43,355.79Z" transform="translate(2022.05)"/><path class="cls-2" d="M-1732.15,309.76c0,69.67-50.63,99.65-64.64,106.61a8,8,0,0,1-7.11,0c-14-7-64.64-36.94-64.64-106.61,0-64.93,44-144.58,61.3-173.44a8,8,0,0,1,13.8,0C-1776.12,165.18-1732.15,244.84-1732.15,309.76Z" transform="translate(2022.05)"/><path class="cls-5" d="M-1732.15,309.76c0,69.67-50.63,99.65-64.64,106.61a8,8,0,0,1-7.11,0c-14-7-64.64-36.94-64.64-106.61,0-64.93,44-144.58,61.3-173.44a8,8,0,0,1,13.8,0C-1776.12,165.18-1732.15,244.84-1732.15,309.76Z" transform="translate(2022.05)"/><path class="cls-2" d="M-1902.19,1236.12q0-5.47-1.41-7.75t-4.83-2.28q-1.06,0-2.2.11t-2.2.27v30.86h-11.32v-38.61q1.44-.38,3.38-.8t4.1-.76q2.17-.34,4.45-.53t4.48-.19a18.88,18.88,0,0,1,7,1.1,15.91,15.91,0,0,1,4.45,2.62,19.47,19.47,0,0,1,5.59-2.74,19.6,19.6,0,0,1,5.81-1,20,20,0,0,1,7.87,1.33,11.86,11.86,0,0,1,4.9,3.76,14.24,14.24,0,0,1,2.51,5.78,37.27,37.27,0,0,1,.68,7.45v22.57h-11.32v-21.2q0-5.47-1.41-7.75t-4.83-2.28a10.21,10.21,0,0,0-2.55.46,9.93,9.93,0,0,0-2.7,1.14,17.35,17.35,0,0,1,.68,3.69q.15,1.94.15,4.14v21.81h-11.32Z" transform="translate(2022.05)"/><path class="cls-2" d="M-1822.08,1210.28q.15,3.12.42,7.07t.61,8.17q.34,4.22.72,8.4t.76,7.75q2-3.88,4-8.36t4.1-9.27q2.05-4.79,4.07-9.73t3.84-9.65H-1791q-5.93,14.44-12.08,27.47t-13.22,25.19h-11.1q-.61-4.18-1.1-8t-.91-7.56q-.42-3.72-.76-7.52t-.65-7.9q-4.33,8.06-8.55,15.77t-9,15.24h-11.1q-.61-7.07-.87-14t-.27-14.06q0-6.16.23-12.27t.61-12.35h11.93q-.38,6.69-.72,13.11t-.34,13.34v5.24q0,2.66.15,5.32,2.13-3.72,4.48-7.9t4.64-8.36q2.28-4.18,4.33-8.09t3.5-7Z" transform="translate(2022.05)"/><path class="cls-2" d="M-1795.94,1257.32l12.62-52.67h34.43l-2.43,9.73h-22.57l-2.43,10.64h19.91l-2.36,9.58h-19.91l-3,12.92h24.32l-2.43,9.8Z" transform="translate(2022.05)"/><path class="cls-2" d="M-1713.25,1247.29l-2.43,10h-35.11l12.62-52.67h11.86l-10.26,42.64Z" transform="translate(2022.05)"/><path class="cls-2" d="M-1671,1247.29l-2.43,10h-35.11l12.62-52.67h11.86l-10.26,42.64Z" transform="translate(2022.05)"/><path class="cls-2" d="M-1674.85,1140.73c-52.29,46-108.25,27.85-122.73,21.93a8,8,0,0,1-4.7-5.33c-4-15.11-15-72.93,37.3-119,48.73-42.9,137.57-62.54,170.68-68.61a8,8,0,0,1,9.12,10.35C-1595.4,1012.19-1626.12,1097.83-1674.85,1140.73Z" transform="translate(2022.05)"/><path class="cls-6" d="M-1752.77,1173.77a124.06,124.06,0,0,1-45.76-8.79,10.54,10.54,0,0,1-6.17-7c-4.46-16.71-14.89-74.86,38.06-121.49,48.78-43,136.46-62.7,171.88-69.19a10.45,10.45,0,0,1,9.81,3.41,10.46,10.46,0,0,1,2.13,10.17c-10.93,34.32-41.62,118.79-90.4,161.74h0C-1700.88,1167-1729.48,1173.77-1752.77,1173.77Zm159.95-201.65a5.65,5.65,0,0,0-1,.09c-35,6.42-121.64,25.9-169.48,68-50.8,44.72-40.81,100.43-36.54,116.44a5.52,5.52,0,0,0,3.23,3.66c15.34,6.26,69.33,23.23,120.13-21.49l1.65,1.88-1.65-1.88c47.85-42.13,78.14-125.58,88.94-159.5a5.5,5.5,0,0,0-1.12-5.35A5.49,5.49,0,0,0-1592.83,972.12Z" transform="translate(2022.05)"/><path class="cls-2" d="M-1688.41,1109.79c-34.12,60.75-92.95,62.09-108.57,61.3a8,8,0,0,1-6.2-3.48c-8.8-12.93-38.27-63.86-4.15-124.61,31.79-56.61,109.14-104.52,138.38-121.21a8,8,0,0,1,12,6.76C-1655.95,962.2-1656.62,1053.18-1688.41,1109.79Z" transform="translate(2022.05)"/><path class="cls-6" d="M-1791.89,1173.71c-2,0-3.76-.05-5.21-.13a10.54,10.54,0,0,1-8.14-4.57c-9.74-14.3-38.82-65.72-4.27-127.24,31.83-56.67,108-104.3,139.32-122.15a10.46,10.46,0,0,1,10.39,0,10.46,10.46,0,0,1,5.38,8.89c1,36,0,125.87-31.81,182.54l-2.18-1.22,2.18,1.22C-1717.87,1167.35-1770.06,1173.71-1791.89,1173.71ZM-1665,923.23a5.52,5.52,0,0,0-2.75.74c-30.92,17.64-106.22,64.68-137.44,120.26-33.14,59-5.29,108.28,4,122a5.51,5.51,0,0,0,4.25,2.39c16.55.83,73.12-1,106.26-60h0c31.22-55.58,32.2-144.35,31.17-179.94a5.5,5.5,0,0,0-2.83-4.67A5.54,5.54,0,0,0-1665,923.23Z" transform="translate(2022.05)"/><path class="cls-2" d="M-1926,1140.73c52.29,46,108.25,27.85,122.73,21.93a8,8,0,0,0,4.7-5.33c4-15.11,15-72.93-37.3-119-48.73-42.9-137.57-62.54-170.68-68.61a8,8,0,0,0-9.12,10.35C-2005.45,1012.19-1974.72,1097.83-1926,1140.73Z" transform="translate(2022.05)"/><path class="cls-6" d="M-1848.07,1173.77c-23.29,0-51.89-6.79-79.57-31.16h0c-48.78-43-79.47-127.42-90.4-161.74a10.46,10.46,0,0,1,2.13-10.17,10.46,10.46,0,0,1,9.81-3.41c35.43,6.5,123.1,26.24,171.88,69.19,53,46.63,42.52,104.77,38.06,121.49a10.54,10.54,0,0,1-6.17,7A124.07,124.07,0,0,1-1848.07,1173.77Zm-76.27-34.91c50.8,44.72,104.79,27.76,120.13,21.49a5.51,5.51,0,0,0,3.23-3.66c4.27-16,14.26-71.72-36.54-116.44-47.84-42.12-134.46-61.61-169.48-68a5.5,5.5,0,0,0-5.16,1.79,5.5,5.5,0,0,0-1.12,5.35c10.8,33.92,41.1,117.38,88.94,159.5Z" transform="translate(2022.05)"/><path class="cls-2" d="M-1912.43,1109.79c34.12,60.75,92.95,62.09,108.57,61.3a8,8,0,0,0,6.2-3.48c8.8-12.93,38.27-63.86,4.15-124.61-31.79-56.61-109.14-104.52-138.38-121.21a8,8,0,0,0-12,6.76C-1944.9,962.2-1944.23,1053.18-1912.43,1109.79Z" transform="translate(2022.05)"/><path class="cls-6" d="M-1809,1173.71c-21.83,0-74-6.36-105.66-62.7-31.83-56.67-32.85-146.53-31.81-182.54a10.46,10.46,0,0,1,5.38-8.89,10.46,10.46,0,0,1,10.39,0c31.29,17.85,107.49,65.49,139.32,122.15,34.55,61.52,5.47,112.94-4.27,127.24a10.54,10.54,0,0,1-8.14,4.57C-1805.19,1173.66-1806.95,1173.71-1809,1173.71Zm-126.93-250.48a5.54,5.54,0,0,0-2.72.72,5.5,5.5,0,0,0-2.83,4.67c-1,35.59,0,124.36,31.17,179.94,33.14,59,89.72,60.86,106.26,60a5.51,5.51,0,0,0,4.26-2.39c9.33-13.7,37.18-63,4-122-31.22-55.58-106.51-102.62-137.44-120.26A5.53,5.53,0,0,0-1935.88,923.23Z" transform="translate(2022.05)"/><path class="cls-2" d="M-1732.15,1063.76c0,69.67-50.63,99.65-64.64,106.61a8,8,0,0,1-7.11,0c-14-7-64.64-36.94-64.64-106.61,0-64.93,44-144.58,61.3-173.44a8,8,0,0,1,13.8,0C-1776.12,919.18-1732.15,998.84-1732.15,1063.76Z" transform="translate(2022.05)"/><path class="cls-6" d="M-1800.34,1173.7a10.49,10.49,0,0,1-4.67-1.09c-15.49-7.7-66-38.29-66-108.85,0-65,43.12-143.85,61.65-174.73a10.46,10.46,0,0,1,9-5.12,10.46,10.46,0,0,1,9,5.12c18.54,30.88,61.65,109.73,61.65,174.73,0,70.56-50.54,101.15-66,108.85A10.49,10.49,0,0,1-1800.34,1173.7Zm0-284.79a5.5,5.5,0,0,0-4.75,2.69C-1823.42,922.13-1866,1000-1866,1063.76c0,67.68,48.41,97,63.25,104.37a5.51,5.51,0,0,0,4.88,0c14.84-7.37,63.25-36.69,63.25-104.37,0-63.75-42.62-141.63-60.94-172.16A5.5,5.5,0,0,0-1800.34,888.91Z" transform="translate(2022.05)"/><path class="cls-2" d="M731.43,1331q0-7.88-2-11.16t-6.95-3.28q-1.53,0-3.17.16t-3.17.38v44.43H699.8v-55.59q2.08-.54,4.87-1.15t5.91-1.09q3.12-.49,6.4-.77t6.46-.27a27.14,27.14,0,0,1,10.12,1.59A22.87,22.87,0,0,1,740,1308a30.47,30.47,0,0,1,16.41-5.36,28.77,28.77,0,0,1,11.33,1.92,17.08,17.08,0,0,1,7.06,5.42,20.51,20.51,0,0,1,3.61,8.32,53.71,53.71,0,0,1,1,10.72v32.5H763.05V1331q0-7.88-2-11.16t-6.95-3.28a14.69,14.69,0,0,0-3.67.66,14.3,14.3,0,0,0-3.88,1.64,25,25,0,0,1,1,5.31q.22,2.79.22,6v31.41H731.43Z" transform="translate(2022.05)"/><path class="cls-2" d="M846.77,1293.8q.22,4.49.6,10.18t.88,11.76q.49,6.07,1,12.09t1.09,11.16q2.84-5.58,5.8-12t5.91-13.35q3-6.9,5.85-14t5.53-13.9h18.06q-8.54,20.79-17.4,39.56t-19,36.28h-16q-.88-6-1.59-11.54t-1.31-10.89q-.6-5.36-1.09-10.83t-.93-11.38q-6.24,11.6-12.31,22.71t-13,21.94h-16q-.88-10.18-1.26-20.14t-.38-20.24q0-8.87.33-17.67t.88-17.78h17.18q-.55,9.63-1,18.88t-.49,19.21v7.55q0,3.83.22,7.66,3.06-5.36,6.46-11.38t6.67-12q3.28-6,6.24-11.66t5-10.12Z" transform="translate(2022.05)"/><path class="cls-2" d="M884.41,1361.54l18.17-75.84h49.57l-3.5,14h-32.5l-3.5,15.32h28.67l-3.39,13.79H909.25l-4.38,18.6h35l-3.5,14.12Z" transform="translate(2022.05)"/><path class="cls-2" d="M1003.47,1347.09l-3.5,14.45H949.41l18.17-75.84h17.07l-14.77,61.39Z" transform="translate(2022.05)"/><path class="cls-2" d="M1064.32,1347.09l-3.5,14.45h-50.56l18.17-75.84h17.07l-14.77,61.39Z" transform="translate(2022.05)"/></svg>