<?xml version="1.0" encoding="utf-8"?>
<!-- Generator: Adobe Illustrator 21.0.0, SVG Export Plug-In . SVG Version: 6.00 Build 0)  -->
<svg version="1.1" id="Layer_1" xmlns="http://www.w3.org/2000/svg" xmlns:xlink="http://www.w3.org/1999/xlink" x="0px" y="0px"
	 viewBox="0 0 24 24" style="enable-background:new 0 0 24 24;" xml:space="preserve">
<path d="M12,6c1.1,0,2-0.9,2-2c0-0.4-0.1-0.7-0.3-1L12,0l-1.7,3C10.1,3.3,10,3.6,10,4C10,5.1,10.9,6,12,6z"/>
<path d="M18,9h-5V7h-2v2H6c-1.7,0-3,1.3-3,3v9c0,0.5,0.5,1,1,1h16c0.5,0,1-0.5,1-1v-9C21,10.3,19.7,9,18,9z M19,20H5v-3
	c0.9,0,1.8-0.4,2.4-1l1.1-1.1L9.6,16c1.3,1.3,3.6,1.3,4.9,0l1.1-1.1l1.1,1.1c0.6,0.6,1.5,1,2.4,1C19,17,19,20,19,20z M19,15.5
	c-0.5,0-1-0.2-1.4-0.6l-2.1-2.1l-2.1,2.1c-0.7,0.7-2,0.7-2.8,0l-2.1-2.1l-2.1,2.1C6,15.3,5.5,15.5,5,15.5V12c0-0.6,0.4-1,1-1h12
	c0.5,0,1,0.4,1,1V15.5z"/>
</svg>
