<svg id="Layer_1" data-name="Layer 1" xmlns="http://www.w3.org/2000/svg" viewBox="0 0 43.63 25.11"><title>Ticlet</title><path d="M334.55,531.61a2.55,2.55,0,0,1,.45.55,5.8,5.8,0,0,1,.43.83,7.19,7.19,0,0,1,.32.87,1.68,1.68,0,0,1,.09.63,28.68,28.68,0,0,0-4.05-.71q-2-.19-3.66-.2c0,.1.08.19.12.27l.12.27a62,62,0,0,0-2.7,5.63q-1.23,2.93-2.15,5.8t-1.5,5.58a37.78,37.78,0,0,0-.77,5,.8.8,0,0,1-.3.34.71.71,0,0,1-.36.11.83.83,0,0,1-.34-.08.8.8,0,0,1-.23-.13,6.87,6.87,0,0,1-.24-2.24,27.8,27.8,0,0,1,.29-3.24q.25-1.81.75-3.94t1.19-4.37q.69-2.23,1.56-4.47a44.88,44.88,0,0,1,1.92-4.28,18.31,18.31,0,0,0-3.6.88,10.89,10.89,0,0,0-2.37,1.19,4.47,4.47,0,0,0-1.31,1.3,2.92,2.92,0,0,0-.45,1.25,1.5,1.5,0,0,0,.24,1,1.27,1.27,0,0,0,.77.54,4.66,4.66,0,0,1,.28.76c.09.31.15.58.2.79a3.17,3.17,0,0,1-2.21-1,3,3,0,0,1-.83-2.13,4.69,4.69,0,0,1,.94-2.62,7.87,7.87,0,0,1,3.11-2.45,19.8,19.8,0,0,1,5.65-1.61A37.68,37.68,0,0,1,334.55,531.61Z" transform="translate(-316.22 -531.43)"/><path d="M330.26,545.5a1.75,1.75,0,0,1,.51-.63c.16-.1.29-.11.39,0a.55.55,0,0,1,.17.42,1.35,1.35,0,0,1-.17.66q-.51,1.08-1.2,2.34t-1.41,2.33a10.26,10.26,0,0,1-1.44,1.74,1.46,1.46,0,0,1-1.32.52,1.59,1.59,0,0,1-1.23-.92,4,4,0,0,1-.3-1.75,9.75,9.75,0,0,1,.34-2.21q.31-1.19.72-2.31t.82-2.05l.66-1.44a2.73,2.73,0,0,1,1,.46,2,2,0,0,1,.82,1.19l-.48,1.14q-.3.72-.63,1.54t-.65,1.67q-.31.84-.52,1.54a5.53,5.53,0,0,0-.24,1.16q0,.45.18.51t.56-.29a6.87,6.87,0,0,0,.73-.9q.39-.56.79-1.26t.77-1.38l.65-1.23Q330.11,545.77,330.26,545.5Zm-1.32-2.19a2.71,2.71,0,0,0-.75-1.08,1.86,1.86,0,0,0-1.17-.48q.09-.24.23-.54l.25-.57.21-.48a2,2,0,0,1,.15-.3,2.86,2.86,0,0,1,.48.19,2.52,2.52,0,0,1,.54.38,3.28,3.28,0,0,1,.5.56,2,2,0,0,1,.31.7c-.08.16-.19.39-.31.68Z" transform="translate(-316.22 -531.43)"/><path d="M337.73,545.53a1.62,1.62,0,0,1,.47-.57.55.55,0,0,1,.43-.13c.12,0,.2.13.24.3a1.37,1.37,0,0,1-.12.74,15.93,15.93,0,0,1-2.19,3.88,10.33,10.33,0,0,1-2.46,2.33,4.62,4.62,0,0,1-2.33.81,2.4,2.4,0,0,1-1.8-.64,3.36,3.36,0,0,1-.89-2.06,8.47,8.47,0,0,1,.45-3.45,9.06,9.06,0,0,1,1.32-2.8,4.93,4.93,0,0,1,1.59-1.46,2.42,2.42,0,0,1,1.56-.29,1.92,1.92,0,0,1,1.21.74,3,3,0,0,1,.56,1.59,5.27,5.27,0,0,1-.39,2.28,1.35,1.35,0,0,1-.83.6,1.58,1.58,0,0,1-.94.06,5.31,5.31,0,0,0,.39-2q-.06-.74-.41-.83t-.88.54a6.73,6.73,0,0,0-1.05,2.07,4.86,4.86,0,0,0-.4,3.2,1.16,1.16,0,0,0,1.44.76,5.29,5.29,0,0,0,2.43-1.62A14,14,0,0,0,337.73,545.53Z" transform="translate(-316.22 -531.43)"/><path d="M342.38,545.56a1.83,1.83,0,0,1,.52-.64.43.43,0,0,1,.44-.08.45.45,0,0,1,.21.39,1.37,1.37,0,0,1-.18.72l-.94,1.81q-.62,1.19-1.37,2.36a14.27,14.27,0,0,1-1.53,2q-.78.84-1.38.75a1.58,1.58,0,0,1-1.26-1,5,5,0,0,1-.31-2.16,15,15,0,0,1,.48-3.08q.44-1.74,1.11-3.72t1.56-4.1q.88-2.11,1.85-4.21a1.75,1.75,0,0,1,.51.18,2.43,2.43,0,0,1,.58.42,5.22,5.22,0,0,1,.54.6,1.85,1.85,0,0,1,.35.72q-.6,1.38-1.26,3T341,542.8q-.65,1.62-1.22,3.13t-.94,2.69a14.1,14.1,0,0,0-.5,1.89q-.12.72.09.78T339,551a7.6,7.6,0,0,0,.75-.9q.41-.55.83-1.24t.78-1.35l.65-1.18Z" transform="translate(-316.22 -531.43)"/><path d="M350.12,545.56a1.59,1.59,0,0,1,.46-.6.62.62,0,0,1,.44-.15c.12,0,.2.12.24.29a1.37,1.37,0,0,1-.12.74,15.33,15.33,0,0,1-2.22,3.88,10.76,10.76,0,0,1-2.52,2.34,4.76,4.76,0,0,1-2.4.83,2.57,2.57,0,0,1-1.89-.66,3.37,3.37,0,0,1-.95-2.08,10.41,10.41,0,0,1,1.31-5.64,6.25,6.25,0,0,1,1.13-1.41,3.74,3.74,0,0,1,1.2-.75,2.89,2.89,0,0,1,1.15-.2,1.84,1.84,0,0,1,1.4.69,3.19,3.19,0,0,1,.63,1.53,5.32,5.32,0,0,1-.1,2,6.17,6.17,0,0,1-.82,2,5.76,5.76,0,0,1-1.47,1.56,4,4,0,0,1-2.08.73,1.1,1.1,0,0,0,1.08.62,3.28,3.28,0,0,0,1.69-.64,9.26,9.26,0,0,0,2-1.89A15.16,15.16,0,0,0,350.12,545.56ZM346,544.48q-.39-.15-.85.32a5.2,5.2,0,0,0-.87,1.21,10.06,10.06,0,0,0-.69,1.61,5.62,5.62,0,0,0-.31,1.48,1.65,1.65,0,0,0,1-.29,4,4,0,0,0,.87-.78,5.17,5.17,0,0,0,.67-1,5.23,5.23,0,0,0,.4-1.11,2.68,2.68,0,0,0,.08-.9A.56.56,0,0,0,346,544.48Z" transform="translate(-316.22 -531.43)"/><path d="M359.84,537.31s0,.1-.06.29a4.49,4.49,0,0,1-.27.65,7.86,7.86,0,0,1-.39.69,1,1,0,0,1-.42.42h-1.29l-2.37,0q-.84,2-1.67,4.09t-1.44,3.83a29.83,29.83,0,0,0-.88,2.86q-.27,1.13,0,1.19t.55-.29a7.6,7.6,0,0,0,.75-.9q.41-.55.83-1.24t.79-1.35l.66-1.18.4-.77a1.84,1.84,0,0,1,.52-.64.41.41,0,0,1,.42-.08.46.46,0,0,1,.19.39,1.37,1.37,0,0,1-.18.72q-.3.63-.93,1.81t-1.38,2.36a15.06,15.06,0,0,1-1.51,2q-.77.84-1.37.75a1.7,1.7,0,0,1-1.41-1.37,7.76,7.76,0,0,1-.08-3.06,26.22,26.22,0,0,1,1-4.26q.75-2.39,1.8-5-1.14,0-1.91,0a9.36,9.36,0,0,1-1.09,0,1.88,1.88,0,0,1,.1-.54q.11-.33.24-.64a5.81,5.81,0,0,1,.27-.55.82.82,0,0,1,.19-.27c.16,0,.48,0,.95-.06s1.19,0,2.15,0q.33-.75.67-1.48l.68-1.46a1.77,1.77,0,0,1,.51.18,2.49,2.49,0,0,1,.58.42,5.31,5.31,0,0,1,.54.6,1.85,1.85,0,0,1,.35.72l-.45,1.08q1.47.06,2.52.06Z" transform="translate(-316.22 -531.43)"/></svg>