<?xml version="1.0" encoding="utf-8"?>
<!-- Generator: Adobe Illustrator 21.0.0, SVG Export Plug-In . SVG Version: 6.00 Build 0)  -->
<svg version="1.1" id="Layer_1" xmlns="http://www.w3.org/2000/svg" xmlns:xlink="http://www.w3.org/1999/xlink" x="0px" y="0px"
	 viewBox="0 0 124 21" style="enable-background:new 0 0 124 21;" xml:space="preserve">
<path d="M123.1,0.9c-1.2-1.2-3.1-1.1-4.2,0l-12.5,12.8L94.5,1.6c-0.7-0.8-1.8-1.2-2.9-1.2c-1.1,0-2.1,0.4-2.9,1.2L77,13.7L65.2,1.6
	c-0.7-0.8-1.8-1.2-2.9-1.2c0,0,0,0,0,0c-1.1,0-2.1,0.4-2.9,1.2L47.7,13.7L35.9,1.6c-0.8-0.8-1.8-1.2-2.8-1.2c0,0,0,0,0,0
	c-1.1,0-2.1,0.4-2.8,1.2L18,13.8L5.1,0.9C4-0.3,2-0.3,0.9,0.9c-1.2,1.2-1.2,3.1,0,4.2l14.3,14.3c0.8,0.8,1.8,1.2,2.8,1.2
	s2-0.4,2.8-1.2L33,7.3l11.8,12.1c0.7,0.8,1.8,1.2,2.9,1.2c0,0,0,0,0,0c1.1,0,2.1-0.4,2.9-1.2L62.3,7.3l11.8,12.1
	c0.7,0.8,1.8,1.2,2.9,1.2c0,0,0,0,0,0c1.1,0,2.1-0.4,2.9-1.2L91.7,7.3l11.8,12.1c0.7,0.8,1.8,1.2,2.9,1.2c0,0,0,0,0,0
	c1.1,0,2.1-0.4,2.9-1.2l14-14.3C124.3,3.9,124.3,2,123.1,0.9z"/>
</svg>
