<svg id="Layer_1" data-name="Layer 1" xmlns="http://www.w3.org/2000/svg" viewBox="0 0 2180 1105"><defs><style>.cls-1{opacity:0.65;}.cls-2{fill:#fff;}.cls-3{opacity:0.5;}.cls-10,.cls-11,.cls-12,.cls-13,.cls-14,.cls-15,.cls-4,.cls-5,.cls-6,.cls-7,.cls-8,.cls-9{fill:none;stroke:#fff;stroke-linecap:round;stroke-linejoin:round;}.cls-4{stroke-width:2px;}.cls-5{stroke-width:1.76px;}.cls-6{stroke-width:1.11px;}.cls-7{stroke-width:2.13px;}.cls-8{stroke-width:1.78px;}.cls-9{stroke-width:1.66px;}.cls-10{stroke-width:1.06px;}.cls-11{stroke-width:1.13px;}.cls-12{stroke-width:0.72px;}.cls-13{stroke-width:1.62px;}.cls-14,.cls-15{stroke-width:5px;}.cls-15{stroke-dasharray:0 18.54;}</style></defs><title>abstractbgOther</title><g id="griddots" class="cls-1"><circle class="cls-2" cx="452.43" cy="469.87" r="2.5"/><circle class="cls-2" cx="464.94" cy="469.87" r="2.5"/><circle class="cls-2" cx="477.45" cy="469.87" r="2.5"/><circle class="cls-2" cx="489.96" cy="469.87" r="2.5"/><circle class="cls-2" cx="502.47" cy="469.87" r="2.5"/><circle class="cls-2" cx="452.43" cy="480.87" r="2.5"/><circle class="cls-2" cx="464.94" cy="480.87" r="2.5"/><circle class="cls-2" cx="477.45" cy="480.87" r="2.5"/><circle class="cls-2" cx="489.96" cy="480.87" r="2.5"/><circle class="cls-2" cx="502.47" cy="480.87" r="2.5"/><circle class="cls-2" cx="452.43" cy="491.87" r="2.5"/><circle class="cls-2" cx="464.94" cy="491.87" r="2.5"/><circle class="cls-2" cx="477.45" cy="491.87" r="2.5"/><circle class="cls-2" cx="489.96" cy="491.87" r="2.5"/><circle class="cls-2" cx="502.47" cy="491.87" r="2.5"/><circle class="cls-2" cx="452.43" cy="502.87" r="2.5"/><circle class="cls-2" cx="464.94" cy="502.87" r="2.5"/><circle class="cls-2" cx="477.45" cy="502.87" r="2.5"/><circle class="cls-2" cx="489.96" cy="502.87" r="2.5"/><circle class="cls-2" cx="502.47" cy="502.87" r="2.5"/><circle class="cls-2" cx="1403.43" cy="598.87" r="2.5"/><circle class="cls-2" cx="1415.94" cy="598.87" r="2.5"/><circle class="cls-2" cx="1428.45" cy="598.87" r="2.5"/><circle class="cls-2" cx="1440.96" cy="598.87" r="2.5"/><circle class="cls-2" cx="1453.47" cy="598.87" r="2.5"/><circle class="cls-2" cx="1403.43" cy="609.87" r="2.5"/><circle class="cls-2" cx="1415.94" cy="609.87" r="2.5"/><circle class="cls-2" cx="1428.45" cy="609.87" r="2.5"/><circle class="cls-2" cx="1440.96" cy="609.87" r="2.5"/><circle class="cls-2" cx="1453.47" cy="609.87" r="2.5"/><circle class="cls-2" cx="1403.43" cy="620.87" r="2.5"/><circle class="cls-2" cx="1415.94" cy="620.87" r="2.5"/><circle class="cls-2" cx="1428.45" cy="620.87" r="2.5"/><circle class="cls-2" cx="1440.96" cy="620.87" r="2.5"/><circle class="cls-2" cx="1453.47" cy="620.87" r="2.5"/><circle class="cls-2" cx="1403.43" cy="631.87" r="2.5"/><circle class="cls-2" cx="1415.94" cy="631.87" r="2.5"/><circle class="cls-2" cx="1428.45" cy="631.87" r="2.5"/><circle class="cls-2" cx="1440.96" cy="631.87" r="2.5"/><circle class="cls-2" cx="1453.47" cy="631.87" r="2.5"/><circle class="cls-2" cx="1721.43" cy="950.87" r="2.5"/><circle class="cls-2" cx="1733.94" cy="950.87" r="2.5"/><circle class="cls-2" cx="1746.45" cy="950.87" r="2.5"/><circle class="cls-2" cx="1758.96" cy="950.87" r="2.5"/><circle class="cls-2" cx="1771.47" cy="950.87" r="2.5"/><circle class="cls-2" cx="1721.43" cy="961.87" r="2.5"/><circle class="cls-2" cx="1733.94" cy="961.87" r="2.5"/><circle class="cls-2" cx="1746.45" cy="961.87" r="2.5"/><circle class="cls-2" cx="1758.96" cy="961.87" r="2.5"/><circle class="cls-2" cx="1771.47" cy="961.87" r="2.5"/><circle class="cls-2" cx="1721.43" cy="972.87" r="2.5"/><circle class="cls-2" cx="1733.94" cy="972.87" r="2.5"/><circle class="cls-2" cx="1746.45" cy="972.87" r="2.5"/><circle class="cls-2" cx="1758.96" cy="972.87" r="2.5"/><circle class="cls-2" cx="1771.47" cy="972.87" r="2.5"/><circle class="cls-2" cx="1721.43" cy="983.87" r="2.5"/><circle class="cls-2" cx="1733.94" cy="983.87" r="2.5"/><circle class="cls-2" cx="1746.45" cy="983.87" r="2.5"/><circle class="cls-2" cx="1758.96" cy="983.87" r="2.5"/><circle class="cls-2" cx="1771.47" cy="983.87" r="2.5"/><circle class="cls-2" cx="349.43" cy="74.87" r="2.5"/><circle class="cls-2" cx="361.94" cy="74.87" r="2.5"/><circle class="cls-2" cx="374.45" cy="74.87" r="2.5"/><circle class="cls-2" cx="386.96" cy="74.87" r="2.5"/><circle class="cls-2" cx="399.47" cy="74.87" r="2.5"/><circle class="cls-2" cx="349.43" cy="85.87" r="2.5"/><circle class="cls-2" cx="361.94" cy="85.87" r="2.5"/><circle class="cls-2" cx="374.45" cy="85.87" r="2.5"/><circle class="cls-2" cx="386.96" cy="85.87" r="2.5"/><circle class="cls-2" cx="399.47" cy="85.87" r="2.5"/><circle class="cls-2" cx="349.43" cy="96.87" r="2.5"/><circle class="cls-2" cx="361.94" cy="96.87" r="2.5"/><circle class="cls-2" cx="374.45" cy="96.87" r="2.5"/><circle class="cls-2" cx="386.96" cy="96.87" r="2.5"/><circle class="cls-2" cx="399.47" cy="96.87" r="2.5"/><circle class="cls-2" cx="349.43" cy="107.87" r="2.5"/><circle class="cls-2" cx="361.94" cy="107.87" r="2.5"/><circle class="cls-2" cx="374.45" cy="107.87" r="2.5"/><circle class="cls-2" cx="386.96" cy="107.87" r="2.5"/><circle class="cls-2" cx="399.47" cy="107.87" r="2.5"/></g><g id="lineseg" class="cls-3"><line class="cls-4" x1="1932" y1="495" x2="1660" y2="731"/><line class="cls-4" x1="1855" y1="502" x2="1583" y2="738"/><line class="cls-4" x1="690" y1="559" x2="379" y2="829"/><line class="cls-4" x1="593" y1="584" x2="321" y2="820"/><line class="cls-4" x1="1067" y1="862" x2="860" y2="1042"/><line class="cls-4" x1="992" y1="868" x2="802" y2="1033"/></g><g id="squares"><rect class="cls-5" x="1944.89" y="531.2" width="54.31" height="54.31" rx="4.24" transform="translate(1099.12 -1296.02) rotate(48.98)"/><rect class="cls-6" x="1913.77" y="600.13" width="34.5" height="34.5" rx="2.69" transform="translate(1129.55 -1244.78) rotate(48.98)"/><rect class="cls-5" x="654.89" y="420.2" width="54.31" height="54.31" rx="4.24" transform="translate(571.97 -360.85) rotate(48.98)"/><rect class="cls-6" x="623.77" y="489.13" width="34.5" height="34.5" rx="2.69" transform="translate(602.41 -309.6) rotate(48.98)"/><rect class="cls-5" x="463.89" y="921.2" width="54.31" height="54.31" rx="4.24" transform="translate(884.34 -44.53) rotate(48.98)"/><rect class="cls-6" x="526.77" y="895.13" width="34.5" height="34.5" rx="2.69" transform="translate(875.4 -96.87) rotate(48.98)"/></g><g id="slantlines"><line class="cls-7" x1="887.13" y1="510.44" x2="870.18" y2="534.27"/><line class="cls-7" x1="900.05" y1="510.57" x2="883.09" y2="534.39"/><line class="cls-7" x1="912.96" y1="510.69" x2="896.01" y2="534.51"/><line class="cls-7" x1="925.87" y1="510.81" x2="908.92" y2="534.64"/><line class="cls-7" x1="938.78" y1="510.93" x2="921.83" y2="534.76"/><line class="cls-7" x1="951.7" y1="511.05" x2="934.74" y2="534.88"/><line class="cls-7" x1="964.61" y1="511.17" x2="947.66" y2="535"/><line class="cls-8" x1="1592.78" y1="574.44" x2="1578.59" y2="594.39"/><line class="cls-8" x1="1603.41" y1="574.55" x2="1589.22" y2="594.49"/><line class="cls-8" x1="1614.05" y1="574.65" x2="1599.86" y2="594.59"/><line class="cls-8" x1="1624.69" y1="574.75" x2="1610.5" y2="594.7"/><line class="cls-8" x1="1635.33" y1="574.85" x2="1621.14" y2="594.8"/><line class="cls-8" x1="1645.97" y1="574.95" x2="1631.78" y2="594.9"/><line class="cls-8" x1="1656.61" y1="575.05" x2="1642.42" y2="595"/></g><g id="traingles"><polygon class="cls-9" points="1097.27 379.17 1073.84 396.3 1100.39 408.02 1097.27 379.17"/><path class="cls-10" d="M1098.88,372.06l-32.3,23.62a1.61,1.61,0,0,0,.3,2.78l36.6,16.17a1.62,1.62,0,0,0,2.26-1.65l-4.3-39.79A1.62,1.62,0,0,0,1098.88,372.06Z"/><polygon class="cls-9" points="1889.27 834.17 1865.84 851.3 1892.39 863.02 1889.27 834.17"/><path class="cls-10" d="M1890.88,827.06l-32.3,23.62a1.61,1.61,0,0,0,.3,2.78l36.6,16.17a1.62,1.62,0,0,0,2.26-1.65l-4.3-39.79A1.62,1.62,0,0,0,1890.88,827.06Z"/><polygon class="cls-11" points="2103.2 478.77 2084.42 472.34 2088.24 491.82 2103.2 478.77"/><path class="cls-12" d="M2107.82,476.89l-25.9-8.87a1.11,1.11,0,0,0-1.44,1.26l5.27,26.86a1.11,1.11,0,0,0,1.82.62l20.62-18A1.1,1.1,0,0,0,2107.82,476.89Z"/><polygon class="cls-13" points="1219.09 633.17 1239.49 661.61 1253.92 629.72 1219.09 633.17"/></g><g id="dottedlines"><line class="cls-14" x1="749.5" y1="101.5" x2="749.5" y2="101.5"/><line class="cls-15" x1="749.5" y1="120.04" x2="749.5" y2="333.23"/><line class="cls-14" x1="749.5" y1="342.5" x2="749.5" y2="342.5"/><line class="cls-14" x1="55.5" y1="827.5" x2="55.5" y2="827.5"/><line class="cls-15" x1="55.5" y1="846.04" x2="55.5" y2="1059.23"/><line class="cls-14" x1="55.5" y1="1068.5" x2="55.5" y2="1068.5"/><line class="cls-14" x1="1365.5" y1="772.5" x2="1365.5" y2="772.5"/><line class="cls-15" x1="1365.5" y1="791.04" x2="1365.5" y2="1004.23"/><line class="cls-14" x1="1365.5" y1="1013.5" x2="1365.5" y2="1013.5"/><line class="cls-14" x1="1443.5" y1="29.5" x2="1443.5" y2="29.5"/><line class="cls-15" x1="1443.5" y1="48.04" x2="1443.5" y2="261.23"/><line class="cls-14" x1="1443.5" y1="270.5" x2="1443.5" y2="270.5"/></g></svg>