<svg width="128" height="230" viewBox="0 0 128 230" fill="none" xmlns="http://www.w3.org/2000/svg">
<path d="M127.86 52.1725C127.86 80.9866 104.501 104.345 75.687 104.345L62.9712 104.345C67.0728 85.0939 79.5364 66.5532 102.968 47.8701C77.283 55.2623 57.7363 79.1497 44.6384 104.345L6.91132 104.346C3.0943 104.346 0 101.251 0 97.4343V6.91194C0 3.09492 3.0943 0.000611755 6.91132 0.000611755H75.4316C75.5167 0.000204072 75.6018 0 75.687 0C104.501 0 127.86 23.3584 127.86 52.1725Z" fill="url(#paint0_linear)"/>
<path d="M35.0943 125.655H13.8226C7.30659 125.655 4.04856 125.655 2.02428 127.679C0 129.703 0 132.962 0 139.478V216.177C0 222.693 0 225.951 2.02428 227.976C4.04856 230 7.30658 230 13.8226 230H75.687C104.501 230 127.86 206.642 127.86 177.827C127.86 149.013 104.501 125.655 75.6869 125.655H61.6874C61.7877 126.876 61.9159 128.102 62.0715 129.331C65.6806 157.84 33.405 165.155 25.0618 166.101C25.5507 156.729 28.9238 141.829 35.0943 125.655Z" fill="url(#paint1_linear)"/>
<defs>
<linearGradient id="paint0_linear" x1="3.67412" y1="1.45691e-06" x2="6.98083" y2="230" gradientUnits="userSpaceOnUse">
<stop stop-color="#00D7CE"/>
<stop offset="1" stop-color="#0084FF"/>
</linearGradient>
<linearGradient id="paint1_linear" x1="3.67412" y1="1.45691e-06" x2="6.98083" y2="230" gradientUnits="userSpaceOnUse">
<stop stop-color="#00D7CE"/>
<stop offset="1" stop-color="#0084FF"/>
</linearGradient>
</defs>
</svg>
