<svg width="2000" height="2000" viewBox="0 0 2000 2000" fill="none" xmlns="http://www.w3.org/2000/svg">
<g filter="url(#filter0_d)">
<circle cx="1000" cy="1000" r="47.88" fill="#2196F3"/>
</g>
<circle opacity="0.9" cx="1000" cy="1000" r="97.2143" stroke="#2196F3"/>
<circle opacity="0.8" cx="1000" cy="1000" r="180.5" stroke="#2196F3"/>
<circle opacity="0.7" cx="1000" cy="1000" r="264.5" stroke="#2196F3"/>
<circle opacity="0.6" cx="1000" cy="1000" r="347.5" stroke="#2196F3"/>
<circle opacity="0.5" cx="1000" cy="1000" r="434.5" stroke="#2196F3"/>
<circle opacity="0.4" cx="1000" cy="1000" r="534.918" stroke="#2196F3"/>
<circle opacity="0.3" cx="1000" cy="1000" r="646.143" stroke="#2196F3"/>
<circle opacity="0.2" cx="1000" cy="1000" r="777.179" stroke="#2196F3"/>
<circle opacity="0.1" cx="1000" cy="1000" r="925.5" stroke="#2196F3"/>
<circle opacity="0.7" cx="1173.02" cy="799.019" r="9.01942" fill="#2196F3"/>
<circle opacity="0.8" cx="851.654" cy="897.654" r="8.65401" fill="#2196F3"/>
<circle opacity="0.3" cx="465.019" cy="637.019" r="15.0194" fill="#2196F3"/>
<circle opacity="0.9" cx="1068.02" cy="1069.02" r="6.01942" fill="#2196F3"/>
<circle opacity="0.2" cx="1769.02" cy="1112.02" r="11.9806" fill="#2196F3"/>
<circle opacity="0.1" cx="1321.65" cy="1867.65" r="11.346" fill="#2196F3"/>
<circle opacity="0.6" cx="702.481" cy="1181.48" r="12.519" fill="#2196F3"/>
<circle opacity="0.4" cx="677.116" cy="1426.12" r="13.8844" fill="#2196F3"/>
<circle opacity="0.5" cx="1391.56" cy="1186.56" r="9.55781" fill="#2196F3"/>
<defs>
<filter id="filter0_d" x="914.12" y="914.12" width="171.76" height="171.76" filterUnits="userSpaceOnUse" color-interpolation-filters="sRGB">
<feFlood flood-opacity="0" result="BackgroundImageFix"/>
<feColorMatrix in="SourceAlpha" type="matrix" values="0 0 0 0 0 0 0 0 0 0 0 0 0 0 0 0 0 0 127 0"/>
<feOffset/>
<feGaussianBlur stdDeviation="19"/>
<feColorMatrix type="matrix" values="0 0 0 0 0.129412 0 0 0 0 0.588235 0 0 0 0 0.952941 0 0 0 0.5 0"/>
<feBlend mode="normal" in2="BackgroundImageFix" result="effect1_dropShadow"/>
<feBlend mode="normal" in="SourceGraphic" in2="effect1_dropShadow" result="shape"/>
</filter>
</defs>
</svg>
