<svg width="29" height="31" viewBox="0 0 29 31" fill="none" xmlns="http://www.w3.org/2000/svg">
<path d="M13.7368 0L5.34211 13.95H22.1316L13.7368 0ZM13.7368 5.952L16.6826 10.85H10.7758L13.7368 5.952ZM22.1316 17.05C18.3311 17.05 15.2632 20.1655 15.2632 24.025C15.2632 27.8845 18.3311 31 22.1316 31C25.9321 31 29 27.8845 29 24.025C29 20.1655 25.9321 17.05 22.1316 17.05ZM22.1316 27.9C20.0253 27.9 18.3158 26.164 18.3158 24.025C18.3158 21.886 20.0253 20.15 22.1316 20.15C24.2379 20.15 25.9474 21.886 25.9474 24.025C25.9474 26.164 24.2379 27.9 22.1316 27.9ZM0 30.225H12.2105V17.825H0V30.225ZM3.05263 20.925H9.1579V27.125H3.05263V20.925Z" fill="white"/>
</svg>
